<?xml version="1.0" standalone="no"?>
<!DOCTYPE svg PUBLIC "-//W3C//DTD SVG 1.1//EN" "../../../../www.w3.org/Graphics/SVG/1.1/DTD/svg11.dtd" >
<svg>
<metadata>
Created by FontForge 20090914 at Tue May 22 11:06:35 2012
 By www-data
&#194;&#169; 2011 Bernd Montag
</metadata>
<defs>
<font id="SansationBold" horiz-adv-x="565" >
  <font-face 
    font-family="Sansation"
    font-weight="700"
    font-stretch="normal"
    units-per-em="2048"
    panose-1="2 0 0 0 0 0 0 0 0 0"
    ascent="1638"
    descent="-410"
    x-height="1050"
    cap-height="1430"
    bbox="-190 -438 2513 1854"
    underline-thickness="210"
    underline-position="-59"
    unicode-range="U+0020-U+FB02"
  />
<missing-glyph horiz-adv-x="1124" 
d="M50 0v1280h1024v-1280h-1024zM82 32h960v1216h-960v-1216z" />
    <glyph glyph-name="ffi" unicode="ffi" horiz-adv-x="1827" 
d="M791 1050l0.00195312 51c0 267.333 157.333 401 472 401c112.667 0 225.667 -23.333 339 -70v-210c-102.667 46.667 -209.334 70 -320.001 70c-150.667 0 -226 -61 -226 -183v-59h646v-1050h-265v850h-381v-850h-265v850h-401v-850h-265v1101c0 254 140.667 381 422 381
c59.333 0 115.666 -10 168.999 -30v-210c-42.667 20 -96 30 -160 30c-110.667 0 -166 -54.333 -166 -163v-59h401z" />
    <glyph glyph-name="ffl" unicode="ffl" horiz-adv-x="1857" 
d="M791 850h-401v-850h-265v1101c0 254 140.667 381 422 381c59.333 0 115.666 -10 168.999 -30v-210c-42.667 20 -96 30 -160 30c-110.667 0 -166 -54.333 -166 -163v-59h401v49c0 267.333 174 401 522 401c132.667 0 272.334 -23.333 419.001 -70v-1432h-265v1274
c-53.333 12 -108.333 18 -165 18c-164 0 -246 -61 -246 -183v-59h235v-200h-235v-850h-265v852z" />
    <glyph glyph-name="ff" unicode="ff" horiz-adv-x="1337" 
d="M791 850h-400.999v-850h-265v1101c0 254 140.667 381 422 381c59.333 0 115.666 -10 168.999 -30v-210c-42.667 20 -96 30 -160 30c-110.667 0 -166 -54.333 -166 -163v-59h401c0 288 157.333 432 472 432c86 0 164 -13.333 234 -40v-210c-66 26.667 -137.667 40 -215 40
c-150.667 0 -226 -74 -226 -222h315v-200h-315v-850h-265v850z" />
    <glyph glyph-name="fj" unicode="fj" horiz-adv-x="1161" 
d="M771 850h-380.999v-850h-265v1101c0 267.333 157.333 401 472 401c112.667 0 225.667 -23.333 339 -70v-210c-102.667 46.667 -209.334 70 -320.001 70c-150.667 0 -226 -61 -226 -183v-59h646v-970c0 -212 -60.667 -384.667 -182 -518l-208 145
c83.333 90 125 214.333 125 373v770z" />
    <glyph glyph-name="ffj" unicode="ffj" horiz-adv-x="1827" 
d="M791 850h-400.998v-850h-265v1101c0 254 140.667 381 422 381c59.333 0 115.666 -10 168.999 -30v-210c-42.667 20 -96 30 -160 30c-110.667 0 -166 -54.333 -166 -163v-59h401v51c0 267.333 157.333 401 472 401c112.667 0 225.667 -23.333 339 -70v-210
c-102.667 46.667 -209.334 70 -320.001 70c-150.667 0 -226 -61 -226 -183v-59h646v-970c0 -212 -60.667 -384.667 -182 -518l-208 145c83.333 90 125 214.333 125 373v770h-381v-850h-265v850z" />
    <glyph glyph-name="fb" unicode="fb" horiz-adv-x="1854" 
d="M1066 776l-0.000976562 -533c60.667 -19.333 131 -29 211 -29c160 0 240 113 240 339c0 184.667 -69 277 -207 277c-89.333 0 -170.666 -18 -243.999 -54zM800.999 1274c-53.333 12 -108.334 18 -165.001 18c-164 0 -246 -61 -246 -183v-59h235v-210h-235v-840h-265v1101
c0 267.333 174 401 522 401c132.667 0 272.334 -23.333 419.001 -70v-432c79.333 33.333 161 50 245 50c312 0 468 -168 468 -504c0 -364 -171 -546 -513 -546c-144 -0 -299 14.333 -465 43v1231z" />
    <glyph glyph-name="ffb" unicode="ffb" horiz-adv-x="2520" 
d="M1732 776l-0.000976562 -533c60.667 -19.333 131 -29 211 -29c160 0 240 113 240 339c0 184.667 -69 277 -207 277c-89.333 0 -170.666 -18 -243.999 -54zM790.999 850h-401v-850h-265v1101c0 254 140.667 381 422 381c59.333 0 115.666 -10 168.999 -30v-210
c-42.667 20 -96 30 -160 30c-110.667 0 -166 -54.333 -166 -163v-59h401v49c0 267.333 174 401 522 401c132.667 0 272.334 -23.333 419.001 -70v-430c79.333 33.333 161 50 245 50c312 0 468 -168 468 -504c0 -364 -171 -546 -513 -546c-144 -0 -299 14.333 -465 43v1229
c-53.333 12 -108.333 18 -165 18c-164 0 -246 -61 -246 -183v-59h235v-200h-235v-850h-265v852z" />
    <glyph glyph-name="fh" unicode="fh" horiz-adv-x="1911" 
d="M801 1274c-53.333 12 -108.335 18 -165.002 18c-164 0 -246 -61 -246 -183v-59h235v-210h-235v-840h-265v1101c0 267.333 174 401 522 401c132.667 0 272.334 -23.333 419.001 -70v-516c82.667 89.333 188.334 134 317.001 134c268.667 0 403 -130.333 403 -391v-659
h-265v662c0 116 -64.333 174 -193 174c-92.667 0 -180 -44.333 -262 -133v-703h-265v1274z" />
    <glyph glyph-name="ffh" unicode="ffh" horiz-adv-x="2577" 
d="M791 850h-401.001v-850h-265v1101c0 254 140.667 381 422 381c59.333 0 115.666 -10 168.999 -30v-210c-42.667 20 -96 30 -160 30c-110.667 0 -166 -54.333 -166 -163v-59h401v49c0 267.333 174 401 522 401c132.667 0 272.334 -23.333 419.001 -70v-514
c82.667 89.333 188.334 134 317.001 134c268.667 0 403 -130.333 403 -391v-659h-265v662c0 116 -64.333 174 -193 174c-92.667 0 -180 -44.333 -262 -133v-705h-265v1274c-53.333 12 -108.333 18 -165 18c-164 0 -246 -61 -246 -183v-59h235v-200h-235v-850h-265v852z" />
    <glyph glyph-name="fk" unicode="fk" horiz-adv-x="1897" 
d="M801 1274c-53.333 12 -108.334 18 -165.001 18c-164 0 -246 -61 -246 -183v-59h235v-210h-235v-840h-265v1101c0 267.333 174 401 522 401c132.667 0 272.334 -23.333 419.001 -70v-464c108.667 54.667 229.667 82 363 82c254.667 0 382 -104.333 382 -313
c0 -140 -93.333 -248 -280 -324l316 -413h-314l-334 445v83c231.333 20.667 347 84 347 190c0 81.333 -56.667 122 -170 122c-102 0 -205.333 -31.333 -310 -94v-746h-265v1274z" />
    <glyph glyph-name="ffk" unicode="ffk" horiz-adv-x="2563" 
d="M791 850h-401v-850h-265v1101c0 254 140.667 381 422 381c59.333 0 115.666 -10 168.999 -30v-210c-42.667 20 -96 30 -160 30c-110.667 0 -166 -54.333 -166 -163v-59h401v49c0 267.333 174 401 522 401c132.667 0 272.334 -23.333 419.001 -70v-462
c108.667 54.667 229.667 82 363 82c254.667 0 382 -104.333 382 -313c0 -140 -93.333 -248 -280 -324l316 -413h-314l-334 445v83c231.333 20.667 347 84 347 190c0 81.333 -56.667 122 -170 122c-102 0 -205.333 -31.333 -310 -94v-748h-265v1274
c-53.333 12 -108.333 18 -165 18c-164 0 -246 -61 -246 -183v-59h235v-200h-235v-850h-265v852z" />
    <glyph glyph-name="fi" unicode="fi" horiz-adv-x="1161" 
d="M1036 1050l0.000976562 -1050h-265v850h-381v-850h-265v1101c0 267.333 157.333 401 472 401c112.667 0 225.667 -23.333 339 -70v-210c-102.667 46.667 -209.334 70 -320.001 70c-150.667 0 -226 -61 -226 -183v-59h646z" />
    <glyph glyph-name="fl" unicode="fl" horiz-adv-x="1191" 
d="M801 1274c-53.333 12 -108.334 18 -165.001 18c-164 0 -246 -61 -246 -183v-59h235v-210h-235v-840h-265v1101c0 267.333 174 401 522 401c132.667 0 272.334 -23.333 419.001 -70v-1432h-265v1274z" />
    <glyph glyph-name=".notdef" horiz-adv-x="1124" 
d="M50 0v1280h1024v-1280h-1024zM82 32h960v1216h-960v-1216z" />
    <glyph glyph-name="space" unicode=" " horiz-adv-x="450" 
 />
    <glyph glyph-name="exclam" unicode="!" 
d="M415 1430v-1060h-265v1060h265zM415 245v-245h-265v245h265z" />
    <glyph glyph-name="quotedbl" unicode="&#x22;" horiz-adv-x="815" 
d="M715 1430l-30 -435h-185l-30 435h245zM345 1430l-30 -435h-185l-30 435h245z" />
    <glyph glyph-name="numbersign" unicode="#" horiz-adv-x="1893" 
d="M803 876l-90 -378h377l90 378h-377zM403 -5l89 349h-392l30 154h402l89 378h-401l30 154h412l100 395h180l-100 -395h378l102 400h180l-101 -400h392l-30 -154h-402l-89 -378h401l-30 -154h-412l-90 -349h-180l90 349h-378l-90 -349h-180z" />
    <glyph glyph-name="dollar" unicode="$" horiz-adv-x="1025" 
d="M399 1231v199h255v-195c90.667 -8 177.667 -26.333 261 -55v-220c-116.667 46.667 -243.334 70 -380.001 70c-143.333 0 -215 -36.667 -215 -110c0 -70 41.667 -105 125 -105h170c233.333 0 350 -105 350 -315c0 -184 -103.667 -291 -311 -321v-179h-255v175
c-98.667 8 -190 26.333 -274 55v220c116.667 -46.667 251.334 -70 404.001 -70c114 0 171 36.667 171 110c0 70 -38.333 105 -115 105h-190c-213.333 0 -320 105 -320 315c0 183.333 108 290.333 324 321z" />
    <glyph glyph-name="percent" unicode="%" horiz-adv-x="1502" 
d="M365 0h-265l1017 1430h265zM428 995c89.333 0 134 49 134 147c0 82.667 -44.667 124 -134 124c-92 0 -138 -41.333 -138 -124c0 -98 46 -147 138 -147zM100 1140c0 200 109.333 300 328 300c216 0 324 -100 324 -300c0 -212.667 -108 -319 -324 -319
c-218.667 0 -328 106.333 -328 319zM1078 164c89.333 0 134 45.667 134 137c0 89.333 -44.667 134 -134 134c-92 0 -138 -44.667 -138 -134c0 -91.333 46 -137 138 -137zM750 299c0 206.667 109.333 310 328 310c216 0 324 -103.333 324 -310c0 -206 -108 -309 -324 -309
c-218.667 0 -328 103 -328 309z" />
    <glyph glyph-name="ampersand" unicode="&#x26;" horiz-adv-x="1335" 
d="M100 1035c0 263.333 170.001 395 510.001 395c123.333 0 243.333 -16.667 360 -50v-210c-116.667 33.333 -232.334 50 -347.001 50c-172 0 -258 -60 -258 -180c0 -140 68.333 -210 205 -210h338v142h143l102 -142h182v-210h-162v-130c0 -328.667 -182.667 -493 -548 -493
c-350 0 -525 139 -525 417c0 151.333 61 255.666 183 312.999c-122 56.667 -183 159.334 -183 308.001zM572.001 620c-138 0 -207 -67 -207 -201c0 -139.333 87 -209 261 -209c188 0 282 94 282 282v128h-336z" />
    <glyph glyph-name="quotesingle" unicode="'" horiz-adv-x="445" 
d="M345 1430l-30 -435h-185l-30 435h245z" />
    <glyph glyph-name="parenleft" unicode="(" horiz-adv-x="640" 
d="M565 1430c-133.333 -301.333 -200 -603 -200 -905s66.667 -603.667 200 -905h-265c-133.333 301.333 -200 603 -200 905s66.667 603.667 200 905h265z" />
    <glyph glyph-name="parenright" unicode=")" horiz-adv-x="640" 
d="M340 1430c133.333 -301.333 200 -603 200 -905s-66.667 -603.667 -200 -905h-265c133.333 301.333 200 603 200 905s-66.667 603.667 -200 905h265z" />
    <glyph glyph-name="asterisk" unicode="*" horiz-adv-x="810" 
d="M328 1430h156l-30 -232l209 101l48 -147l-228 -43l159 -170l-123 -92l-113 205l-113 -204l-124 89l161 171l-230 42l48 150l211 -103z" />
    <glyph glyph-name="plus" unicode="+" horiz-adv-x="950" 
d="M370 630v270h210v-270h270v-210h-270v-270h-210v270h-270v210h270z" />
    <glyph glyph-name="comma" unicode="," horiz-adv-x="465" 
d="M440 185l-150 -435h-265l150 435h265z" />
    <glyph glyph-name="hyphen" unicode="-" horiz-adv-x="700" 
d="M600 630v-210h-500v210h500z" />
    <glyph glyph-name="hyphen" unicode="&#x2010;" horiz-adv-x="700" 
d="M600 630v-210h-500v210h500z" />
    <glyph glyph-name="period" unicode="." horiz-adv-x="465" 
d="M365 245v-245h-265v245h265z" />
    <glyph glyph-name="slash" unicode="../../../default.htm" horiz-adv-x="1060" 
d="M310 0h-285l725 1430h285z" />
    <glyph glyph-name="zero" unicode="0" horiz-adv-x="1445" 
d="M728 220c234.667 0 352 166.333 352 499c0 327.333 -117.333 491 -352 491c-242 0 -363 -163.667 -363 -491c0 -332.667 121 -499 363 -499zM90 713c0 484.667 212.667 727 638 727c418 0 627 -242.333 627 -727c0 -482 -209 -723 -627 -723
c-425.333 0 -638 241 -638 723z" />
    <glyph glyph-name="one" unicode="1" horiz-adv-x="690" 
d="M250 0v1211h-150v109l415 140v-1460h-265z" />
    <glyph glyph-name="two" unicode="2" horiz-adv-x="1180" 
d="M100 0v200.001c476.667 331.333 715 604.666 715 819.999c0 126.667 -86.667 190 -260 190c-146.667 0 -285 -36.667 -415 -110v240c130 66.667 268.333 100 415 100c350 0 525 -140 525 -420c0 -246.667 -191 -510 -573 -790h573v-230h-980z" />
    <glyph glyph-name="three" unicode="3" horiz-adv-x="1115" 
d="M100 1380c133.333 40 273.333 59.999 420 59.999c356.667 0 535 -130 535 -390c0 -157.333 -62.667 -265.666 -188 -324.999c125.333 -56.667 188 -165 188 -325c0 -273.333 -178.333 -410 -535 -410c-146.667 0 -286.667 20 -420 60v240
c133.333 -46.667 273.333 -70 420 -70c180 0 270 60 270 180c0 140 -64 210 -192 210h-348v230h345c130 0 195 70 195 210c0 106.667 -90 160 -270 160c-146.667 0 -286.667 -23.333 -420 -70v240z" />
    <glyph glyph-name="four" unicode="4" horiz-adv-x="1220" 
d="M1047 0h-265v310h-722v200l585 920h284l-566 -910h419v478h265v-478l148 -136v-74h-148v-310z" />
    <glyph glyph-name="five" unicode="5" horiz-adv-x="1160" 
d="M175 1430h853.999v-210h-626l-24 -352c38 14.667 93.333 22 166 22c360 0 540 -146.667 540 -440c0 -306.667 -186.667 -460 -560 -460c-133.333 0 -266.666 20 -399.999 60v220c133.333 -46.667 270 -70 410 -70c190 0 285 83.333 285 250
c0 153.333 -91.667 230 -275 230c-150 0 -290 -16.667 -420 -50z" />
    <glyph glyph-name="six" unicode="6" horiz-adv-x="1250" 
d="M100 550c0 370.667 229.333 678.333 688 923l126 -207c-234.667 -107.333 -396 -237 -484 -389c80.667 28.667 162.667 43 246 43c349.333 0 524 -146.667 524 -440c0 -326.667 -187.667 -490 -563 -490c-358 0 -537 186.667 -537 560zM646 199.999
c195.333 0 293 93.333 293 280c0 153.333 -90.667 230 -272 230c-102.667 0 -200.667 -16 -294 -48c-12 -26.667 -18 -62 -18 -106c0 -237.333 97 -356 291 -356z" />
    <glyph glyph-name="seven" unicode="7" horiz-adv-x="1170" 
d="M100 1430h1020v-210l-642 -1220h-291l652 1200h-739v230z" />
    <glyph glyph-name="eight" unicode="8" horiz-adv-x="1280" 
d="M80 424c0 148.667 70.667 259 212 331c-114.667 63.333 -172 171 -172 323c0 244 173.333 366 520 366s520 -122 520 -366c0 -152 -59 -259.667 -177 -323c144.667 -72 217 -182.333 217 -331c0 -289.333 -183.333 -434 -550 -434c-380 0 -570 144.667 -570 434z
M895 1048c0 108 -84.333 162 -253 162c-171.333 0 -257 -54 -257 -162c0 -125.333 86.667 -188 260 -188c166.667 0 250 62.667 250 188zM935 418c0 141.333 -97.667 212 -293 212c-198 0 -297 -70.667 -297 -212c0 -132 103.333 -198 310 -198c186.667 0 280 66 280 198z
" />
    <glyph glyph-name="nine" unicode="9" horiz-adv-x="1265" 
d="M1200 883c0 -370.667 -229.333 -678.333 -688 -923l-126 207c228 107.333 389.333 240.333 484 399c-80.667 -35.333 -162.667 -53 -246 -53c-349.333 0 -524 150 -524 450c0 320 187.667 480 563 480c358 0 537 -186.667 537 -560zM654 1233
c-195.333 0 -293 -90 -293 -270c0 -160 90.667 -240 272 -240c102.667 0 200.667 16 294 48c12 26.667 18 62 18 106c0 237.333 -97 356 -291 356z" />
    <glyph glyph-name="colon" unicode=":" horiz-adv-x="490" 
d="M390 1050v-245h-265v245h265zM390 245v-245h-265v245h265z" />
    <glyph glyph-name="semicolon" unicode=";" horiz-adv-x="615" 
d="M515 1050v-245h-265v245h265zM515 185l-150 -435h-265l150 435h265z" />
    <glyph glyph-name="less" unicode="&#x3c;" horiz-adv-x="1100" 
d="M100 430v190l900 380v-250l-573 -229l573 -221v-250z" />
    <glyph glyph-name="equal" unicode="=" horiz-adv-x="950" 
d="M850 450v-210h-750v210h750zM850 810v-210h-750v210h750z" />
    <glyph glyph-name="greater" unicode="&#x3e;" horiz-adv-x="1100" 
d="M100 50v250l573 221l-573 229v250l900 -380v-190z" />
    <glyph glyph-name="question" unicode="?" horiz-adv-x="1115" 
d="M515 245v-245h-265v245h265zM100 1380c140 33.333 273.333 50 400 50c343.333 0 515 -130 515 -390c0 -293.333 -166.667 -440 -500 -440v-230h-265v440h265c170 0 255 76.667 255 230c0 120 -90 180 -270 180c-126.667 0 -260 -16.667 -400 -50v210z" />
    <glyph glyph-name="at" unicode="@" horiz-adv-x="2130" 
d="M1540 118c0 -38.667 26.668 -58 80.001 -58c96.667 0 145 160 145 480c0 460 -228.667 690 -686 690c-476 0 -714 -230 -714 -690c0 -473.333 215 -710 645 -710v-210c-606.667 0 -910 306.667 -910 920c0 600 321.333 900 964 900c644 0 966 -300 966 -900
c0 -460 -149 -690 -447 -690c-187.333 0 -284.333 81.333 -291 244c-91.333 -62.667 -192 -94 -302 -94c-256.667 0 -385 109 -385 327c0 208.667 152 313 456 313c71.333 0 142.666 -6.66699 213.999 -20v79c0 94 -67.667 141 -203 141c-114.667 0 -242 -16.667 -382 -50
v210c140 33.333 267.333 50 382 50c312 0 468 -115.333 468 -346v-586zM1061 460c-127.333 0 -191 -43.333 -191 -130c0 -93.333 53.333 -140 160 -140c88 0 169.667 27.333 245 82v168c-66.667 13.333 -138 20 -214 20z" />
    <glyph glyph-name="A" unicode="A" horiz-adv-x="1562" 
d="M297 0h-272l607 1430h285l620 -1430h-285l-163 390h-475l91 230h288l-225 537z" />
    <glyph glyph-name="B" unicode="B" horiz-adv-x="1321" 
d="M150 0v1430h670c272 0 408 -111 408 -333c0 -162.667 -88.667 -279 -266 -349c189.333 -35.333 284 -143.666 284 -324.999c0 -282 -149 -423 -447 -423h-649zM788 229.999c117.333 0 176 60 176 180c0 148.667 -87.667 223 -263 223h-80v171
c220 36.667 330 128.667 330 276c0 80 -49.333 120 -148 120h-388v-970h373z" />
    <glyph glyph-name="C" unicode="C" horiz-adv-x="1390" 
d="M1290 60c-123.333 -46.667 -263.333 -70 -420 -70c-513.333 0 -770 248.333 -770 745c0 470 256.667 705 770 705c156.667 0 296.667 -23.333 420 -70v-240c-123.333 53.333 -256.666 80 -399.999 80c-343.333 0 -515 -158.333 -515 -475
c0 -343.333 171.667 -515 515 -515c143.333 0 276.666 26.667 399.999 80v-240z" />
    <glyph glyph-name="D" unicode="D" horiz-adv-x="1495" 
d="M710 230c296.667 0 445 174.667 445 524c0 297.333 -148.333 446 -445 446h-295v-970h295zM150 0v1430h560c473.333 0 710 -225.333 710 -676c0 -502.667 -236.667 -754 -710 -754h-560z" />
    <glyph glyph-name="E" unicode="E" horiz-adv-x="1238" 
d="M1129 1430v-228h-716v-360h682v-237h-685v-375h733v-230h-993v1430h979z" />
    <glyph glyph-name="F" unicode="F" horiz-adv-x="1164" 
d="M1089 1430v-228h-676v-360h642v-237h-645v-605h-260v1430h939z" />
    <glyph glyph-name="G" unicode="G" horiz-adv-x="1390" 
d="M1290 66c-115.333 -50.667 -259.668 -76 -433.001 -76c-504.667 0 -757 248.333 -757 745c0 470 256.667 705 770 705c156.667 0 296.667 -23.333 420 -70v-240c-123.333 53.333 -256.666 80 -399.999 80c-343.333 0 -515 -158.333 -515 -475
c0 -343.333 162 -515 486 -515c48 0 102.667 8 164 24v416h265v-594z" />
    <glyph glyph-name="H" unicode="H" horiz-adv-x="1535" 
d="M150 0v1430h265v-590h705v590h265v-1430h-265v610h-705v-610h-265z" />
    <glyph glyph-name="I" unicode="I" 
d="M415 1430v-1430h-265v1430h265z" />
    <glyph glyph-name="J" unicode="J" horiz-adv-x="740" 
d="M590 1430v-1018c0 -274.667 -188.333 -412 -565 -412v230c200 0 300 60.667 300 182v1018h265z" />
    <glyph glyph-name="K" unicode="K" horiz-adv-x="1435" 
d="M415 1430v-1430h-265v1430h265zM1421 1430l-610 -667l674 -763h-367l-553 668v172l532 590h324z" />
    <glyph glyph-name="L" unicode="L" horiz-adv-x="1083" 
d="M415 1430v-1200h568v-230h-833v1430h265z" />
    <glyph glyph-name="M" unicode="M" horiz-adv-x="1800" 
d="M150 0v1430h275l485 -1085l475 1085h265v-1430h-245v996l-388 -996h-226l-396 996v-996h-245z" />
    <glyph glyph-name="N" unicode="N" horiz-adv-x="1575" 
d="M150 0v1430h265l755 -1042v1042h255v-1430h-265l-755 1064v-1064h-255z" />
    <glyph glyph-name="O" unicode="O" horiz-adv-x="1625" 
d="M818 220c288 0 432 166.333 432 499c0 327.333 -144 491 -432 491c-295.333 0 -443 -163.667 -443 -491c0 -332.667 147.667 -499 443 -499zM100 713c0 484.667 239.332 727 717.999 727c471.333 0 707 -242.333 707 -727c0 -482 -235.667 -723 -707 -723
c-457.333 0 -696.666 241 -717.999 723z" />
    <glyph glyph-name="P" unicode="P" horiz-adv-x="1253" 
d="M150 0v1430h640c292 0 438 -134.333 438 -403c0 -291.333 -199.667 -467.666 -599 -528.999l-38 236c240 43.333 360 138.333 360 285c0 118.667 -59.333 178 -178 178h-358v-1197h-265z" />
    <glyph glyph-name="Q" unicode="Q" horiz-adv-x="1625" 
d="M818 220c288 0 432 166.333 432 499c0 327.333 -144 491 -432 491c-295.333 0 -443 -163.667 -443 -491c0 -332.667 147.667 -499 443 -499zM100 713c0 484.667 239.333 727 718 727c471.333 0 707 -242.333 707 -727c0 -398.667 -148.333 -634 -445 -706l232 -270
l-209 -159l-325 412c-430.667 0 -656.667 241 -678 723z" />
    <glyph glyph-name="R" unicode="R" horiz-adv-x="1325" 
d="M150 2v1428h650c292 0 438 -127.667 438 -383c0 -172.667 -113.667 -315.667 -341 -429l453 -618h-334l-435 623v121c253.333 43.333 380 141.666 380 294.999c0 105.333 -59.333 158 -178 158h-363v-1195h-270z" />
    <glyph glyph-name="S" unicode="S" horiz-adv-x="1280" 
d="M125 60v240c143.333 -53.333 305.333 -80 486 -80c219.333 0 329 73.333 329 220c0 106.667 -67.333 160 -202 160h-224c-292.667 0 -439 133.333 -439 400c0 293.333 208.333 440 625 440c160 0 311.667 -23.333 455 -70v-240c-143.333 53.333 -295 80 -455 80
c-240 0 -360 -70 -360 -210c0 -106.667 58 -160 174 -160h224c311.333 0 467 -133.333 467 -400c0 -300 -198 -450 -594 -450c-180.667 0 -342.667 23.333 -486 70z" />
    <glyph glyph-name="T" unicode="T" horiz-adv-x="1085" 
d="M1085 1430v-230h-410v-1200h-265v1200h-410v230h1085z" />
    <glyph glyph-name="U" unicode="U" horiz-adv-x="1530" 
d="M150 562v868h265v-868c0 -228 116.667 -342 350 -342s350 114 350 342v868h265v-868c0 -381.333 -205 -572 -615 -572s-615 190.667 -615 572z" />
    <glyph glyph-name="V" unicode="V" horiz-adv-x="1512" 
d="M1512 1430l-627 -1430h-285l-600 1430h315l443 -1095l442 1095h312z" />
    <glyph glyph-name="W" unicode="W" horiz-adv-x="1890" 
d="M35 1430h269l153 -1027l372 1027h255l348 -987l162 987h261l-269 -1430h-252l-393 1122l-422 -1122h-249z" />
    <glyph glyph-name="X" unicode="X" horiz-adv-x="1502" 
d="M588 715l-563 715h335l395 -522l395 522h335l-562 -715l562 -715h-335l-395 522l-395 -522h-335z" />
    <glyph glyph-name="Y" unicode="Y" horiz-adv-x="1300" 
d="M25 1430h285l402 -689l378 689h275l-526 -930v-500h-265v500z" />
    <glyph glyph-name="Z" unicode="Z" horiz-adv-x="1250" 
d="M1185 1430v-230l-761 -970h761v-230h-1060v230l794 970h-774v230h1040z" />
    <glyph glyph-name="bracketleft" unicode="[" horiz-adv-x="680" 
d="M630 1430v-210h-265v-1390h265v-210h-530v1810h530z" />
    <glyph glyph-name="backslash" unicode="\" horiz-adv-x="1060" 
d="M25 1430h285l725 -1430h-285z" />
    <glyph glyph-name="bracketright" unicode="]" horiz-adv-x="680" 
d="M580 1430v-1810h-530v210h265v1390h-265v210h530z" />
    <glyph glyph-name="asciicircum" unicode="^" horiz-adv-x="1050" 
d="M450 1430h150l400 -730h-230l-249 473l-241 -473h-230z" />
    <glyph glyph-name="underscore" unicode="_" horiz-adv-x="1050" 
d="M1025 0v-210h-1000v210h1000z" />
    <glyph glyph-name="grave" unicode="`" horiz-adv-x="663" 
d="M563 1171h-224l-239 259h319z" />
    <glyph glyph-name="a" unicode="a" horiz-adv-x="1135" 
d="M75 327c0 208.667 152.001 313 456.001 313c71.333 0 142.666 -6.66699 213.999 -20v79c0 94 -67.667 141 -203 141c-114.667 0 -242 -16.667 -382 -50v210c140 33.333 267.333 50 382 50c312 0 468 -115.333 468 -346v-704h-154l-94 94
c-91.333 -62.667 -192 -94 -302 -94c-256.667 0 -385 109 -385 327zM531.001 460c-127.333 0 -191 -43.333 -191 -130c0 -93.333 53.333 -140 160 -140c88 0 169.667 27.333 245 82v168c-66.667 13.333 -138 20 -214 20z" />
    <glyph glyph-name="b" unicode="b" horiz-adv-x="1178" 
d="M390 243c60.667 -19.333 130.999 -29 210.999 -29c160 0 240 113 240 339c0 184.667 -69 277 -207 277c-89.333 0 -170.666 -18 -243.999 -54v-533zM124.999 1430h265.001v-460c79.333 53.333 167.666 80 264.999 80c298.667 0 448 -168 448 -504
c0 -364 -171 -546 -513 -546c-144 -0 -299 14.333 -465 43v1387z" />
    <glyph glyph-name="c" unicode="c" horiz-adv-x="950" 
d="M900 30c-86.667 -20 -176.667 -30 -270 -30c-373.333 0 -560 181.667 -560 545c0 336.667 186.667 505 560 505c93.333 0 183.333 -10 270 -30v-210c-86.667 20 -170 30 -250 30c-210 0 -315 -98.333 -315 -295c0 -223.333 105 -335 315 -335c80 0 163.333 10 250 30
v-210z" />
    <glyph glyph-name="d" unicode="d" horiz-adv-x="1180" 
d="M790 776c-54.667 36 -123.332 54 -205.999 54c-164.667 0 -247 -92.333 -247 -277c0 -219.333 85.667 -329 257 -329c69.333 0 134.666 9.66699 195.999 29v523zM1055 63c-160.667 -42 -317.667 -63 -471 -63c-339.333 0 -509 182 -509 546c0 336 166 504 498 504
c70.667 0 143 -16.667 217 -50v430h265v-1367z" />
    <glyph glyph-name="e" unicode="e" horiz-adv-x="1120" 
d="M568 1050c318.667 0 478.001 -162.668 478.001 -488.001c0 -43.333 -3 -86.666 -9 -129.999h-697c0 -148 108.667 -222 326 -222c106 0 212 10 318 30v-210c-92.667 -20 -205.334 -30 -338.001 -30c-380.667 0 -571 179 -571 537c0 342 164.333 513 493 513z
M340.001 615.999h448v8c0 145.333 -73.333 218 -220 218c-140 0 -216 -75.333 -228 -226z" />
    <glyph glyph-name="f" unicode="f" horiz-adv-x="671" 
d="M125 0v1050c0 288 157.333 432 472 432c86 0 164 -13.333 234 -40v-210c-66 26.667 -137.667 40 -215 40c-150.667 0 -226 -74 -226 -222h315v-210h-315v-840h-265z" />
    <glyph glyph-name="g" unicode="g" horiz-adv-x="1187" 
d="M797 812c-43.333 16 -105 24 -185 24c-183.333 0 -275 -101 -275 -303c0 -195.333 79 -293 237 -293c76 0 150.333 18 223 54v518zM1062 80c0 -306.667 -184.332 -460 -552.999 -460c-129.333 0 -244 16.667 -344 50v210c102 -33.333 217.333 -50 346 -50
c190.667 0 286 80 286 240c-78.667 -33.333 -163.334 -50 -254.001 -50c-312 0 -468 170.333 -468 511c0 346 181.667 519 545 519c122 0 269.333 -14.333 442 -43v-927z" />
    <glyph glyph-name="h" unicode="h" horiz-adv-x="1205" 
d="M125 0l-0.000976562 1430h265v-514c82.667 89.333 188.334 134 317.001 134c248.667 0 373 -129.333 373 -388v-662h-265v662c0 116 -57.667 174 -173 174c-86 0 -170 -34.333 -252 -103v-733h-265z" />
    <glyph glyph-name="i" unicode="i" horiz-adv-x="515" 
d="M390 1430v-210h-265v210h265zM390 1050v-1050h-265v1050h265z" />
    <glyph glyph-name="j" unicode="j" horiz-adv-x="515" 
d="M390 1430v-210h-265v210h265zM390 1050v-970c0 -212 -60.667 -384.667 -182 -518l-208 145c83.333 90 125 214.333 125 373v970h265z" />
    <glyph glyph-name="k" unicode="k" horiz-adv-x="1206" 
d="M125 0l0.000976562 1430h265v-462c108.667 54.667 223 82 343 82c268 0 402 -101 402 -303c0 -146.667 -93.333 -261.334 -280 -344.001l326 -403h-324l-274 375v123c191.333 40.667 287 107.334 287 200.001c0 94.667 -63.333 142 -190 142
c-88.667 0 -185.334 -28 -290.001 -84v-756h-265z" />
    <glyph glyph-name="l" unicode="l" horiz-adv-x="515" 
d="M390 1430v-1430h-265v1430h265z" />
    <glyph glyph-name="m" unicode="m" horiz-adv-x="1795" 
d="M125 0l0.00195312 1050h205l31 -152c94 101.333 207 152 339 152s222.333 -48 271 -144c107.333 96 219.666 144 336.999 144c241.333 0 362 -133 362 -399v-651h-265v661c0 116.667 -52.667 175 -158 175c-78.667 0 -154.334 -35.333 -227.001 -106v-730h-265v658
c0 118.667 -48.667 178 -146 178c-77.333 0 -150.333 -35.333 -219 -106v-730h-265z" />
    <glyph glyph-name="n" unicode="n" horiz-adv-x="1205" 
d="M125 0l-0.000976562 1050h205l33 -154c100.667 102.667 215.334 154 344.001 154c248.667 0 373 -129.333 373 -388v-662h-265v662c0 116 -57.667 174 -173 174c-86 0 -170 -34.333 -252 -103v-733h-265z" />
    <glyph glyph-name="o" unicode="o" horiz-adv-x="1190" 
d="M595 200c170 0 255 109.667 255 329c0 214 -85 321 -255 321s-255 -107 -255 -321c0 -219.333 85 -329 255 -329zM75 525c0 352 173.332 528 519.999 528s520 -176 520 -528c0 -351.333 -173.333 -527 -520 -527c-345.333 0 -518.666 175.667 -519.999 527z" />
    <glyph glyph-name="p" unicode="p" horiz-adv-x="1177" 
d="M390 274c66 -36 137 -54 213 -54c158 0 237 111 237 333c0 188.667 -87.333 283 -262 283c-75.333 0 -138 -4.66699 -188 -14v-548zM125 1007c139.333 28.667 286.667 43 442 43c356.667 0 535 -166.333 535 -499c0 -367.333 -166 -551 -498 -551
c-70.667 0 -142 16.667 -214 50v-430h-265v1387z" />
    <glyph glyph-name="q" unicode="q" horiz-adv-x="1187" 
d="M797 812c-63.333 16 -121.667 24 -175 24c-190 0 -285 -101 -285 -303c0 -208.667 82.333 -313 247 -313c82.667 0 153.667 18 213 54v538zM1062 -380h-264.999v430c-72 -33.333 -153.333 -50 -244 -50c-318.667 0 -478 177 -478 531c0 346 181.667 519 545 519
c135.333 0 282.666 -14.333 441.999 -43v-1387z" />
    <glyph glyph-name="r" unicode="r" horiz-adv-x="680" 
d="M125 0v1050h205l33 -134c92 89.333 189.333 134 292 134v-214c-98.667 0 -187 -41 -265 -123v-713h-265z" />
    <glyph glyph-name="s" unicode="s" horiz-adv-x="1025" 
d="M125 50v220c116.667 -46.667 251.334 -70 404.001 -70c114 0 171 36.667 171 110c0 70 -38.333 105 -115 105h-190c-213.333 0 -320 105 -320 315c0 220 155.667 330 467 330c132 0 256.333 -20 373 -60v-220c-116.667 46.667 -243.334 70 -380.001 70
c-143.333 0 -215 -36.667 -215 -110c0 -70 41.667 -105 125 -105h170c233.333 0 350 -105 350 -315c0 -220 -148.667 -330 -446 -330c-146 0 -277.333 20 -394 60z" />
    <glyph glyph-name="t" unicode="t" horiz-adv-x="665" 
d="M110 1220h196l40 -170h264v-210h-235v-483c0 -98 42.333 -147 127 -147h108v-210h-236c-176 -0 -264 94.333 -264 283v937z" />
    <glyph glyph-name="u" unicode="u" horiz-adv-x="1195" 
d="M1070 1050v-1050h-207l-32 134c-120.667 -89.333 -248.667 -134 -384 -134c-214.667 0 -322 127 -322 381v669h265v-662c0 -116 50.667 -174 152 -174c86 0 173.667 34.333 263 103v733h265z" />
    <glyph glyph-name="v" unicode="v" horiz-adv-x="1080" 
d="M0 1050h280l255 -734l265 734h280l-427 -1050h-252z" />
    <glyph glyph-name="w" unicode="w" horiz-adv-x="1599" 
d="M35 1050h267l136 -731l243 731h227l262 -731l118 731h276l-274 -1050h-249l-247 745l-250 -745h-253z" />
    <glyph glyph-name="x" unicode="x" horiz-adv-x="1080" 
d="M393 525l-393 525h295l245 -328l245 328h295l-392 -525l392 -525h-295l-245 328l-245 -328h-295z" />
    <glyph glyph-name="y" unicode="y" horiz-adv-x="1081" 
d="M0 1050l281.001 0.000976562l265 -756l259 756h276l-436 -1081c-77.333 -190.667 -201 -326.334 -371 -407.001l-128 181c117.333 51.333 202.666 135 255.999 251z" />
    <glyph glyph-name="z" unicode="z" horiz-adv-x="990" 
d="M120 1050h810v-210l-537 -640h517v-200h-810v200l545 640h-525v210z" />
    <glyph glyph-name="braceleft" unicode="{" horiz-adv-x="755" 
d="M705 1430c-86.667 -117.333 -130 -276.666 -130 -477.999c0 -234.667 -83.333 -377 -250 -427c166.667 -50 250 -192.333 250 -427c0 -201.333 43.333 -360.666 130 -477.999h-265c-86.667 117.333 -130 276.666 -130 477.999c0 208 -70 312 -210 312v230
c140 0 210 104 210 312c0 201.333 43.333 360.666 130 477.999h265z" />
    <glyph glyph-name="bar" unicode="|" 
d="M415 1430v-1810h-265v1810h265z" />
    <glyph glyph-name="braceright" unicode="}" horiz-adv-x="755" 
d="M315 1430c86.667 -117.333 130 -276.666 130 -477.999c0 -208 70 -312 210 -312v-230c-140 0 -210 -104 -210 -312c0 -201.333 -43.333 -360.666 -130 -477.999h-265c86.667 117.333 130 276.666 130 477.999c0 234.667 56.667 377 170 427
c-113.333 50 -170 192.333 -170 427c0 201.333 -43.333 360.666 -130 477.999h265z" />
    <glyph glyph-name="asciitilde" unicode="~" horiz-adv-x="950" 
d="M100 610c38.667 40.667 92.667 61 162 61c57.333 0 125 -13.667 203 -41c78 -26.667 147 -40 207 -40c72.667 0 132 20 178 60v-210c-38.667 -40 -92.667 -60 -162 -60c-57.333 0 -125 13.333 -203 40c-78 27.333 -147 41 -207 41c-72.667 0 -132 -20.333 -178 -61v210z
" />
    <glyph glyph-name="nonbreakingspace" unicode="&#xa0;" horiz-adv-x="498" 
 />
    <glyph glyph-name="exclamdown" unicode="&#xa1;" 
d="M150 -380v1060h265v-1060h-265zM150 805v245h265v-245h-265z" />
    <glyph glyph-name="cent" unicode="&#xa2;" horiz-adv-x="980" 
d="M490 1230v200h255v-193c66 -4.66699 127.667 -13.667 185 -27v-210c-86.667 20 -176.667 30 -270 30c-223.333 0 -335 -98.333 -335 -295c0 -223.333 111.667 -335 335 -335c93.333 0 183.333 10 270 30v-210c-57.333 -13.333 -119 -22.333 -185 -27v-193h-255v201
c-286.667 43.333 -430 221.333 -430 534c0 290 143.333 455 430 495z" />
    <glyph glyph-name="sterling" unicode="&#xa3;" horiz-adv-x="1217" 
d="M100 182c124 50 185.999 126.999 185.999 230.999c0 78 -25.667 175 -77 291s-77 223.667 -77 323c0 275.333 186 413 558 413c180 0 322.333 -33.333 427 -100v-240c-105.333 86.667 -250 130 -434 130c-182.667 0 -274 -67 -274 -201c0 -96 11.667 -162.333 35 -199
h386v-210h-314c26 -69.333 39 -137.333 39 -204c0 -91.333 -21.333 -150.666 -64 -177.999c14.667 2.66699 31 4 49 4c56 0 127 -14.333 213 -43c32.667 -11.333 66.334 -17 101.001 -17c83.333 0 171 32.667 263 98v-230c-80 -56 -174.667 -84 -284 -84
c-62.667 0 -129.667 9.33301 -201 28c-86 21.333 -168 32 -246 32c-102 0 -197.333 -18.667 -286 -56v212z" />
    <glyph glyph-name="currency" unicode="&#xa4;" horiz-adv-x="1139" 
d="M216 756l-116 120l109 112l125 -121c72 45.333 152.667 68 242 68c82.667 0 157.667 -22.667 225 -68l128 121l110 -112l-118 -120c38.667 -55.333 58 -132.333 58 -231c0 -92.667 -22.667 -170 -68 -232l128 -120l-110 -112l-128 123c-72 -40 -149.667 -60 -233 -60
c-82.667 0 -163.667 20 -243 60l-116 -123l-109 112l116 120c-38 68.667 -57 146 -57 232c0 91.333 19 168.333 57 231zM322 529c0 -164 81.667 -246 245 -246s245 82 245 246c0 162.667 -81.667 244 -245 244s-245 -81.333 -245 -244z" />
    <glyph glyph-name="yen" unicode="&#xa5;" horiz-adv-x="1250" 
d="M50 1430h275l292 -510l298 510h285l-413 -660h283v-210h-326v-111h326v-210h-326v-239h-265v239h-319v210h319v111h-319v210h277z" />
    <glyph glyph-name="brokenbar" unicode="&#xa6;" 
d="M415 350v-730h-265v730h265zM414 1430v-730h-264v730h264z" />
    <glyph glyph-name="section" unicode="&#xa7;" horiz-adv-x="1090" 
d="M150 40v220c116.667 -40 238 -60 364 -60c140.667 0 211 30 211 90c0 66.667 -51.667 100 -155 100h-70c-266.667 0 -400 103.333 -400 310c0 105.333 43.667 177.333 131 216c-87.333 40 -131 114.667 -131 224c0 200 155.667 300 467 300
c132 0 256.333 -16.667 373 -50v-220c-116.667 40 -241 60 -373 60c-148 0 -222 -30 -222 -90c0 -66.667 51.667 -100 155 -100h70c280 0 420 -102.333 420 -307c0 -100 -37 -174 -111 -222c74 -36 111 -109.667 111 -221c0 -200 -158.667 -300 -476 -300
c-126 0 -247.333 16.667 -364 50zM500 598h70c103.333 0 155 35.333 155 106c0 84.667 -51.667 127 -155 127h-70c-103.333 0 -155 -38 -155 -114c0 -79.333 51.667 -119 155 -119z" />
    <glyph glyph-name="dieresis" unicode="&#xa8;" horiz-adv-x="755" 
d="M655 1430v-190h-215v190h215zM315 1430v-190h-215v190h215z" />
    <glyph glyph-name="copyright" unicode="&#xa9;" horiz-adv-x="1785" 
d="M878 80c434.667 0 652 213 652 639c0 420.667 -210.667 631 -632 631c-428.667 0 -643 -210.333 -643 -631c0 -426 207.667 -639 623 -639zM150 723c0 478 249.333 717 748 717c491.333 0 737 -239 737 -717c0 -488.667 -245.667 -733 -737 -733
c-498.667 0 -748 244.333 -748 733zM1183 336c-83.333 -34 -180 -51 -290 -51c-277.333 0 -416 147.667 -416 443c0 277.333 138.667 416 416 416c110 0 206.667 -17 290 -51v-98c-83.333 38.667 -175.333 58 -276 58c-216.667 0 -325 -108.333 -325 -325
c0 -234.667 108.333 -352 325 -352c100.667 0 192.667 19.333 276 58v-98z" />
    <glyph glyph-name="ordfeminine" unicode="&#xaa;" horiz-adv-x="642" 
d="M100 1069c0 107.333 71 161 213 161c52.667 0 95 -3.33301 127 -10v50c0 44 -44 66 -132 66c-53.333 0 -108.666 -8.66699 -165.999 -26v96c57.333 16 112.666 24 165.999 24c156 0 234 -56 234 -168v-356h-56l-38 36c-38.667 -24 -88.667 -36 -150 -36
c-132 0 -198 54.333 -198 163zM313 1136c-74 0 -111 -22 -111 -66c0 -46.667 32 -70 96 -70s111.333 14 142 42v84c-30 6.66699 -72.333 10 -127 10z" />
    <glyph glyph-name="guillemotleft" unicode="&#xab;" horiz-adv-x="1079" 
d="M499 525l258 375h272l-258 -375l258 -375h-272zM50 525l258 375h272l-258 -375l258 -375h-272z" />
    <glyph glyph-name="logicalnot" unicode="&#xac;" horiz-adv-x="1085" 
d="M100 1050h885v-400h-210v190h-675v210z" />
    <glyph glyph-name="minus" unicode="&#xad;" horiz-adv-x="950" 
d="M850 630v-210h-750v210h750z" />
    <glyph glyph-name="minus" unicode="&#x2212;" horiz-adv-x="950" 
d="M850 630v-210h-750v210h750z" />
    <glyph glyph-name="registered" unicode="&#xae;" horiz-adv-x="1163" 
d="M404 756v535.999h229c102 0 153 -42.667 153 -128c0 -70 -50 -121.667 -150 -155l184 -253h-91l-171 241v45c102.667 16.667 154 56.334 154 119.001c0 49.333 -28.667 74 -86 74h-153v-479h-69zM580 663.999c240 0 360 120.333 360 361c0 246 -120 369 -360 369
c-238 0 -357 -123 -357 -369c0 -240.667 119 -361 357 -361zM150 1023c0 284.667 143.333 427 430 427c288.667 0 433 -142.333 433 -427c0 -276.667 -144.333 -415 -433 -415c-278.667 0 -422 138.333 -430 415z" />
    <glyph glyph-name="macron" unicode="&#xaf;" horiz-adv-x="700" 
d="M600 1430v-210h-500v210h500z" />
    <glyph glyph-name="macron" unicode="&#x2c9;" horiz-adv-x="700" 
d="M600 1430v-210h-500v210h500z" />
    <glyph glyph-name="degree" unicode="&#xb0;" horiz-adv-x="872" 
d="M438 965c96 0 144 49 144 147c0 96 -48 144 -144 144c-98.667 0 -148 -48 -148 -144c0 -98 49.333 -147 148 -147zM100 1110c0 213.333 112.667 320 338 320c222.667 0 334 -106.667 334 -320c0 -212.667 -111.333 -319 -334 -319c-225.333 0 -338 106.333 -338 319z" />
    <glyph glyph-name="plusminus" unicode="&#xb1;" horiz-adv-x="950" 
d="M370 780v270h210v-270h270v-210h-270v-270h-210v270h-270v210h270zM850 210v-210h-750v210h750z" />
    <glyph glyph-name="twosuperior" unicode="&#xb2;" horiz-adv-x="590" 
d="M50 710v175c198 115.333 297 217 297 305c0 43.333 -30 65 -90 65s-122.333 -18.333 -187 -55v180c64.667 33.333 127 50 187 50c188.667 0 283 -80 283 -240c0 -103.333 -82.333 -205 -247 -305h247v-175h-490z" />
    <glyph glyph-name="threesuperior" unicode="&#xb3;" horiz-adv-x="578" 
d="M50 1400c66.667 20 133.334 30.001 200.001 30.001c185.333 0 278 -71.333 278 -214c0 -65.333 -31.333 -113 -94 -143c62.667 -28.667 94 -76.334 94 -143.001c0 -149.333 -92.667 -224 -278 -224c-66.667 0 -133.334 10 -200.001 30v180
c66.667 -24 133.334 -36 200.001 -36c57.333 0 86 16.667 86 50c0 44 -15.333 66 -46 66h-164v154h162c32 0 48 22 48 66c0 26.667 -28.667 40 -86 40c-66.667 0 -133.334 -12 -200.001 -36v180z" />
    <glyph glyph-name="acute" unicode="&#xb4;" horiz-adv-x="663" 
d="M244 1430h319l-239 -259h-224z" />
    <glyph glyph-name="mu" unicode="&#xb5;" horiz-adv-x="1235" 
d="M1110 1050l-0.000976562 -1050h-207l-32 134c-100.667 -89.333 -198.667 -134 -294 -134c-93.333 0 -155.666 20 -186.999 60v-440h-265v1430h265v-602c0 -156 64 -234 192 -234c106 0 193.667 44.333 263 133v703h265z" />
    <glyph glyph-name="mu" unicode="&#x3bc;" horiz-adv-x="1235" 
d="M1110 1050l-0.000976562 -1050h-207l-32 134c-100.667 -89.333 -198.667 -134 -294 -134c-93.333 0 -155.666 20 -186.999 60v-440h-265v1430h265v-602c0 -156 64 -234 192 -234c106 0 193.667 44.333 263 133v703h265z" />
    <glyph glyph-name="paragraph" unicode="&#xb6;" horiz-adv-x="953" 
d="M443 -434v972c-295.333 0 -443 149.333 -443 448c0 296 147.667 444 443 444h510v-90h-150v-1774h-100v1774h-160v-1774h-100z" />
    <glyph glyph-name="periodcentered" unicode="&#xb7;" horiz-adv-x="450" 
d="M100 525c0 83.333 41.667 125 125 125s125 -41.667 125 -125s-41.667 -125 -125 -125s-125 41.667 -125 125z" />
    <glyph glyph-name="periodcentered" unicode="&#x2219;" horiz-adv-x="450" 
d="M100 525c0 83.333 41.667 125 125 125s125 -41.667 125 -125s-41.667 -125 -125 -125s-125 41.667 -125 125z" />
    <glyph glyph-name="cedilla" unicode="&#xb8;" horiz-adv-x="687" 
d="M100 -244c72 -33.333 144 -50 216 -50s108 18.333 108 55c0 29.333 -27.667 44 -83 44h-183l131 270h165l-81 -152c142.667 0 214 -54 214 -162c0 -122 -90.333 -183 -271 -183c-72 0 -144 16.667 -216 50v128z" />
    <glyph glyph-name="onesuperior" unicode="&#xb9;" horiz-adv-x="328" 
d="M126 710v511h-76v95l268 110v-716h-192z" />
    <glyph glyph-name="ordmasculine" unicode="&#xba;" horiz-adv-x="700" 
d="M350 1000c98.667 0 148 56.667 148 170c0 110.667 -49.333 166 -148 166c-98 0 -147 -55.333 -147 -166c0 -113.333 49 -170 147 -170zM100 1168c0 174.667 83.332 262 249.999 262s250 -87.333 250 -262s-83.333 -262 -250 -262
c-165.333 0 -248.666 87.333 -249.999 262z" />
    <glyph glyph-name="guillemotright" unicode="&#xbb;" horiz-adv-x="1079" 
d="M322 150h-272l258 375l-258 375h272l258 -375zM771 150h-272l258 375l-258 375h272l258 -375z" />
    <glyph glyph-name="onequarter" unicode="&#xbc;" horiz-adv-x="1449" 
d="M345 0h-245l825 1430h245zM872 690c66.667 20 133.334 30.001 200.001 30.001c184.667 0 277 -71.333 277 -214c0 -65.333 -31.333 -113 -94 -143c62.667 -28.667 94 -76.334 94 -143.001c0 -149.333 -92.333 -224 -277 -224c-66.667 0 -133.334 10 -200.001 30v180
c66.667 -24 133.334 -36 200.001 -36c56 0 84 16.667 84 50c0 44 -15.333 66 -46 66h-164v154h163c31.333 0 47 22 47 66c0 26.667 -28 40 -84 40c-66.667 0 -133.334 -12 -200.001 -36v180zM176 710.001v511h-76v95l268 110v-716h-192z" />
    <glyph glyph-name="onehalf" unicode="&#xbd;" horiz-adv-x="1442" 
d="M345 0h-245l825 1430h245zM852 0v175c198.667 115.333 298 217 298 305c0 43.333 -30 65 -90 65s-122.667 -18.333 -188 -55v180c65.333 33.333 128 50 188 50c188 0 282 -80 282 -240c0 -103.333 -82.667 -205 -248 -305h248v-175h-490zM176 710v511h-76v95l268 110
v-716h-192z" />
    <glyph glyph-name="threequarters" unicode="&#xbe;" horiz-adv-x="1490" 
d="M436 0h-245l825 1430h245zM1316 0h-182v150h-352v174l218 390h192l-213 -390h155v224h182v-224l74 -38v-136h-74v-150zM100 1400c66.667 20 133.334 30.001 200.001 30.001c184.667 0 277 -71.333 277 -214c0 -65.333 -31.333 -113 -94 -143
c62.667 -28.667 94 -76.334 94 -143.001c0 -149.333 -92.333 -224 -277 -224c-66.667 0 -133.334 10 -200.001 30v180c66.667 -24 133.334 -36 200.001 -36c56 0 84 16.667 84 50c0 44 -15.333 66 -46 66h-164v154h163c31.333 0 47 22 47 66c0 26.667 -28 40 -84 40
c-66.667 0 -133.334 -12 -200.001 -36v180z" />
    <glyph glyph-name="questiondown" unicode="&#xbf;" horiz-adv-x="1115" 
d="M600 805v245h265v-245h-265zM1015 -330c-140 -33.333 -273.333 -50 -400 -50c-343.333 0 -515 130 -515 390c0 293.333 166.667 440 500 440v230h265v-440h-265c-170 0 -255 -76.667 -255 -230c0 -120 90 -180 270 -180c126.667 0 260 16.667 400 50v-210z" />
    <glyph glyph-name="Agrave" unicode="&#xc0;" horiz-adv-x="1562" 
d="M297 0h-272l607 1430h285l620 -1430h-285l-163 390h-475l91 230h288l-225 537zM935 1551h-224l-239 259h319z" />
    <glyph glyph-name="Aacute" unicode="&#xc1;" horiz-adv-x="1562" 
d="M297 0h-272l607 1430h285l620 -1430h-285l-163 390h-475l91 230h288l-225 537zM771 1810h319l-239 -259h-224z" />
    <glyph glyph-name="Acircumflex" unicode="&#xc2;" horiz-adv-x="1562" 
d="M297 0h-272l607 1430h285l620 -1430h-285l-163 390h-475l91 230h288l-225 537zM706 1810h150l175 -260h-180l-70 130l-70 -130h-180z" />
    <glyph glyph-name="Atilde" unicode="&#xc3;" horiz-adv-x="1562" 
d="M297 0h-272l607 1430h285l620 -1430h-285l-163 390h-475l91 230h288l-225 537zM531 1764c40 30.667 83.333 46 130 46c34.667 0 71.334 -8.66699 110.001 -26s76.667 -26 114 -26c50 0 98.667 15.333 146 46v-210c-40 -30.667 -83.333 -46 -130 -46
c-34.667 0 -71.334 8.66699 -110.001 26s-76.667 26 -114 26c-50 0 -98.667 -15.333 -146 -46v210z" />
    <glyph glyph-name="Adieresis" unicode="&#xc4;" horiz-adv-x="1562" 
d="M297 0h-272l607 1430h285l620 -1430h-285l-163 390h-475l91 230h288l-225 537zM1059 1810v-190h-215v190h215zM719 1810v-190h-215v190h215z" />
    <glyph glyph-name="Aring" unicode="&#xc5;" horiz-adv-x="1562" 
d="M776 1474c89.333 0 134 45.667 134 137c0 89.333 -44.667 134 -134 134c-92 0 -138 -44.667 -138 -134c0 -91.333 46 -137 138 -137zM297 0h-272l607 1430h4c-58.667 32.667 -88 92.334 -88 179.001c0 140 76 210 228 210c149.333 0 224 -70 224 -210
c0 -86.667 -28.667 -146.334 -86 -179.001h3l620 -1430h-285l-163 390h-475l91 230h288l-225 537z" />
    <glyph glyph-name="AE" unicode="&#xc6;" horiz-adv-x="1925" 
d="M812 600l68 -210h-419l-154 -390h-282l607 1430h1148v-230h-788l160 -360h593v-230h-494l166 -380h383v-230h-578l-460 1144l-220 -544h270z" />
    <glyph glyph-name="Ccedilla" unicode="&#xc7;" horiz-adv-x="1390" 
d="M720 -2c-413.333 46 -620 291.667 -620 737c0 470 256.667 705 770 705c156.667 0 296.667 -23.333 420 -70v-240c-123.333 53.333 -256.666 80 -399.999 80c-343.333 0 -515 -158.333 -515 -475c0 -343.333 171.667 -515 515 -515c143.333 0 276.666 26.667 399.999 80
v-240c-121.333 -46 -259 -69.333 -413 -70l-36 -67c142.667 0 214 -54 214 -162c0 -122 -90.333 -183 -271 -183c-72 0 -144 16.667 -216 50v128c72 -33.333 144 -50 216 -50s108 18.333 108 55c0 29.333 -27.667 44 -83 44h-183z" />
    <glyph glyph-name="Egrave" unicode="&#xc8;" horiz-adv-x="1238" 
d="M1129 1430v-228h-716v-360h682v-237h-685v-375h733v-230h-993v1430h979zM781 1551h-224l-239 259h319z" />
    <glyph glyph-name="Eacute" unicode="&#xc9;" horiz-adv-x="1238" 
d="M1129 1430v-228h-716v-360h682v-237h-685v-375h733v-230h-993v1430h979zM616 1810h319l-239 -259h-224z" />
    <glyph glyph-name="Ecircumflex" unicode="&#xca;" horiz-adv-x="1238" 
d="M1129 1430v-228h-716v-360h682v-237h-685v-375h733v-230h-993v1430h979zM552 1810h150l175 -260h-180l-70 130l-70 -130h-180z" />
    <glyph glyph-name="Edieresis" unicode="&#xcb;" horiz-adv-x="1238" 
d="M1129 1430v-228h-716v-360h682v-237h-685v-375h733v-230h-993v1430h979zM904 1810v-190h-215v190h215zM564 1810v-190h-215v190h215z" />
    <glyph glyph-name="Igrave" unicode="&#xcc;" 
d="M415 1430v-1430h-265v1430h265zM437 1551h-224l-239 259h319z" />
    <glyph glyph-name="Iacute" unicode="&#xcd;" 
d="M415 1430v-1430h-265v1430h265zM272 1810h319l-239 -259h-224z" />
    <glyph glyph-name="Icircumflex" unicode="&#xce;" 
d="M416 1430v-1430h-265v1430h265zM208 1810h150l175 -260h-180l-70 130l-70 -130h-180z" />
    <glyph glyph-name="Idieresis" unicode="&#xcf;" 
d="M415 1430v-1430h-265v1430h265zM560 1810v-190h-215v190h215zM220 1810v-190h-215v190h215z" />
    <glyph glyph-name="Eth" unicode="&#xd0;" horiz-adv-x="1455" 
d="M150 840v590h520c473.333 0 710 -225.333 710 -676c0 -502.667 -236.667 -754 -710 -754h-520v610h-200v230h200zM415 840h285v-230h-285v-380h255c296.667 0 445 174.667 445 524c0 297.333 -148.333 446 -445 446h-255v-360z" />
    <glyph glyph-name="Ntilde" unicode="&#xd1;" horiz-adv-x="1615" 
d="M150 0v1430h265l755 -1042v1042h255v-1430h-265l-755 1064v-1064h-255zM558 1764c40 30.667 83.333 46 130 46c34.667 0 71.334 -8.66699 110.001 -26s76.667 -26 114 -26c50 0 98.667 15.333 146 46v-210c-40 -30.667 -83.333 -46 -130 -46
c-34.667 0 -71.334 8.66699 -110.001 26s-76.667 26 -114 26c-50 0 -98.667 -15.333 -146 -46v210z" />
    <glyph glyph-name="Ograve" unicode="&#xd2;" horiz-adv-x="1625" 
d="M818 220c288 0 432 166.333 432 499c0 327.333 -144 491 -432 491c-295.333 0 -443 -163.667 -443 -491c0 -332.667 147.667 -499 443 -499zM100 713c0 484.667 239.332 727 717.999 727c471.333 0 707 -242.333 707 -727c0 -482 -235.667 -723 -707 -723
c-457.333 0 -696.666 241 -717.999 723zM966.999 1551h-224l-239 259h319z" />
    <glyph glyph-name="Oacute" unicode="&#xd3;" horiz-adv-x="1625" 
d="M818 220c288 0 432 166.333 432 499c0 327.333 -144 491 -432 491c-295.333 0 -443 -163.667 -443 -491c0 -332.667 147.667 -499 443 -499zM100 713c0 484.667 239.332 727 717.999 727c471.333 0 707 -242.333 707 -727c0 -482 -235.667 -723 -707 -723
c-457.333 0 -696.666 241 -717.999 723zM801.999 1810h319l-239 -259h-224z" />
    <glyph glyph-name="Ocircumflex" unicode="&#xd4;" horiz-adv-x="1625" 
d="M818 220c288 0 432 166.333 432 499c0 327.333 -144 491 -432 491c-295.333 0 -443 -163.667 -443 -491c0 -332.667 147.667 -499 443 -499zM100 713c0 484.667 239.332 727 717.999 727c471.333 0 707 -242.333 707 -727c0 -482 -235.667 -723 -707 -723
c-457.333 0 -696.666 241 -717.999 723zM737.999 1810h150l175 -260h-180l-70 130l-70 -130h-180z" />
    <glyph glyph-name="Otilde" unicode="&#xd5;" horiz-adv-x="1625" 
d="M818 220c288 0 432 166.333 432 499c0 327.333 -144 491 -432 491c-295.333 0 -443 -163.667 -443 -491c0 -332.667 147.667 -499 443 -499zM100 713c0 484.667 239.332 727 717.999 727c471.333 0 707 -242.333 707 -727c0 -482 -235.667 -723 -707 -723
c-457.333 0 -696.666 241 -717.999 723zM562.999 1764c40 30.667 83.333 46 130 46c34.667 0 71.334 -8.66699 110.001 -26s76.667 -26 114 -26c50 0 98.667 15.333 146 46v-210c-40 -30.667 -83.333 -46 -130 -46c-34.667 0 -71.334 8.66699 -110.001 26
s-76.667 26 -114 26c-50 0 -98.667 -15.333 -146 -46v210z" />
    <glyph glyph-name="Odieresis" unicode="&#xd6;" horiz-adv-x="1625" 
d="M818 220c288 0 432 166.333 432 499c0 327.333 -144 491 -432 491c-295.333 0 -443 -163.667 -443 -491c0 -332.667 147.667 -499 443 -499zM100 713c0 484.667 239.332 727 717.999 727c471.333 0 707 -242.333 707 -727c0 -482 -235.667 -723 -707 -723
c-457.333 0 -696.666 241 -717.999 723zM1090 1810v-190h-215v190h215zM749.999 1810v-190h-215v190h215z" />
    <glyph glyph-name="multiply" unicode="&#xd7;" horiz-adv-x="879" 
d="M291 525l-191 191l148 148l191 -191l191 191l148 -148l-191 -191l191 -191l-148 -148l-191 191l-191 -191l-148 148z" />
    <glyph glyph-name="Oslash" unicode="&#xd8;" horiz-adv-x="1625" 
d="M595 264c61.333 -29.333 135.667 -44 223 -44c288 0 432 166.333 432 499c0 132 -23.333 237.333 -70 316zM444.001 404l581 768c-57.333 25.333 -126.333 38 -207 38c-295.333 0 -443 -163.667 -443 -491c0 -130.667 23 -235.667 69 -315zM444.001 65l-48.999 -65h-257
l142 187c-110 120.667 -170 296 -180 526c0 484.667 239.333 727 718 727c141.333 0 261.666 -22 360.999 -66l42 56h258l-130 -172c117.333 -121.333 176 -303 176 -545c0 -482 -235.667 -723 -707 -723c-147.333 0 -272 25 -374 75z" />
    <glyph glyph-name="Ugrave" unicode="&#xd9;" horiz-adv-x="1530" 
d="M150 562v868h265v-868c0 -228 116.667 -342 350 -342s350 114 350 342v868h265v-868c0 -381.333 -205 -572 -615 -572s-615 190.667 -615 572zM919 1551h-224l-239 259h319z" />
    <glyph glyph-name="Uacute" unicode="&#xda;" horiz-adv-x="1530" 
d="M150 562v868h265v-868c0 -228 116.667 -342 350 -342s350 114 350 342v868h265v-868c0 -381.333 -205 -572 -615 -572s-615 190.667 -615 572zM755 1810h319l-239 -259h-224z" />
    <glyph glyph-name="Ucircumflex" unicode="&#xdb;" horiz-adv-x="1530" 
d="M150 562v868h265v-868c0 -228 116.667 -342 350 -342s350 114 350 342v868h265v-868c0 -381.333 -205 -572 -615 -572s-615 190.667 -615 572zM690 1810h150l175 -260h-180l-70 130l-70 -130h-180z" />
    <glyph glyph-name="Udieresis" unicode="&#xdc;" horiz-adv-x="1530" 
d="M150 562v868h265v-868c0 -228 116.667 -342 350 -342s350 114 350 342v868h265v-868c0 -381.333 -205 -572 -615 -572s-615 190.667 -615 572zM1043 1810v-190h-215v190h215zM703 1810v-190h-215v190h215z" />
    <glyph glyph-name="Yacute" unicode="&#xdd;" horiz-adv-x="1300" 
d="M25 1430h285l402 -689l378 689h275l-526 -930v-500h-265v500zM685 1810h319l-239 -259h-224z" />
    <glyph glyph-name="Thorn" unicode="&#xde;" horiz-adv-x="1278" 
d="M150 0v1430h274v-308h396c272 0 408 -121 408 -363c0 -284.667 -196.333 -457.667 -589 -519l-38 236c233.333 43.333 350 135 350 275c0 92 -49.333 138 -148 138h-388v-889h-265z" />
    <glyph glyph-name="germandbls" unicode="&#xdf;" horiz-adv-x="1216" 
d="M125 0v959.001c0 312 168 468 504 468c313.333 0 470 -125.667 470 -377v-135c-202.667 -35.333 -304 -98 -304 -188c0 -47.333 61.833 -89.833 185.5 -127.5s185.5 -126.834 185.5 -267.501c0 -221.333 -141.333 -332 -424 -332h-212v210h214c98 0 147 34 147 102
c0 67.333 -58.5 119.833 -175.5 157.5s-175.5 122.5 -175.5 254.5s96 240.667 288 326c0 111.333 -68.667 167 -206 167c-154.667 0 -232 -87 -232 -261v-956h-265z" />
    <glyph glyph-name="agrave" unicode="&#xe0;" horiz-adv-x="1135" 
d="M75 327c0 208.667 152.001 313 456.001 313c71.333 0 142.666 -6.66699 213.999 -20v79c0 94 -67.667 141 -203 141c-114.667 0 -242 -16.667 -382 -50v210c140 33.333 267.333 50 382 50c312 0 468 -115.333 468 -346v-704h-154l-94 94
c-91.333 -62.667 -192 -94 -302 -94c-256.667 0 -385 109 -385 327zM531.001 460c-127.333 0 -191 -43.333 -191 -130c0 -93.333 53.333 -140 160 -140c88 0 169.667 27.333 245 82v168c-66.667 13.333 -138 20 -214 20zM717.001 1171h-224l-239 259h319z" />
    <glyph glyph-name="aacute" unicode="&#xe1;" horiz-adv-x="1135" 
d="M75 327c0 208.667 152.001 313 456.001 313c71.333 0 142.666 -6.66699 213.999 -20v79c0 94 -67.667 141 -203 141c-114.667 0 -242 -16.667 -382 -50v210c140 33.333 267.333 50 382 50c312 0 468 -115.333 468 -346v-704h-154l-94 94
c-91.333 -62.667 -192 -94 -302 -94c-256.667 0 -385 109 -385 327zM531.001 460c-127.333 0 -191 -43.333 -191 -130c0 -93.333 53.333 -140 160 -140c88 0 169.667 27.333 245 82v168c-66.667 13.333 -138 20 -214 20zM542.001 1430h319l-239 -259h-224z" />
    <glyph glyph-name="acircumflex" unicode="&#xe2;" horiz-adv-x="1135" 
d="M75 327c0 208.667 152.001 313 456.001 313c71.333 0 142.666 -6.66699 213.999 -20v79c0 94 -67.667 141 -203 141c-114.667 0 -242 -16.667 -382 -50v210c140 33.333 267.333 50 382 50c312 0 468 -115.333 468 -346v-704h-154l-94 94
c-91.333 -62.667 -192 -94 -302 -94c-256.667 0 -385 109 -385 327zM531.001 460c-127.333 0 -191 -43.333 -191 -130c0 -93.333 53.333 -140 160 -140c88 0 169.667 27.333 245 82v168c-66.667 13.333 -138 20 -214 20zM488.001 1430h150l175 -260h-180l-70 130l-70 -130
h-180z" />
    <glyph glyph-name="atilde" unicode="&#xe3;" horiz-adv-x="1135" 
d="M75 327c0 208.667 152.001 313 456.001 313c71.333 0 142.666 -6.66699 213.999 -20v79c0 94 -67.667 141 -203 141c-114.667 0 -242 -16.667 -382 -50v210c140 33.333 267.333 50 382 50c312 0 468 -115.333 468 -346v-704h-154l-94 94
c-91.333 -62.667 -192 -94 -302 -94c-256.667 0 -385 109 -385 327zM531.001 460c-127.333 0 -191 -43.333 -191 -130c0 -93.333 53.333 -140 160 -140c88 0 169.667 27.333 245 82v168c-66.667 13.333 -138 20 -214 20zM313.001 1384c40 30.667 83.333 46 130 46
c34.667 0 71.334 -8.66699 110.001 -26s76.667 -26 114 -26c50 0 98.667 15.333 146 46v-210c-40 -30.667 -83.333 -46 -130 -46c-34.667 0 -71.334 8.66699 -110.001 26s-76.667 26 -114 26c-50 0 -98.667 -15.333 -146 -46v210z" />
    <glyph glyph-name="adieresis" unicode="&#xe4;" horiz-adv-x="1135" 
d="M75 327c0 208.667 152.001 313 456.001 313c71.333 0 142.666 -6.66699 213.999 -20v79c0 94 -67.667 141 -203 141c-114.667 0 -242 -16.667 -382 -50v210c140 33.333 267.333 50 382 50c312 0 468 -115.333 468 -346v-704h-154l-94 94
c-91.333 -62.667 -192 -94 -302 -94c-256.667 0 -385 109 -385 327zM531.001 460c-127.333 0 -191 -43.333 -191 -130c0 -93.333 53.333 -140 160 -140c88 0 169.667 27.333 245 82v168c-66.667 13.333 -138 20 -214 20zM840.001 1430v-190h-215v190h215zM500.001 1430v-190
h-215v190h215z" />
    <glyph glyph-name="aring" unicode="&#xe5;" horiz-adv-x="1135" 
d="M75 327c0 208.667 152.001 313 456.001 313c71.333 0 142.666 -6.66699 213.999 -20v79c0 94 -67.667 141 -203 141c-114.667 0 -242 -16.667 -382 -50v210c140 33.333 267.333 50 382 50c312 0 468 -115.333 468 -346v-704h-154l-94 94
c-91.333 -62.667 -192 -94 -302 -94c-256.667 0 -385 109 -385 327zM531.001 460c-127.333 0 -191 -43.333 -191 -130c0 -93.333 53.333 -140 160 -140c88 0 169.667 27.333 245 82v168c-66.667 13.333 -138 20 -214 20zM560.001 1226c89.333 0 134 45.667 134 137
c0 89.333 -44.667 134 -134 134c-92 0 -138 -44.667 -138 -134c0 -91.333 46 -137 138 -137zM332.001 1361c0 140 76 210 228 210c149.333 0 224 -70 224 -210c0 -139.333 -74.667 -209 -224 -209c-152 0 -228 69.667 -228 209z" />
    <glyph glyph-name="ae" unicode="&#xe6;" horiz-adv-x="1745" 
d="M511 460c-114 0 -171 -43.333 -171 -130c0 -93.333 50 -140 150 -140c101.333 0 183 27.333 245 82v168c-73.333 13.333 -148 20 -224 20zM1001 616h448c-10.667 149.333 -80.667 224 -210 224c-146.667 0 -226 -74.667 -238 -224zM164 792l0.000976562 205
c112 35.333 223.333 53 334 53c199.333 0 331.333 -45.333 396 -136c84.667 90.667 198.667 136 342 136c304 0 456 -155.667 456 -467c0 -50 -4 -100.333 -12 -151h-677c0 -148 120 -222 360 -222c98.667 0 193.667 9.66699 285 29v-209c-97.333 -20 -211 -30 -341 -30
c-183.333 -0 -322.666 37.333 -417.999 112c-128.667 -74.667 -261.334 -112 -398.001 -112c-277.333 0 -416 109.667 -416 329c0 214 145.667 321 437 321c69.333 0 144.666 -7.33301 225.999 -22c0 141.333 -80.667 212 -242 212c-113.333 0 -224 -16 -332 -48z" />
    <glyph glyph-name="ccedilla" unicode="&#xe7;" horiz-adv-x="950" 
d="M453 16c-255.333 52.667 -383 229 -383 529c0 336.667 186.667 505 560 505c93.333 0 183.333 -10 270 -30v-210c-86.667 20 -170 30 -250 30c-210 0 -315 -98.333 -315 -295c0 -223.333 105 -335 315 -335c80 0 163.333 10 250 30v-210
c-86.667 -20 -176.667 -30 -270 -30h-24l-41 -77c142.667 0 214 -54 214 -162c0 -122 -90.333 -183 -271 -183c-72 0 -144 16.667 -216 50v128c72 -33.333 144 -50 216 -50s108 18.333 108 55c0 29.333 -27.667 44 -83 44h-183z" />
    <glyph glyph-name="egrave" unicode="&#xe8;" horiz-adv-x="1120" 
d="M568 1050c318.667 0 478.001 -162.668 478.001 -488.001c0 -43.333 -3 -86.666 -9 -129.999h-697c0 -148 108.667 -222 326 -222c106 0 212 10 318 30v-210c-92.667 -20 -205.334 -30 -338.001 -30c-380.667 0 -571 179 -571 537c0 342 164.333 513 493 513z
M340.001 615.999h448v8c0 145.333 -73.333 218 -220 218c-140 0 -216 -75.333 -228 -226zM725.001 1171h-224l-239 259h319z" />
    <glyph glyph-name="eacute" unicode="&#xe9;" horiz-adv-x="1120" 
d="M568 1050c318.667 0 478.001 -162.668 478.001 -488.001c0 -43.333 -3 -86.666 -9 -129.999h-697c0 -148 108.667 -222 326 -222c106 0 212 10 318 30v-210c-92.667 -20 -205.334 -30 -338.001 -30c-380.667 0 -571 179 -571 537c0 342 164.333 513 493 513z
M340.001 615.999h448v8c0 145.333 -73.333 218 -220 218c-140 0 -216 -75.333 -228 -226zM560.001 1430h319l-239 -259h-224z" />
    <glyph glyph-name="ecircumflex" unicode="&#xea;" horiz-adv-x="1120" 
d="M568 1050c318.667 0 478.001 -162.668 478.001 -488.001c0 -43.333 -3 -86.666 -9 -129.999h-697c0 -148 108.667 -222 326 -222c106 0 212 10 318 30v-210c-92.667 -20 -205.334 -30 -338.001 -30c-380.667 0 -571 179 -571 537c0 342 164.333 513 493 513z
M340.001 615.999h448v8c0 145.333 -73.333 218 -220 218c-140 0 -216 -75.333 -228 -226zM495.001 1430h150l175 -260h-180l-70 130l-70 -130h-180z" />
    <glyph glyph-name="edieresis" unicode="&#xeb;" horiz-adv-x="1120" 
d="M568 1050c318.667 0 478.001 -162.668 478.001 -488.001c0 -43.333 -3 -86.666 -9 -129.999h-697c0 -148 108.667 -222 326 -222c106 0 212 10 318 30v-210c-92.667 -20 -205.334 -30 -338.001 -30c-380.667 0 -571 179 -571 537c0 342 164.333 513 493 513z
M340.001 615.999h448v8c0 145.333 -73.333 218 -220 218c-140 0 -216 -75.333 -228 -226zM848.001 1430v-190h-215v190h215zM508.001 1430v-190h-215v190h215z" />
    <glyph glyph-name="igrave" unicode="&#xec;" horiz-adv-x="515" 
d="M390 1050v-1050h-265v1050h265zM412 1171h-224l-239 259h319z" />
    <glyph glyph-name="iacute" unicode="&#xed;" horiz-adv-x="515" 
d="M390 1050v-1050h-265v1050h265zM247 1430h319l-239 -259h-224z" />
    <glyph glyph-name="icircumflex" unicode="&#xee;" horiz-adv-x="515" 
d="M391 1050v-1050h-265v1050h265zM183 1430h150l175 -260h-180l-70 130l-70 -130h-180z" />
    <glyph glyph-name="idieresis" unicode="&#xef;" horiz-adv-x="515" 
d="M390 1050v-1050h-265v1050h265zM535 1430v-190h-215v190h215zM195 1430v-190h-215v190h215z" />
    <glyph glyph-name="eth" unicode="&#xf0;" horiz-adv-x="1180" 
d="M840 646c0 64 -6 115.333 -18 154c-60 33.333 -138 50 -234 50c-168 0 -252 -103.333 -252 -310c0 -226.667 84.333 -340 253 -340c167.333 0 251 148.667 251 446zM885 1268c146.667 -128.667 220 -334.667 220 -618c0 -440 -172.333 -660 -517 -660
c-342 0 -513 183.333 -513 550c0 340 144.667 510 434 510c118 0 213.333 -30 286 -90c-41.333 88.667 -99.333 154.667 -174 198l-231 -97v119l76 32c-33.333 5.33301 -68.333 8 -105 8h-206v210h208c166 0 304 -29.333 414 -88l210 88v-119z" />
    <glyph glyph-name="ntilde" unicode="&#xf1;" horiz-adv-x="1205" 
d="M125 0l-0.000976562 1050h205l33 -154c100.667 102.667 215.334 154 344.001 154c248.667 0 373 -129.333 373 -388v-662h-265v662c0 116 -57.667 174 -173 174c-86 0 -170 -34.333 -252 -103v-733h-265zM372.999 1384c40 30.667 83.333 46 130 46
c34.667 0 71.334 -8.66699 110.001 -26s76.667 -26 114 -26c50 0 98.667 15.333 146 46v-210c-40 -30.667 -83.333 -46 -130 -46c-34.667 0 -71.334 8.66699 -110.001 26s-76.667 26 -114 26c-50 0 -98.667 -15.333 -146 -46v210z" />
    <glyph glyph-name="ograve" unicode="&#xf2;" horiz-adv-x="1190" 
d="M595 200c170 0 255 109.667 255 329c0 214 -85 321 -255 321s-255 -107 -255 -321c0 -219.333 85 -329 255 -329zM75 525c0 352 173.332 528 519.999 528s520 -176 520 -528c0 -351.333 -173.333 -527 -520 -527c-345.333 0 -518.666 175.667 -519.999 527zM748.999 1171
h-224l-239 259h319z" />
    <glyph glyph-name="oacute" unicode="&#xf3;" horiz-adv-x="1190" 
d="M595 200c170 0 255 109.667 255 329c0 214 -85 321 -255 321s-255 -107 -255 -321c0 -219.333 85 -329 255 -329zM75 525c0 352 173.332 528 519.999 528s520 -176 520 -528c0 -351.333 -173.333 -527 -520 -527c-345.333 0 -518.666 175.667 -519.999 527zM584.999 1430
h319l-239 -259h-224z" />
    <glyph glyph-name="ocircumflex" unicode="&#xf4;" horiz-adv-x="1190" 
d="M595 200c170 0 255 109.667 255 329c0 214 -85 321 -255 321s-255 -107 -255 -321c0 -219.333 85 -329 255 -329zM75 525c0 352 173.332 528 519.999 528s520 -176 520 -528c0 -351.333 -173.333 -527 -520 -527c-345.333 0 -518.666 175.667 -519.999 527zM519.999 1430
h150l175 -260h-180l-70 130l-70 -130h-180z" />
    <glyph glyph-name="otilde" unicode="&#xf5;" horiz-adv-x="1190" 
d="M595 200c170 0 255 109.667 255 329c0 214 -85 321 -255 321s-255 -107 -255 -321c0 -219.333 85 -329 255 -329zM75 525c0 352 173.332 528 519.999 528s520 -176 520 -528c0 -351.333 -173.333 -527 -520 -527c-345.333 0 -518.666 175.667 -519.999 527zM344.999 1384
c40 30.667 83.333 46 130 46c34.667 0 71.334 -8.66699 110.001 -26s76.667 -26 114 -26c50 0 98.667 15.333 146 46v-210c-40 -30.667 -83.333 -46 -130 -46c-34.667 0 -71.334 8.66699 -110.001 26s-76.667 26 -114 26c-50 0 -98.667 -15.333 -146 -46v210z" />
    <glyph glyph-name="odieresis" unicode="&#xf6;" horiz-adv-x="1190" 
d="M595 200c170 0 255 109.667 255 329c0 214 -85 321 -255 321s-255 -107 -255 -321c0 -219.333 85 -329 255 -329zM75 525c0 352 173.332 528 519.999 528s520 -176 520 -528c0 -351.333 -173.333 -527 -520 -527c-345.333 0 -518.666 175.667 -519.999 527zM872.999 1430
v-190h-215v190h215zM532.999 1430v-190h-215v190h215z" />
    <glyph glyph-name="divide" unicode="&#xf7;" horiz-adv-x="985" 
d="M885 630v-210h-785v210h785zM605 340v-190h-225v190h225zM605 900v-190h-225v190h225z" />
    <glyph glyph-name="oslash" unicode="&#xf8;" horiz-adv-x="1180" 
d="M484 219c32 -12.667 69 -19 111 -19c176.667 0 265 109.667 265 329c0 60 -7 111.667 -21 155zM348 379l348 456c-29.333 10 -63 15 -101 15c-176.667 0 -265 -107 -265 -321c0 -58 6 -108 18 -150zM342 32l-24.999 -31.999h-257l115 151
c-72.667 88 -109.334 212.667 -110.001 374c0 356.667 176.667 535 530 535c94 0 175.333 -12.667 244 -38l21 28h258l-108 -142c76.667 -88.667 115 -216.334 115 -383.001c0 -356 -176.667 -534 -530 -534c-98 0 -182.333 13.667 -253 41z" />
    <glyph glyph-name="ugrave" unicode="&#xf9;" horiz-adv-x="1195" 
d="M1070 1050v-1050h-207l-32 134c-120.667 -89.333 -248.667 -134 -384 -134c-214.667 0 -322 127 -322 381v669h265v-662c0 -116 50.667 -174 152 -174c86 0 173.667 34.333 263 103v733h265zM752 1171h-224l-239 259h319z" />
    <glyph glyph-name="uacute" unicode="&#xfa;" horiz-adv-x="1195" 
d="M1070 1050v-1050h-207l-32 134c-120.667 -89.333 -248.667 -134 -384 -134c-214.667 0 -322 127 -322 381v669h265v-662c0 -116 50.667 -174 152 -174c86 0 173.667 34.333 263 103v733h265zM587 1430h319l-239 -259h-224z" />
    <glyph glyph-name="ucircumflex" unicode="&#xfb;" horiz-adv-x="1195" 
d="M1070 1050v-1050h-207l-32 134c-120.667 -89.333 -248.667 -134 -384 -134c-214.667 0 -322 127 -322 381v669h265v-662c0 -116 50.667 -174 152 -174c86 0 173.667 34.333 263 103v733h265zM523 1430h150l175 -260h-180l-70 130l-70 -130h-180z" />
    <glyph glyph-name="udieresis" unicode="&#xfc;" horiz-adv-x="1195" 
d="M1070 1050v-1050h-207l-32 134c-120.667 -89.333 -248.667 -134 -384 -134c-214.667 0 -322 127 -322 381v669h265v-662c0 -116 50.667 -174 152 -174c86 0 173.667 34.333 263 103v733h265zM875 1430v-190h-215v190h215zM535 1430v-190h-215v190h215z" />
    <glyph glyph-name="yacute" unicode="&#xfd;" horiz-adv-x="1081" 
d="M0 1050l281.001 0.000976562l265 -756l259 756h276l-436 -1081c-77.333 -190.667 -201 -326.334 -371 -407.001l-128 181c117.333 51.333 202.666 135 255.999 251zM530.001 1430h319l-239 -259h-224z" />
    <glyph glyph-name="thorn" unicode="&#xfe;" horiz-adv-x="1177" 
d="M390 1024c58 17.333 123.667 26 197 26c343.333 0 515 -169.667 515 -509c0 -360.667 -166 -541 -498 -541c-70.667 0 -142 16.667 -214 50v-430h-265v1810h265v-406zM390 822v-548c66 -36 137 -54 213 -54c158 0 237 107.667 237 323c0 195.333 -87.333 293 -262 293
c-75.333 0 -138 -4.66699 -188 -14z" />
    <glyph glyph-name="ydieresis" unicode="&#xff;" horiz-adv-x="1081" 
d="M0 1050l281.001 0.000976562l265 -756l259 756h276l-436 -1081c-77.333 -190.667 -201 -326.334 -371 -407.001l-128 181c117.333 51.333 202.666 135 255.999 251zM824.001 1430v-190h-215v190h215zM484.001 1430v-190h-215v190h215z" />
    <glyph glyph-name="Amacron" unicode="&#x100;" horiz-adv-x="1562" 
d="M297 0h-272l607 1430h285l620 -1430h-285l-163 390h-475l91 230h288l-225 537zM1031 1810v-210h-500v210h500z" />
    <glyph glyph-name="amacron" unicode="&#x101;" horiz-adv-x="1135" 
d="M75 327c0 208.667 152.001 313 456.001 313c71.333 0 142.666 -6.66699 213.999 -20v79c0 94 -67.667 141 -203 141c-114.667 0 -242 -16.667 -382 -50v210c140 33.333 267.333 50 382 50c312 0 468 -115.333 468 -346v-704h-154l-94 94
c-91.333 -62.667 -192 -94 -302 -94c-256.667 0 -385 109 -385 327zM531.001 460c-127.333 0 -191 -43.333 -191 -130c0 -93.333 53.333 -140 160 -140c88 0 169.667 27.333 245 82v168c-66.667 13.333 -138 20 -214 20zM833.001 1430v-210h-500v210h500z" />
    <glyph glyph-name="Abreve" unicode="&#x102;" horiz-adv-x="1562" 
d="M297 0h-272l607 1430h285l620 -1430h-285l-163 390h-475l91 230h288l-225 537zM486 1810h175c0 -93.333 40 -140 120 -140s120 46.667 120 140h175c0 -193.333 -98.333 -290 -295 -290s-295 96.667 -295 290z" />
    <glyph glyph-name="abreve" unicode="&#x103;" horiz-adv-x="1135" 
d="M75 327c0 208.667 152.001 313 456.001 313c71.333 0 142.666 -6.66699 213.999 -20v79c0 94 -67.667 141 -203 141c-114.667 0 -242 -16.667 -382 -50v210c140 33.333 267.333 50 382 50c312 0 468 -115.333 468 -346v-704h-154l-94 94
c-91.333 -62.667 -192 -94 -302 -94c-256.667 0 -385 109 -385 327zM531.001 460c-127.333 0 -191 -43.333 -191 -130c0 -93.333 53.333 -140 160 -140c88 0 169.667 27.333 245 82v168c-66.667 13.333 -138 20 -214 20zM288.001 1430h175c0 -93.333 40 -140 120 -140
s120 46.667 120 140h175c0 -193.333 -98.333 -290 -295 -290s-295 96.667 -295 290z" />
    <glyph glyph-name="Aogonek" unicode="&#x104;" horiz-adv-x="1562" 
d="M297 0l-272 0.000976562l607 1430h285l620 -1430c-158.667 -64 -238 -130 -238 -198c0 -45.333 28.333 -68 85 -68s102.334 6.66699 137.001 20v-160c-40.667 -13.333 -90.334 -20 -149.001 -20c-174 0 -261 67.667 -261 203c0 87.333 47 161.666 141 222.999l-163 390
h-475l91 230h288l-225 537z" />
    <glyph glyph-name="aogonek" unicode="&#x105;" horiz-adv-x="1135" 
d="M531 460c-127.333 0 -191 -43.333 -191 -130c0 -93.333 53.333 -140 160 -140c88 0 169.667 27.333 245 82v168c-66.667 13.333 -138 20 -214 20zM745 0l0.000976562 94.001c-80 -62.667 -175 -94 -285 -94c-256.667 0 -385 109 -385 327c0 208.667 152 313 456 313
c71.333 0 142.666 -6.66699 213.999 -20v79c0 94 -67.667 141 -203 141c-114.667 0 -242 -16.667 -382 -50v210c140 33.333 267.333 50 382 50c312 0 468 -115.333 468 -346v-704c-158.667 -64 -238 -130 -238 -198c0 -45.333 28.333 -68 85 -68s102.334 6.66699 137.001 20
v-160c-40.667 -13.333 -90.334 -20 -149.001 -20c-174 0 -261 67.667 -261 203c0 87.333 53.667 161.666 161 222.999z" />
    <glyph glyph-name="Cacute" unicode="&#x106;" horiz-adv-x="1390" 
d="M1290 60c-123.333 -46.667 -263.333 -70 -420 -70c-513.333 0 -770 248.333 -770 745c0 470 256.667 705 770 705c156.667 0 296.667 -23.333 420 -70v-240c-123.333 53.333 -256.666 80 -399.999 80c-343.333 0 -515 -158.333 -515 -475
c0 -343.333 171.667 -515 515 -515c143.333 0 276.666 26.667 399.999 80v-240zM685 1810h319l-239 -259h-224z" />
    <glyph glyph-name="cacute" unicode="&#x107;" horiz-adv-x="980" 
d="M890 30c-86.667 -20 -176.667 -30 -270 -30c-373.333 0 -560 181.667 -560 545c0 336.667 186.667 505 560 505c93.333 0 183.333 -10 270 -30v-210c-86.667 20 -170 30 -250 30c-210 0 -315 -98.333 -315 -295c0 -223.333 105 -335 315 -335c80 0 163.333 10 250 30
v-210zM485 1430h319l-239 -259h-224z" />
    <glyph glyph-name="Ccircumflex" unicode="&#x108;" horiz-adv-x="1390" 
d="M1290 60c-123.333 -46.667 -263.333 -70 -420 -70c-513.333 0 -770 248.333 -770 745c0 470 256.667 705 770 705c156.667 0 296.667 -23.333 420 -70v-240c-123.333 53.333 -256.666 80 -399.999 80c-343.333 0 -515 -158.333 -515 -475
c0 -343.333 171.667 -515 515 -515c143.333 0 276.666 26.667 399.999 80v-240zM760 1810h150l175 -260h-180l-70 130l-70 -130h-180z" />
    <glyph glyph-name="ccircumflex" unicode="&#x109;" horiz-adv-x="950" 
d="M900 30c-86.667 -20 -176.667 -30 -270 -30c-373.333 0 -560 181.667 -560 545c0 336.667 186.667 505 560 505c93.333 0 183.333 -10 270 -30v-210c-86.667 20 -170 30 -250 30c-210 0 -315 -98.333 -315 -295c0 -223.333 105 -335 315 -335c80 0 163.333 10 250 30
v-210zM480 1430h150l175 -260h-180l-70 130l-70 -130h-180z" />
    <glyph glyph-name="Cdotaccent" unicode="&#x10a;" horiz-adv-x="1390" 
d="M1290 60c-123.333 -46.667 -263.333 -70 -420 -70c-513.333 0 -770 248.333 -770 745c0 470 256.667 705 770 705c156.667 0 296.667 -23.333 420 -70v-240c-123.333 53.333 -256.666 80 -399.999 80c-343.333 0 -515 -158.333 -515 -475
c0 -343.333 171.667 -515 515 -515c143.333 0 276.666 26.667 399.999 80v-240zM973 1810v-220h-235v220h235z" />
    <glyph glyph-name="cdotaccent" unicode="&#x10b;" horiz-adv-x="950" 
d="M900 30c-86.667 -20 -176.667 -30 -270 -30c-373.333 0 -560 181.667 -560 545c0 336.667 186.667 505 560 505c93.333 0 183.333 -10 270 -30v-210c-86.667 20 -170 30 -250 30c-210 0 -315 -98.333 -315 -295c0 -223.333 105 -335 315 -335c80 0 163.333 10 250 30
v-210zM673 1430v-220h-235v220h235z" />
    <glyph glyph-name="Ccaron" unicode="&#x10c;" horiz-adv-x="1390" 
d="M1290 60c-123.333 -46.667 -263.333 -70 -420 -70c-513.333 0 -770 248.333 -770 745c0 470 256.667 705 770 705c156.667 0 296.667 -23.333 420 -70v-240c-123.333 53.333 -256.666 80 -399.999 80c-343.333 0 -515 -158.333 -515 -475
c0 -343.333 171.667 -515 515 -515c143.333 0 276.666 26.667 399.999 80v-240zM553 1810h180l70 -130l70 130h180l-175 -260h-150z" />
    <glyph glyph-name="ccaron" unicode="&#x10d;" horiz-adv-x="950" 
d="M900 30c-86.667 -20 -176.667 -30 -270 -30c-373.333 0 -560 181.667 -560 545c0 336.667 186.667 505 560 505c93.333 0 183.333 -10 270 -30v-210c-86.667 20 -170 30 -250 30c-210 0 -315 -98.333 -315 -295c0 -223.333 105 -335 315 -335c80 0 163.333 10 250 30
v-210zM305 1430h180l70 -130l70 130h180l-175 -260h-150z" />
    <glyph glyph-name="Dcaron" unicode="&#x10e;" horiz-adv-x="1495" 
d="M710 230c296.667 0 445 174.667 445 524c0 297.333 -148.333 446 -445 446h-295v-970h295zM150 0v1430h560c473.333 0 710 -225.333 710 -676c0 -502.667 -236.667 -754 -710 -754h-560zM535 1810h180l70 -130l70 130h180l-175 -260h-150z" />
    <glyph glyph-name="dcaron" unicode="&#x10f;" horiz-adv-x="1180" 
d="M1550 1430l-150 -435h-245l150 435h245zM790 776c-54.667 36 -123.332 54 -205.999 54c-164.667 0 -247 -92.333 -247 -277c0 -219.333 85.667 -329 257 -329c69.333 0 134.666 9.66699 195.999 29v523zM1055 63c-160.667 -42 -317.667 -63 -471 -63
c-339.333 0 -509 182 -509 546c0 336 166 504 498 504c70.667 0 143 -16.667 217 -50v430h265v-1367z" />
    <glyph glyph-name="Dcroat" unicode="&#x110;" horiz-adv-x="1455" 
d="M150 840v590h520c473.333 0 710 -225.333 710 -676c0 -502.667 -236.667 -754 -710 -754h-520v610h-200v230h200zM415 840h285v-230h-285v-380h255c296.667 0 445 174.667 445 524c0 297.333 -148.333 446 -445 446h-255v-360z" />
    <glyph glyph-name="dcroat" unicode="&#x111;" horiz-adv-x="1180" 
d="M790 776c-54.667 36 -123.332 54 -205.999 54c-164.667 0 -247 -92.333 -247 -277c0 -219.333 85.667 -329 257 -329c69.333 0 134.666 9.66699 195.999 29v523zM790.002 1120h-675v210h675v100h265v-1367c-160.667 -42 -317.667 -63 -471 -63
c-339.333 0 -509 182 -509 546c0 336 166 504 498 504c70.667 0 143 -16.667 217 -50v120z" />
    <glyph glyph-name="Emacron" unicode="&#x112;" horiz-adv-x="1238" 
d="M1129 1430v-228h-716v-360h682v-237h-685v-375h733v-230h-993v1430h979zM877 1810v-210h-500v210h500z" />
    <glyph glyph-name="emacron" unicode="&#x113;" horiz-adv-x="1120" 
d="M568 1050c318.667 0 478.001 -162.668 478.001 -488.001c0 -43.333 -3 -86.666 -9 -129.999h-697c0 -148 108.667 -222 326 -222c106 0 212 10 318 30v-210c-92.667 -20 -205.334 -30 -338.001 -30c-380.667 0 -571 179 -571 537c0 342 164.333 513 493 513z
M340.001 615.999h448v8c0 145.333 -73.333 218 -220 218c-140 0 -216 -75.333 -228 -226zM820.001 1430v-210h-500v210h500z" />
    <glyph glyph-name="Ebreve" unicode="&#x114;" horiz-adv-x="1238" 
d="M1129 1430v-228h-716v-360h682v-237h-685v-375h733v-230h-993v1430h979zM332 1810h175c0 -93.333 40 -140 120 -140s120 46.667 120 140h175c0 -193.333 -98.333 -290 -295 -290s-295 96.667 -295 290z" />
    <glyph glyph-name="ebreve" unicode="&#x115;" horiz-adv-x="1120" 
d="M568 1050c318.667 0 478.001 -162.668 478.001 -488.001c0 -43.333 -3 -86.666 -9 -129.999h-697c0 -148 108.667 -222 326 -222c106 0 212 10 318 30v-210c-92.667 -20 -205.334 -30 -338.001 -30c-380.667 0 -571 179 -571 537c0 342 164.333 513 493 513z
M340.001 615.999h448v8c0 145.333 -73.333 218 -220 218c-140 0 -216 -75.333 -228 -226zM275.001 1430h175c0 -93.333 40 -140 120 -140s120 46.667 120 140h175c0 -193.333 -98.333 -290 -295 -290s-295 96.667 -295 290z" />
    <glyph glyph-name="Edotaccent" unicode="&#x116;" horiz-adv-x="1238" 
d="M1129 1430v-228h-716v-360h682v-237h-685v-375h733v-230h-993v1430h979zM744 1810v-220h-235v220h235z" />
    <glyph glyph-name="edotaccent" unicode="&#x117;" horiz-adv-x="1120" 
d="M568 1050c318.667 0 478.001 -162.668 478.001 -488.001c0 -43.333 -3 -86.666 -9 -129.999h-697c0 -148 108.667 -222 326 -222c106 0 212 10 318 30v-210c-92.667 -20 -205.334 -30 -338.001 -30c-380.667 0 -571 179 -571 537c0 342 164.333 513 493 513z
M340.001 615.999h448v8c0 145.333 -73.333 218 -220 218c-140 0 -216 -75.333 -228 -226zM688.001 1430v-220h-235v220h235z" />
    <glyph glyph-name="Eogonek" unicode="&#x118;" horiz-adv-x="1238" 
d="M858 0l-708 0.000976562v1430h979v-228h-716v-360h682v-237h-685v-375h733v-230c-158.667 -64 -238 -130 -238 -198c0 -45.333 28.333 -68 85 -68s102.334 6.66699 137.001 20v-160c-40.667 -13.333 -90.334 -20 -149.001 -20c-174 0 -261 67.667 -261 203
c0 87.333 47 161.666 141 222.999z" />
    <glyph glyph-name="eogonek" unicode="&#x119;" horiz-adv-x="1120" 
d="M340 616h448v8c0 145.333 -73.333 218 -220 218c-140 0 -216 -75.333 -228 -226zM732 2c-27.333 -1.33301 -56 -2 -86 -2c-380.667 0 -571 179 -571 537c0 342 164.333 513 493 513c318.667 0 478 -162.667 478 -488c0 -43.333 -3 -86.666 -9 -129.999h-697
c0 -148 108.667 -222 326 -222c106 0 212 10 318 30v-210c-158.667 -84 -238 -160 -238 -228c0 -45.333 28.333 -68 85 -68s102.334 6.66699 137.001 20v-160c-40.667 -13.333 -90.334 -20 -149.001 -20c-174 0 -261 67.667 -261 203c0 87.333 53.667 161.666 161 222.999z
" />
    <glyph glyph-name="Ecaron" unicode="&#x11a;" horiz-adv-x="1238" 
d="M1129 1430v-228h-716v-360h682v-237h-685v-375h733v-230h-993v1430h979zM377 1810h180l70 -130l70 130h180l-175 -260h-150z" />
    <glyph glyph-name="ecaron" unicode="&#x11b;" horiz-adv-x="1120" 
d="M568 1050c318.667 0 478.001 -162.668 478.001 -488.001c0 -43.333 -3 -86.666 -9 -129.999h-697c0 -148 108.667 -222 326 -222c106 0 212 10 318 30v-210c-92.667 -20 -205.334 -30 -338.001 -30c-380.667 0 -571 179 -571 537c0 342 164.333 513 493 513z
M340.001 615.999h448v8c0 145.333 -73.333 218 -220 218c-140 0 -216 -75.333 -228 -226zM320.001 1430h180l70 -130l70 130h180l-175 -260h-150z" />
    <glyph glyph-name="Gcircumflex" unicode="&#x11c;" horiz-adv-x="1390" 
d="M1290 66c-115.333 -50.667 -259.668 -76 -433.001 -76c-504.667 0 -757 248.333 -757 745c0 470 256.667 705 770 705c156.667 0 296.667 -23.333 420 -70v-240c-123.333 53.333 -256.666 80 -399.999 80c-343.333 0 -515 -158.333 -515 -475
c0 -343.333 162 -515 486 -515c48 0 102.667 8 164 24v416h265v-594zM769.998 1810h150l175 -260h-180l-70 130l-70 -130h-180z" />
    <glyph glyph-name="gcircumflex" unicode="&#x11d;" horiz-adv-x="1187" 
d="M797 812c-43.333 16 -105 24 -185 24c-183.333 0 -275 -101 -275 -303c0 -195.333 79 -293 237 -293c76 0 150.333 18 223 54v518zM1062 80c0 -306.667 -184.332 -460 -552.999 -460c-129.333 0 -244 16.667 -344 50v210c102 -33.333 217.333 -50 346 -50
c190.667 0 286 80 286 240c-78.667 -33.333 -163.334 -50 -254.001 -50c-312 0 -468 170.333 -468 511c0 346 181.667 519 545 519c122 0 269.333 -14.333 442 -43v-927zM524.001 1430h150l175 -260h-180l-70 130l-70 -130h-180z" />
    <glyph glyph-name="Gbreve" unicode="&#x11e;" horiz-adv-x="1390" 
d="M1290 66c-115.333 -50.667 -259.668 -76 -433.001 -76c-504.667 0 -757 248.333 -757 745c0 470 256.667 705 770 705c156.667 0 296.667 -23.333 420 -70v-240c-123.333 53.333 -256.666 80 -399.999 80c-343.333 0 -515 -158.333 -515 -475
c0 -343.333 162 -515 486 -515c48 0 102.667 8 164 24v416h265v-594zM509.998 1810h175c0 -93.333 40 -140 120 -140s120 46.667 120 140h175c0 -193.333 -98.333 -290 -295 -290s-295 96.667 -295 290z" />
    <glyph glyph-name="gbreve" unicode="&#x11f;" horiz-adv-x="1187" 
d="M797 812c-43.333 16 -105 24 -185 24c-183.333 0 -275 -101 -275 -303c0 -195.333 79 -293 237 -293c76 0 150.333 18 223 54v518zM1062 80c0 -306.667 -184.332 -460 -552.999 -460c-129.333 0 -244 16.667 -344 50v210c102 -33.333 217.333 -50 346 -50
c190.667 0 286 80 286 240c-78.667 -33.333 -163.334 -50 -254.001 -50c-312 0 -468 170.333 -468 511c0 346 181.667 519 545 519c122 0 269.333 -14.333 442 -43v-927zM304.001 1430h175c0 -93.333 40 -140 120 -140s120 46.667 120 140h175
c0 -193.333 -98.333 -290 -295 -290s-295 96.667 -295 290z" />
    <glyph glyph-name="Gdotaccent" unicode="&#x120;" horiz-adv-x="1390" 
d="M1290 66c-115.333 -50.667 -259.668 -76 -433.001 -76c-504.667 0 -757 248.333 -757 745c0 470 256.667 705 770 705c156.667 0 296.667 -23.333 420 -70v-240c-123.333 53.333 -256.666 80 -399.999 80c-343.333 0 -515 -158.333 -515 -475
c0 -343.333 162 -515 486 -515c48 0 102.667 8 164 24v416h265v-594zM962.998 1810v-220h-235v220h235z" />
    <glyph glyph-name="gdotaccent" unicode="&#x121;" horiz-adv-x="1187" 
d="M797 812c-43.333 16 -105 24 -185 24c-183.333 0 -275 -101 -275 -303c0 -195.333 79 -293 237 -293c76 0 150.333 18 223 54v518zM1062 80c0 -306.667 -184.332 -460 -552.999 -460c-129.333 0 -244 16.667 -344 50v210c102 -33.333 217.333 -50 346 -50
c190.667 0 286 80 286 240c-78.667 -33.333 -163.334 -50 -254.001 -50c-312 0 -468 170.333 -468 511c0 346 181.667 519 545 519c122 0 269.333 -14.333 442 -43v-927zM726.001 1430v-220h-235v220h235z" />
    <glyph glyph-name="Gcommaaccent" unicode="&#x122;" horiz-adv-x="1390" 
d="M1290 66c-115.333 -50.667 -259.668 -76 -433.001 -76c-504.667 0 -757 248.333 -757 745c0 470 256.667 705 770 705c156.667 0 296.667 -23.333 420 -70v-240c-123.333 53.333 -256.666 80 -399.999 80c-343.333 0 -515 -158.333 -515 -475
c0 -343.333 162 -515 486 -515c48 0 102.667 8 164 24v416h265v-594zM902.998 -100l-150 -280h-265l150 280h265z" />
    <glyph glyph-name="gcommaaccent" unicode="&#x123;" horiz-adv-x="1187" 
d="M797 812c-43.333 16 -111.667 24 -205 24c-170 0 -255 -101 -255 -303c0 -195.333 69 -293 207 -293c96 0 180.333 18 253 54v518zM1062 0c0 -253.333 -187.666 -380 -562.999 -380c-129.333 0 -244 16.667 -344 50v210c102 -33.333 217.333 -50 346 -50
c197.333 0 296 80 296 240c-78.667 -33.333 -163.334 -50 -254.001 -50c-312 0 -468 170.333 -468 511c0 346 181.667 519 545 519c122 0 269.333 -14.333 442 -43v-1007zM856 1430l-150 -280h-265l150 280h265z" />
    <glyph glyph-name="Hcircumflex" unicode="&#x124;" horiz-adv-x="1535" 
d="M150 0v1430h265v-590h705v590h265v-1430h-265v610h-705v-610h-265zM693 1810h150l175 -260h-180l-70 130l-70 -130h-180z" />
    <glyph glyph-name="hcircumflex" unicode="&#x125;" horiz-adv-x="1205" 
d="M126 0l-0.000976562 1430h265v-514c82.667 89.333 188.334 134 317.001 134c248.667 0 373 -129.333 373 -388v-662h-265v662c0 116 -57.667 174 -173 174c-86 0 -170 -34.333 -252 -103v-733h-265zM187.999 1835h150l175 -260h-180l-70 130l-70 -130h-180z" />
    <glyph glyph-name="Hbar" unicode="&#x126;" horiz-adv-x="1535" 
d="M1120 1260v170h265v-1430h-265v610h-705v-610h-265v1430h265v-170h705zM415 1050v-210h705v210h-705z" />
    <glyph glyph-name="hbar" unicode="&#x127;" horiz-adv-x="1205" 
d="M390 1120l-0.000976562 -204c82.667 89.333 188.334 134 317.001 134c248.667 0 373 -129.333 373 -388v-662h-265v662c0 116 -57.667 174 -173 174c-86 0 -170 -34.333 -252 -103v-733h-265v1430h265v-100h690v-210h-690z" />
    <glyph glyph-name="Itilde" unicode="&#x128;" 
d="M416 1430v-1430h-265v1430h265zM33 1764c40 30.667 83.333 46 130 46c34.667 0 71.334 -8.66699 110.001 -26s76.667 -26 114 -26c50 0 98.667 15.333 146 46v-210c-40 -30.667 -83.333 -46 -130 -46c-34.667 0 -71.334 8.66699 -110.001 26s-76.667 26 -114 26
c-50 0 -98.667 -15.333 -146 -46v210z" />
    <glyph glyph-name="itilde" unicode="&#x129;" horiz-adv-x="515" 
d="M391 1050v-1050h-265v1050h265zM8 1384c40 30.667 83.333 46 130 46c34.667 0 71.334 -8.66699 110.001 -26s76.667 -26 114 -26c50 0 98.667 15.333 146 46v-210c-40 -30.667 -83.333 -46 -130 -46c-34.667 0 -71.334 8.66699 -110.001 26s-76.667 26 -114 26
c-50 0 -98.667 -15.333 -146 -46v210z" />
    <glyph glyph-name="Imacron" unicode="&#x12a;" 
d="M416 1430v-1430h-265v1430h265zM533 1810v-210h-500v210h500z" />
    <glyph glyph-name="imacron" unicode="&#x12b;" horiz-adv-x="515" 
d="M391 1050v-1050h-265v1050h265zM508 1430v-210h-500v210h500z" />
    <glyph glyph-name="Ibreve" unicode="&#x12c;" 
d="M416 1430v-1430h-265v1430h265zM-12 1810h175c0 -93.333 40 -140 120 -140s120 46.667 120 140h175c0 -193.333 -98.333 -290 -295 -290s-295 96.667 -295 290z" />
    <glyph glyph-name="ibreve" unicode="&#x12d;" horiz-adv-x="515" 
d="M391 1050v-1050h-265v1050h265zM-37 1430h175c0 -93.333 40 -140 120 -140s120 46.667 120 140h175c0 -193.333 -98.333 -290 -295 -290s-295 96.667 -295 290z" />
    <glyph glyph-name="Iogonek" unicode="&#x12e;" 
d="M150 0v1430h265v-1430c-145.333 -64 -218 -130 -218 -198c0 -45.333 28.333 -68 85 -68s102.334 6.66699 10468445ABE" />
    <glyph glyph-name="iogonek" unicode="&#x12f;" horiz-adv-x="515" 
d="M390 1430v-210h-265v210h265zM125 0v1050h265v-1050c-145.333 -64 -218 -130 -218 -198c0 -45.333 28.333 09C80E1A58" />
    <glyph glyph-name="Idotaccent" unicode="&#x130;" 
d="M415 1430v-1430h-265v1430h265zM400 1810v-220h-235v220h235z" />
    <glyph glyph-name="dotlessi" unicode="&#x131;" horiz-adv-x="515" 
d="M390 1050v-1050h-265v1050h265z" />
    <glyph glyph-name="IJ" unicode="&#x132;" horiz-adv-x="1305" 
d="M415 1430v-1430h-265v1430h265zM1155 1430v-1018c0 -274.667 -188.333 -412 -565 -412v230c200 0 300 60.667 300 182v1018h265z" />
    <glyph glyph-name="ij" unicode="&#x133;" horiz-adv-x="1030" 
d="M390 1430v-210h-265v210h265zM390 1050v-1050h-265v1050h265zM905 1430v-210h-265v210h265zM905 1050v-970c0 -212 -60.667 -384.667 -182 -518l-208 145c83.333 90 125 214.333 125 373v970h265z" />
    <glyph glyph-name="Jcircumflex" unicode="&#x134;" horiz-adv-x="740" 
d="M590 1430v-1018c0 -274.667 -188.333 -412 -565 -412v230c200 0 300 60.667 300 182v1018h265zM373 1810h150l175 -260h-180l-70 130l-70 -130h-180z" />
    <glyph glyph-name="jcircumflex" unicode="&#x135;" horiz-adv-x="515" 
d="M390 1050v-970c0 -212 -60.667 -384.667 -182 -518l-208 145c83.333 90 125 214.333 125 373v970h265zM185 1430h150l175 -260h-180l-70 130l-70 -130h-180z" />
    <glyph glyph-name="Kcommaaccent" unicode="&#x136;" horiz-adv-x="1435" 
d="M415 1430v-1430h-265v1430h265zM1421 1430l-610 -667l674 -763h-367l-553 668v172l532 590h324zM925 -100l-150 -280h-265l150 280h265z" />
    <glyph glyph-name="kcommaaccent" unicode="&#x137;" horiz-adv-x="1206" 
d="M125 0l0.000976562 1430h265v-462c108.667 54.667 223 82 343 82c268 0 402 -101 402 -303c0 -146.667 -93.333 -261.334 -280 -344.001l326 -403h-324l-274 375v123c191.333 40.667 287 107.334 287 200.001c0 94.667 -63.333 142 -190 142
c-88.667 0 -185.334 -28 -290.001 -84v-756h-265zM811.001 -100l-150 -280h-265l150 280h265z" />
    <glyph glyph-name="kgreenlandic" unicode="&#x138;" horiz-adv-x="1142" 
d="M1151 1050l-420 -474l436 -576h-337l-354 505v103l357 442h318zM125 0v1050h265v-1050h-265z" />
    <glyph glyph-name="Lacute" unicode="&#x139;" horiz-adv-x="1083" 
d="M415 1430v-1200h568v-230h-833v1430h265zM256 1810h319l-239 -259h-224z" />
    <glyph glyph-name="lacute" unicode="&#x13a;" horiz-adv-x="515" 
d="M390 1430v-1430h-265v1430h265zM250 1835h319l-239 -259h-224z" />
    <glyph glyph-name="Lcommaaccent" unicode="&#x13b;" horiz-adv-x="1083" 
d="M415 1430v-1200h568v-230h-833v1430h265zM724 -100l-150 -280h-265l150 280h265z" />
    <glyph glyph-name="lcommaaccent" unicode="&#x13c;" horiz-adv-x="515" 
d="M390 1430v-1430h-265v1430h265zM385 -100l-150 -280h-265l150 280h265z" />
    <glyph glyph-name="Lcaron" unicode="&#x13d;" horiz-adv-x="1083" 
d="M415 1430v-1200h568v-230h-833v1430h265zM985 1430l-150 -435h-245l150 435h245z" />
    <glyph glyph-name="lcaron" unicode="&#x13e;" horiz-adv-x="515" 
d="M390 1430v-1430h-265v1430h265zM885 1430l-150 -435h-245l150 435h245z" />
    <glyph glyph-name="Ldot" unicode="&#x13f;" horiz-adv-x="1083" 
d="M415 1430v-1200h568v-230h-833v1430h265zM658 715c0 83.333 41.667 125 125 125s125 -41.667 125 -125s-41.667 -125 -125 -125s-125 41.667 -125 125z" />
    <glyph glyph-name="ldot" unicode="&#x140;" horiz-adv-x="515" 
d="M390 1430v-1430h-265v1430h265zM513 572c0 83.333 41.667 125 125 125s125 -41.667 125 -125s-41.667 -125 -125 -125s-125 41.667 -125 125z" />
    <glyph glyph-name="Lslash" unicode="&#x141;" horiz-adv-x="1233" 
d="M300 512l-150 -110v230l150 110v688h265v-493l243 179v-230l-243 -179v-477h568v-230h-833v512z" />
    <glyph glyph-name="lslash" unicode="&#x142;" 
d="M150 514l-150 -112v230l150 112v686h265v-490l150 112v-230l-150 -112v-710h-265v514z" />
    <glyph glyph-name="Nacute" unicode="&#x143;" horiz-adv-x="1575" 
d="M150 0v1430h265l755 -1042v1042h255v-1430h-265l-755 1064v-1064h-255zM777 1810h319l-239 -259h-224z" />
    <glyph glyph-name="nacute" unicode="&#x144;" horiz-adv-x="1205" 
d="M125 0l-0.000976562 1050h205l33 -154c100.667 102.667 215.334 154 344.001 154c248.667 0 373 -129.333 373 -388v-662h-265v662c0 116 -57.667 174 -173 174c-86 0 -170 -34.333 -252 -103v-733h-265zM611.999 1430h319l-239 -259h-224z" />
    <glyph glyph-name="Ncommaaccent" unicode="&#x145;" horiz-adv-x="1575" 
d="M150 0v1430h265l755 -1042v1042h255v-1430h-265l-755 1064v-1064h-255zM995 -100l-150 -280h-265l150 280h265z" />
    <glyph glyph-name="ncommaaccent" unicode="&#x146;" horiz-adv-x="1205" 
d="M125 0l-0.000976562 1050h205l33 -154c100.667 102.667 215.334 154 344.001 154c248.667 0 373 -129.333 373 -388v-662h-265v662c0 116 -57.667 174 -173 174c-86 0 -170 -34.333 -252 -103v-733h-265zM779.999 -100l-150 -280h-265l150 280h265z" />
    <glyph glyph-name="Ncaron" unicode="&#x147;" horiz-adv-x="1575" 
d="M150 0v1430h265l755 -1042v1042h255v-1430h-265l-755 1064v-1064h-255zM538 1810h180l70 -130l70 130h180l-175 -260h-150z" />
    <glyph glyph-name="ncaron" unicode="&#x148;" horiz-adv-x="1235" 
d="M125 0l-0.000976562 1050h205l33 -154c100.667 102.667 215.334 154 344.001 154c248.667 0 373 -129.333 373 -388v-662h-265v662c0 116 -57.667 174 -173 174c-86 0 -170 -34.333 -252 -103v-733h-265zM367.999 1430h180l70 -130l70 130h180l-175 -260h-150z" />
    <glyph glyph-name="napostrophe" unicode="&#x149;" horiz-adv-x="1305" 
d="M225 0l-0.000976562 1050h205l33 -154c100.667 102.667 215.334 154 344.001 154c248.667 0 373 -129.333 373 -388v-662h-265v662c0 116 -57.667 174 -173 174c-86 0 -170 -34.333 -252 -103v-733h-265zM244.999 1430l-150 -435h-245l150 435h245z" />
    <glyph glyph-name="Eng" unicode="&#x14a;" horiz-adv-x="1575" 
d="M1157 4l-752 1060v-1064h-255v1430h265l755 -1042v1042h255v-1350c0 -212 -60.667 -384.667 -182 -518l-208 145c69.333 75.333 110 174.333 122 297z" />
    <glyph glyph-name="eng" unicode="&#x14b;" horiz-adv-x="1205" 
d="M815 662c0 116 -57.668 174 -173.001 174c-86 0 -170 -34.333 -252 -103v-733h-265v1050h205l33 -154c100.667 102.667 215.334 154 344.001 154c248.667 0 373 -130.333 373 -391v-579c0 -212 -60.667 -384.667 -182 -518l-208 145c83.333 90 125 214.333 125 373v582z
" />
    <glyph glyph-name="Omacron" unicode="&#x14c;" horiz-adv-x="1625" 
d="M818 220c288 0 432 166.333 432 499c0 327.333 -144 491 -432 491c-295.333 0 -443 -163.667 -443 -491c0 -332.667 147.667 -499 443 -499zM100 713c0 484.667 239.332 727 717.999 727c471.333 0 707 -242.333 707 -727c0 -482 -235.667 -723 -707 -723
c-457.333 0 -696.666 241 -717.999 723zM1063 1810v-210h-500v210h500z" />
    <glyph glyph-name="omacron" unicode="&#x14d;" horiz-adv-x="1190" 
d="M595 200c170 0 255 109.667 255 329c0 214 -85 321 -255 321s-255 -107 -255 -321c0 -219.333 85 -329 255 -329zM75 525c0 352 173.332 528 519.999 528s520 -176 520 -528c0 -351.333 -173.333 -527 -520 -527c-345.333 0 -518.666 175.667 -519.999 527zM844.999 1430
v-210h-500v210h500z" />
    <glyph glyph-name="Obreve" unicode="&#x14e;" horiz-adv-x="1625" 
d="M818 220c288 0 432 166.333 432 499c0 327.333 -144 491 -432 491c-295.333 0 -443 -163.667 -443 -491c0 -332.667 147.667 -499 443 -499zM100 713c0 484.667 239.332 727 717.999 727c471.333 0 707 -242.333 707 -727c0 -482 -235.667 -723 -707 -723
c-457.333 0 -696.666 241 -717.999 723zM517.999 1810h175c0 -93.333 40 -140 120 -140s120 46.667 120 140h175c0 -193.333 -98.333 -290 -295 -290s-295 96.667 -295 290z" />
    <glyph glyph-name="obreve" unicode="&#x14f;" horiz-adv-x="1190" 
d="M595 200c170 0 255 109.667 255 329c0 214 -85 321 -255 321s-255 -107 -255 -321c0 -219.333 85 -329 255 -329zM75 525c0 352 173.332 528 519.999 528s520 -176 520 -528c0 -351.333 -173.333 -527 -520 -527c-345.333 0 -518.666 175.667 -519.999 527zM299.999 1430
h175c0 -93.333 40 -140 120 -140s120 46.667 120 140h175c0 -193.333 -98.333 -290 -295 -290s-295 96.667 -295 290z" />
    <glyph glyph-name="Ohungarumlaut" unicode="&#x150;" horiz-adv-x="1625" 
d="M818 220c288 0 432 166.333 432 499c0 327.333 -144 491 -432 491c-295.333 0 -443 -163.667 -443 -491c0 -332.667 147.667 -499 443 -499zM100 713c0 484.667 239.332 727 717.999 727c471.333 0 707 -242.333 707 -727c0 -482 -235.667 -723 -707 -723
c-457.333 0 -696.666 241 -717.999 723zM571.999 1810h319l-239 -259h-224zM977.999 1810h319l-239 -259h-224z" />
    <glyph glyph-name="ohungarumlaut" unicode="&#x151;" horiz-adv-x="1190" 
d="M595 200c170 0 255 109.667 255 329c0 214 -85 321 -255 321s-255 -107 -255 -321c0 -219.333 85 -329 255 -329zM75 525c0 352 173.332 528 519.999 528s520 -176 520 -528c0 -351.333 -173.333 -527 -520 -527c-345.333 0 -518.666 175.667 -519.999 527zM384.999 1430
h319l-239 -259h-224zM790.999 1430h319l-239 -259h-224z" />
    <glyph glyph-name="OE" unicode="&#x152;" horiz-adv-x="2215" 
d="M818 230c281.333 0 422 163 422 489c0 320.667 -140.667 481 -422 481c-295.333 0 -443 -160.333 -443 -481c0 -326 147.667 -489 443 -489zM100 713c0 478 239.332 717 717.999 717h1257v-230h-700c73.333 -74.667 120 -194.667 140 -360h525v-230h-525
c-14 -161.333 -57.667 -288 -131 -380h706v-230h-1272c-457.333 0 -696.666 237.667 -717.999 713z" />
    <glyph glyph-name="oe" unicode="&#x153;" horiz-adv-x="1859" 
d="M576 210c170 0 255 106.333 255 319c0 207.333 -85 311 -255 311s-255 -103.667 -255 -311c0 -212.667 85 -319 255 -319zM1106 616h428c-4 150.667 -74 226 -210 226c-133.333 0 -206 -75.333 -218 -226zM60 522c0 352 170.001 528 510.001 528
c176 0 304.333 -56.333 385 -169c78.667 112.667 201 169 367 169c312 0 468 -164.667 468 -494c0 -42 -2.66699 -86.667 -8 -134h-683c0 -141.333 120.667 -212 362 -212c98 0 191 9.33301 279 28v-206c-91.333 -21.333 -202.333 -32 -333 -32
c-214.667 0 -365 48.667 -451 146c-76.667 -97.333 -205.334 -146 -386.001 -146c-326 0 -496 174 -510 522z" />
    <glyph glyph-name="Racute" unicode="&#x154;" horiz-adv-x="1325" 
d="M150 2v1428h650c292 0 438 -127.667 438 -383c0 -172.667 -113.667 -315.667 -341 -429l453 -618h-334l-435 623v121c253.333 43.333 380 141.666 380 294.999c0 105.333 -59.333 158 -178 158h-363v-1195h-270zM640 1810h319l-239 -259h-224z" />
    <glyph glyph-name="racute" unicode="&#x155;" horiz-adv-x="680" 
d="M125 0v1050h205l33 -134c92 89.333 189.333 134 292 134v-214c-98.667 0 -187 -41 -265 -123v-713h-265zM380 1430h319l-239 -259h-224z" />
    <glyph glyph-name="Rcommaaccent" unicode="&#x156;" horiz-adv-x="1325" 
d="M150 2v1428h650c292 0 438 -127.667 438 -383c0 -172.667 -113.667 -315.667 -341 -429l453 -618h-334l-435 623v121c253.333 43.333 380 141.666 380 294.999c0 105.333 -59.333 158 -178 158h-363v-1195h-270zM858 -99.999l-150 -280h-265l150 280h265z" />
    <glyph glyph-name="rcommaaccent" unicode="&#x157;" horiz-adv-x="680" 
d="M125 0v1050h205l33 -134c92 89.333 189.333 134 292 134v-214c-98.667 0 -187 -41 -265 -123v-713h-265zM388 -100l-150 -280h-265l150 280h265z" />
    <glyph glyph-name="Rcaron" unicode="&#x158;" horiz-adv-x="1375" 
d="M150 2v1428h650c292 0 438 -127.667 438 -383c0 -172.667 -113.667 -315.667 -341 -429l453 -618h-334l-435 623v121c253.333 43.333 380 141.666 380 294.999c0 105.333 -59.333 158 -178 158h-363v-1195h-270zM380 1810h180l70 -130l70 130h180l-175 -260h-150z" />
    <glyph glyph-name="rcaron" unicode="&#x159;" horiz-adv-x="680" 
d="M125 0v1050h205l33 -134c92 89.333 189.333 134 292 134v-214c-98.667 0 -187 -41 -265 -123v-713h-265zM140 1430h180l70 -130l70 130h180l-175 -260h-150z" />
    <glyph glyph-name="Sacute" unicode="&#x15a;" horiz-adv-x="1280" 
d="M125 60v240c143.333 -53.333 305.333 -80 486 -80c219.333 0 329 73.333 329 220c0 106.667 -67.333 160 -202 160h-224c-292.667 0 -439 133.333 -439 400c0 293.333 208.333 440 625 440c160 0 311.667 -23.333 455 -70v-240c-143.333 53.333 -295 80 -455 80
c-240 0 -360 -70 -360 -210c0 -106.667 58 -160 174 -160h224c311.333 0 467 -133.333 467 -400c0 -300 -198 -450 -594 -450c-180.667 0 -342.667 23.333 -486 70zM630 1810h319l-239 -259h-224z" />
    <glyph glyph-name="sacute" unicode="&#x15b;" horiz-adv-x="1025" 
d="M125 50v220c116.667 -46.667 251.334 -70 404.001 -70c114 0 171 36.667 171 110c0 70 -38.333 105 -115 105h-190c-213.333 0 -320 105 -320 315c0 220 155.667 330 467 330c132 0 256.333 -20 373 -60v-220c-116.667 46.667 -243.334 70 -380.001 70
c-143.333 0 -215 -36.667 -215 -110c0 -70 41.667 -105 125 -105h170c233.333 0 350 -105 350 -315c0 -220 -148.667 -330 -446 -330c-146 0 -277.333 20 -394 60zM510 1430h319l-239 -259h-224z" />
    <glyph glyph-name="Scircumflex" unicode="&#x15c;" horiz-adv-x="1280" 
d="M125 60v240c143.333 -53.333 305.333 -80 486 -80c219.333 0 329 73.333 329 220c0 106.667 -67.333 160 -202 160h-224c-292.667 0 -439 133.333 -439 400c0 293.333 208.333 440 625 440c160 0 311.667 -23.333 455 -70v-240c-143.333 53.333 -295 80 -455 80
c-240 0 -360 -70 -360 -210c0 -106.667 58 -160 174 -160h224c311.333 0 467 -133.333 467 -400c0 -300 -198 -450 -594 -450c-180.667 0 -342.667 23.333 -486 70zM565 1810h150l175 -260h-180l-70 130l-70 -130h-180z" />
    <glyph glyph-name="scircumflex" unicode="&#x15d;" horiz-adv-x="1025" 
d="M125 50v220c116.667 -46.667 251.334 -70 404.001 -70c114 0 171 36.667 171 110c0 70 -38.333 105 -115 105h-190c-213.333 0 -320 105 -320 315c0 220 155.667 330 467 330c132 0 256.333 -20 373 -60v-220c-116.667 46.667 -243.334 70 -380.001 70
c-143.333 0 -215 -36.667 -215 -110c0 -70 41.667 -105 125 -105h170c233.333 0 350 -105 350 -315c0 -220 -148.667 -330 -446 -330c-146 0 -277.333 20 -394 60zM445 1430h150l175 -260h-180l-70 130l-70 -130h-180z" />
    <glyph glyph-name="Scedilla" unicode="&#x15e;" horiz-adv-x="1280" 
d="M526 -8c-146.667 6 -280.333 28.667 -401 68v240c143.333 -53.333 305.333 -80 486 -80c219.333 0 329 73.333 329 220c0 106.667 -67.333 160 -202 160h-224c-292.667 0 -439 133.333 -439 400c0 293.333 208.333 440 625 440c160 0 311.667 -23.333 455 -70v-240
c-143.333 53.333 -295 80 -455 80c-240 0 -360 -70 -360 -210c0 -106.667 58 -160 174 -160h224c311.333 0 467 -133.333 467 -400c0 -280 -172.667 -429.333 -518 -448l-37 -69c142.667 0 214 -54 214 -162c0 -122 -90.333 -183 -271 -183c-72 0 -144 16.667 -216 50v128
c72 -33.333 144 -50 216 -50s108 18.333 108 55c0 29.333 -27.667 44 -83 44h-183z" />
    <glyph glyph-name="scedilla" unicode="&#x15f;" horiz-adv-x="1025" 
d="M416 -7c-105.333 7.33301 -202.333 26.333 -291 57v220c116.667 -46.667 251.334 -70 404.001 -70c114 0 171 36.667 171 110c0 70 -38.333 105 -115 105h-190c-213.333 0 -320 105 -320 315c0 220 155.667 330 467 330c132 0 256.333 -20 373 -60v-220
c-116.667 46.667 -243.334 70 -380.001 70c-143.333 0 -215 -36.667 -215 -110c0 -70 41.667 -105 125 -105h170c233.333 0 350 -105 350 -315c0 -205.333 -129.667 -315 -389 -329l-36 -68c142.667 0 214 -54 214 -162c0 -122 -90.333 -183 -271 -183
c-72 0 -144 16.667 -216 50v128c72 -33.333 144 -50 216 -50s108 18.333 108 55c0 29.333 -27.667 44 -83 44h-183z" />
    <glyph glyph-name="Scaron" unicode="&#x160;" horiz-adv-x="1280" 
d="M125 60v240c143.333 -53.333 305.333 -80 486 -80c219.333 0 329 73.333 329 220c0 106.667 -67.333 160 -202 160h-224c-292.667 0 -439 133.333 -439 400c0 293.333 208.333 440 625 440c160 0 311.667 -23.333 455 -70v-240c-143.333 53.333 -295 80 -455 80
c-240 0 -360 -70 -360 -210c0 -106.667 58 -160 174 -160h224c311.333 0 467 -133.333 467 -400c0 -300 -198 -450 -594 -450c-180.667 0 -342.667 23.333 -486 70zM390 1810h180l70 -130l70 130h180l-175 -260h-150z" />
    <glyph glyph-name="scaron" unicode="&#x161;" horiz-adv-x="1025" 
d="M125 50v220c116.667 -46.667 251.334 -70 404.001 -70c114 0 171 36.667 171 110c0 70 -38.333 105 -115 105h-190c-213.333 0 -320 105 -320 315c0 220 155.667 330 467 330c132 0 256.333 -20 373 -60v-220c-116.667 46.667 -243.334 70 -380.001 70
c-143.333 0 -215 -36.667 -215 -110c0 -70 41.667 -105 125 -105h170c233.333 0 350 -105 350 -315c0 -220 -148.667 -330 -446 -330c-146 0 -277.333 20 -394 60zM270 1430h180l70 -130l70 130h180l-175 -260h-150z" />
    <glyph glyph-name="Tcommaaccent" unicode="&#x162;" horiz-adv-x="1085" 
d="M1085 1430v-230h-410v-1200h-265v1200h-410v230h1085zM667 -100l-150 -280h-265l150 280h265z" />
    <glyph glyph-name="Tcommaaccent" unicode="&#x21a;" horiz-adv-x="1085" 
d="M1085 1430v-230h-410v-1200h-265v1200h-410v230h1085zM667 -100l-150 -280h-265l150 280h265z" />
    <glyph glyph-name="tcommaaccent" unicode="&#x163;" horiz-adv-x="680" 
d="M125 1220h196l40 -170h264v-210h-235v-483c0 -98 42.333 -147 127 -147h108v-210h-236c-176 -0 -264 94.333 -264 283v937zM490 -100l-150 -280h-265l150 280h265z" />
    <glyph glyph-name="tcommaaccent" unicode="&#x21b;" horiz-adv-x="680" 
d="M125 1220h196l40 -170h264v-210h-235v-483c0 -98 42.333 -147 127 -147h108v-210h-236c-176 -0 -264 94.333 -264 283v937zM490 -100l-150 -280h-265l150 280h265z" />
    <glyph glyph-name="Tcaron" unicode="&#x164;" horiz-adv-x="1085" 
d="M1085 1430v-230h-410v-1200h-265v1200h-410v230h1085zM293 1810h180l70 -130l70 130h180l-175 -260h-150z" />
    <glyph glyph-name="tcaron" unicode="&#x165;" horiz-adv-x="665" 
d="M110 1220h196l40 -170h264v-210h-235v-483c0 -98 42.333 -147 127 -147h108v-210h-236c-176 -0 -264 94.333 -264 283v937zM1035 1430l-150 -435h-245l150 435h245z" />
    <glyph glyph-name="Tbar" unicode="&#x166;" horiz-adv-x="1085" 
d="M410 820v380h-410v230h1085v-230h-410v-380h410v-210h-410v-610h-265v610h-410v210h410z" />
    <glyph glyph-name="tbar" unicode="&#x167;" horiz-adv-x="665" 
d="M110 653v567h196l40 -170h264v-210h-235v-187h235v-210h-235v-86c0 -98 42.333 -147 127 -147h108v-210h-236c-176 -0 -264 94.333 -264 283v160h-110v210h110z" />
    <glyph glyph-name="Utilde" unicode="&#x168;" horiz-adv-x="1530" 
d="M150 562v868h265v-868c0 -228 116.667 -342 350 -342s350 114 350 342v868h265v-868c0 -381.333 -205 -572 -615 -572s-615 190.667 -615 572zM515 1764c40 30.667 83.333 46 130 46c34.667 0 71.334 -8.66699 110.001 -26s76.667 -26 114 -26c50 0 98.667 15.333 146 46
v-210c-40 -30.667 -83.333 -46 -130 -46c-34.667 0 -71.334 8.66699 -110.001 26s-76.667 26 -114 26c-50 0 -98.667 -15.333 -146 -46v210z" />
    <glyph glyph-name="utilde" unicode="&#x169;" horiz-adv-x="1195" 
d="M1070 1050v-1050h-207l-32 134c-120.667 -89.333 -248.667 -134 -384 -134c-214.667 0 -322 127 -322 381v669h265v-662c0 -116 50.667 -174 152 -174c86 0 173.667 34.333 263 103v733h265zM348 1384c40 30.667 83.333 46 130 46c34.667 0 71.334 -8.66699 110.001 -26
s76.667 -26 114 -26c50 0 98.667 15.333 146 46v-210c-40 -30.667 -83.333 -46 -130 -46c-34.667 0 -71.334 8.66699 -110.001 26s-76.667 26 -114 26c-50 0 -98.667 -15.333 -146 -46v210z" />
    <glyph glyph-name="Umacron" unicode="&#x16a;" horiz-adv-x="1530" 
d="M150 562v868h265v-868c0 -228 116.667 -342 350 -342s350 114 350 342v868h265v-868c0 -381.333 -205 -572 -615 -572s-615 190.667 -615 572zM1015 1810v-210h-500v210h500z" />
    <glyph glyph-name="umacron" unicode="&#x16b;" horiz-adv-x="1195" 
d="M1070 1050v-1050h-207l-32 134c-120.667 -89.333 -248.667 -134 -384 -134c-214.667 0 -322 127 -322 381v669h265v-662c0 -116 50.667 -174 152 -174c86 0 173.667 34.333 263 103v733h265zM848 1430v-210h-500v210h500z" />
    <glyph glyph-name="Ubreve" unicode="&#x16c;" horiz-adv-x="1530" 
d="M150 562v868h265v-868c0 -228 116.667 -342 350 -342s350 114 350 342v868h265v-868c0 -381.333 -205 -572 -615 -572s-615 190.667 -615 572zM470 1810h175c0 -93.333 40 -140 120 -140s120 46.667 120 140h175c0 -193.333 -98.333 -290 -295 -290s-295 96.667 -295 290
z" />
    <glyph glyph-name="ubreve" unicode="&#x16d;" horiz-adv-x="1195" 
d="M1070 1050v-1050h-207l-32 134c-120.667 -89.333 -248.667 -134 -384 -134c-214.667 0 -322 127 -322 381v669h265v-662c0 -116 50.667 -174 152 -174c86 0 173.667 34.333 263 103v733h265zM303 1430h175c0 -93.333 40 -140 120 -140s120 46.667 120 140h175
c0 -193.333 -98.333 -290 -295 -290s-295 96.667 -295 290z" />
    <glyph glyph-name="Uring" unicode="&#x16e;" horiz-adv-x="1530" 
d="M150 562v868h265v-868c0 -228 116.667 -342 350 -342s350 114 350 342v868h265v-868c0 -381.333 -205 -572 -615 -572s-615 190.667 -615 572zM758 1502c89.333 0 134 45.667 134 137c0 89.333 -44.667 134 -134 134c-92 0 -138 -44.667 -138 -134
c0 -91.333 46 -137 138 -137zM530 1637c0 140 76 210 228 210c149.333 0 224 -70 224 -210c0 -139.333 -74.667 -209 -224 -209c-152 0 -228 69.667 -228 209z" />
    <glyph glyph-name="uring" unicode="&#x16f;" horiz-adv-x="1235" 
d="M1070 1050v-1050h-207l-32 134c-120.667 -89.333 -248.667 -134 -384 -134c-214.667 0 -322 127 -322 381v669h265v-662c0 -116 50.667 -174 152 -174c86 0 173.667 34.333 263 103v733h265zM585 1226c89.333 0 134 45.667 134 137c0 89.333 -44.667 134 -134 134
c-92 0 -138 -44.667 -138 -134c0 -91.333 46 -137 138 -137zM357 1361c0 140 76 210 228 210c149.333 0 224 -70 224 -210c0 -139.333 -74.667 -209 -224 -209c-152 0 -228 69.667 -228 209z" />
    <glyph glyph-name="Uhungarumlaut" unicode="&#x170;" horiz-adv-x="1530" 
d="M150 562v868h265v-868c0 -228 116.667 -342 350 -342s350 114 350 342v868h265v-868c0 -381.333 -205 -572 -615 -572s-615 190.667 -615 572zM525 1810h319l-239 -259h-224zM931 1810h319l-239 -259h-224z" />
    <glyph glyph-name="uhungarumlaut" unicode="&#x171;" horiz-adv-x="1195" 
d="M1070 1050v-1050h-207l-32 134c-120.667 -89.333 -248.667 -134 -384 -134c-214.667 0 -322 127 -322 381v669h265v-662c0 -116 50.667 -174 152 -174c86 0 173.667 34.333 263 103v733h265zM307 1430h319l-239 -259h-224zM713 1430h319l-239 -259h-224z" />
    <glyph glyph-name="Uogonek" unicode="&#x172;" horiz-adv-x="1530" 
d="M657 -5c-338 32 -507 221 -507 567v868h265v-868c0 -228 116.667 -342 350 -342s350 114 350 342v868h265v-868c0 -334 -157.667 -521.667 -473 -563c-130 -66.667 -195 -132.334 -195 -197.001c0 -45.333 28.333 -68 85 -68s102.334 6.66699 137.001 20v-160
c-40.667 -13.333 -90.334 -20 -149.001 -20c-174 0 -261 67.667 -261 203c0 84.667 44.333 157.334 133 218.001z" />
    <glyph glyph-name="uogonek" unicode="&#x173;" horiz-adv-x="1195" 
d="M805 0v134.001c-110 -89.333 -229.333 -134 -358 -134c-214.667 0 -322 127 -322 381v669h265v-662c0 -116 50.667 -174 152 -174c86 0 173.667 34.333 263 103v733h265v-1050c-148 -64 -222 -130 -222 -198c0 -45.333 28.333 -68 85 -68s102.334 6.66699 137.001 20
v-160c-40.667 -13.333 -90.334 -20 -149.001 -20c-174 0 -261 67.667 -261 203c0 87.333 48.333 161.666 145 222.999z" />
    <glyph glyph-name="Wcircumflex" unicode="&#x174;" horiz-adv-x="1890" 
d="M35 1430h269l153 -1027l372 1027h255l348 -987l162 987h261l-269 -1430h-252l-393 1122l-422 -1122h-249zM870 1810h150l175 -260h-180l-70 130l-70 -130h-180z" />
    <glyph glyph-name="wcircumflex" unicode="&#x175;" horiz-adv-x="1599" 
d="M25 1050h267l136 -731l243 731h227l262 -731l118 731h276l-274 -1050h-249l-247 745l-250 -745h-253zM715 1430h150l175 -260h-180l-70 130l-70 -130h-180z" />
    <glyph glyph-name="Ycircumflex" unicode="&#x176;" horiz-adv-x="1300" 
d="M25 1430h285l402 -689l378 689h275l-526 -930v-500h-265v500zM620 1810h150l175 -260h-180l-70 130l-70 -130h-180z" />
    <glyph glyph-name="ycircumflex" unicode="&#x177;" horiz-adv-x="1081" 
d="M0 1050l281.001 0.000976562l265 -756l259 756h276l-436 -1081c-77.333 -190.667 -201 -326.334 -371 -407.001l-128 181c117.333 51.333 202.666 135 255.999 251zM466.001 1430h150l175 -260h-180l-70 130l-70 -130h-180z" />
    <glyph glyph-name="Ydieresis" unicode="&#x178;" horiz-adv-x="1300" 
d="M25 1430h285l402 -689l378 689h275l-526 -930v-500h-265v500zM973 1789v-190h-216v190h216zM633 1789v-190h-216v190h216z" />
    <glyph glyph-name="Zacute" unicode="&#x179;" horiz-adv-x="1250" 
d="M1185 1430v-230l-761 -970h761v-230h-1060v230l794 970h-774v230h1040zM645 1810h319l-239 -259h-224z" />
    <glyph glyph-name="zacute" unicode="&#x17a;" horiz-adv-x="990" 
d="M120 1050h810v-210l-537 -640h517v-200h-810v200l545 640h-525v210zM505 1430h319l-239 -259h-224z" />
    <glyph glyph-name="Zdot" unicode="&#x17b;" horiz-adv-x="1250" 
d="M1185 1430v-230l-761 -970h761v-230h-1060v230l794 970h-774v230h1040zM773 1810v-220h-235v220h235z" />
    <glyph glyph-name="zdot" unicode="&#x17c;" horiz-adv-x="990" 
d="M120 1050h810v-210l-537 -640h517v-200h-810v200l545 640h-525v210zM633 1430v-220h-235v220h235z" />
    <glyph glyph-name="Zcaron" unicode="&#x17d;" horiz-adv-x="1250" 
d="M1185 1430v-230l-761 -970h761v-230h-1060v230l794 970h-774v230h1040zM405 1810h180l70 -130l70 130h180l-175 -260h-150z" />
    <glyph glyph-name="zcaron" unicode="&#x17e;" horiz-adv-x="990" 
d="M120 1050h810v-210l-537 -640h517v-200h-810v200l545 640h-525v210zM265 1430h180l70 -130l70 130h180l-175 -260h-150z" />
    <glyph glyph-name="longs" unicode="&#x17f;" horiz-adv-x="531" 
d="M125 0v1050c0 288 157.333 432 472 432c86 0 164 -13.333 234 -40v-210c-66 26.667 -144.333 40 -235 40c-137.333 0 -206 -74 -206 -222v-1050h-265z" />
    <glyph glyph-name="florin" unicode="&#x192;" horiz-adv-x="1047" 
d="M1077 1220c-26 4.66699 -50 7 -72 7c-106 0 -172.667 -52.333 -200 -157l-24 -90h220l-40 -210h-210l-164 -790c-48.667 -242.667 -201 -364 -457 -364c-25.333 0 -52 1.33301 -80 4v210c26 -4.66699 50 -7 72 -7c106 0 172.667 52.333 200 157l164 790h-190l40 210h180
l24 90c48.667 242.667 201 364 457 364c25.333 0 52 -1.33301 80 -4v-210z" />
    <glyph glyph-name="Scommaaccent" unicode="&#x218;" horiz-adv-x="1280" 
d="M125 60v240c143.333 -53.333 305.333 -80 486 -80c219.333 0 329 73.333 329 220c0 106.667 -67.333 160 -202 160h-224c-292.667 0 -439 133.333 -439 400c0 293.333 208.333 440 625 440c160 0 311.667 -23.333 455 -70v-240c-143.333 53.333 -295 80 -455 80
c-240 0 -360 -70 -360 -210c0 -106.667 58 -160 174 -160h224c311.333 0 467 -133.333 467 -400c0 -300 -198 -450 -594 -450c-180.667 0 -342.667 23.333 -486 70zM848 -100l-150 -280h-265l150 280h265z" />
    <glyph glyph-name="scommaaccent" unicode="&#x219;" horiz-adv-x="1025" 
d="M125 50v220c116.667 -46.667 251.334 -70 404.001 -70c114 0 171 36.667 171 110c0 70 -38.333 105 -115 105h-190c-213.333 0 -320 105 -320 315c0 220 155.667 330 467 330c132 0 256.333 -20 373 -60v-220c-116.667 46.667 -243.334 70 -380.001 70
c-143.333 0 -215 -36.667 -215 -110c0 -70 41.667 -105 125 -105h170c233.333 0 350 -105 350 -315c0 -220 -148.667 -330 -446 -330c-146 0 -277.333 20 -394 60zM728 -100l-150 -280h-265l150 280h265z" />
    <glyph glyph-name="circumflex" unicode="&#x2c6;" horiz-adv-x="700" 
d="M275 1430h150l175 -260h-180l-70 130l-70 -130h-180z" />
    <glyph glyph-name="caron" unicode="&#x2c7;" horiz-adv-x="700" 
d="M100 1430h180l70 -130l70 130h180l-175 -260h-150z" />
    <glyph glyph-name="breve" unicode="&#x2d8;" horiz-adv-x="790" 
d="M100 1430h175c0 -93.333 40 -140 120 -140s120 46.667 120 140h175c0 -193.333 -98.333 -290 -295 -290s-295 96.667 -295 290z" />
    <glyph glyph-name="dotaccent" unicode="&#x2d9;" horiz-adv-x="435" 
d="M335 1430v-220h-235v220h235z" />
    <glyph glyph-name="ring" unicode="&#x2da;" horiz-adv-x="652" 
d="M328 1226c89.333 0 134 45.667 134 137c0 89.333 -44.667 134 -134 134c-92 0 -138 -44.667 -138 -134c0 -91.333 46 -137 138 -137zM100 1361c0 140 76 210 228 210c149.333 0 224 -70 224 -210c0 -139.333 -74.667 -209 -224 -209c-152 0 -228 69.667 -228 209z" />
    <glyph glyph-name="ogonek" unicode="&#x2db;" horiz-adv-x="626" 
d="M526 0c-158.667 -64 -238 -129.999 -238 -197.999c0 -45.333 28.333 -68 85 -68s102.334 6.66699 137.001 20v-160c-40.667 -13.333 -90.334 -20 -149.001 -20c-174 0 -261 67.667 -261 203c0 87.333 47 161.666 141 222.999h285z" />
    <glyph glyph-name="tilde" unicode="&#x2dc;" horiz-adv-x="700" 
d="M100 1384c40 30.667 83.333 46 130 46c34.667 0 71.334 -8.66699 110.001 -26s76.667 -26 114 -26c50 0 98.667 15.333 146 46v-210c-40 -30.667 -83.333 -46 -130 -46c-34.667 0 -71.334 8.66699 -110.001 26s-76.667 26 -114 26c-50 0 -98.667 -15.333 -146 -46v210z
" />
    <glyph glyph-name="hungarumlaut" unicode="&#x2dd;" horiz-adv-x="1069" 
d="M244 1430h319l-239 -259h-224zM650 1430h319l-239 -259h-224z" />
    <glyph glyph-name="commaccent" unicode="&#x326;" horiz-adv-x="465" 
d="M440 -100l-150 -280h-265l150 280h265z" />
    <glyph glyph-name="uni037E" unicode="&#x37e;" horiz-adv-x="615" 
d="M515 1050v-245h-265v245h265zM515 185l-150 -435h-265l150 435h265z" />
    <glyph glyph-name="tonos" unicode="&#x384;" horiz-adv-x="663" 
d="M244 1430h319l-239 -259h-224z" />
    <glyph glyph-name="dieresistonos" unicode="&#x385;" horiz-adv-x="1145" 
d="M1045 1430v-190h-215v190h215zM315 1430v-190h-215v190h215zM474 1430h319l-239 -259h-224z" />
    <glyph glyph-name="Alphatonos" unicode="&#x386;" horiz-adv-x="1562" 
d="M244 1430h319l-239 -259h-224zM297 0h-272l607 1430h285l620 -1430h-285l-163 390h-475l91 230h288l-225 537z" />
    <glyph glyph-name="anoteleia" unicode="&#x387;" horiz-adv-x="465" 
d="M365 1050v-245h-265v245h265z" />
    <glyph glyph-name="Epsilontonos" unicode="&#x388;" horiz-adv-x="1551" 
d="M94 1430h319l-239 -259h-224zM1442 1430v-228h-716v-360h682v-237h-685v-375h733v-230h-993v1430h979z" />
    <glyph glyph-name="Etatonos" unicode="&#x389;" horiz-adv-x="1848" 
d="M94 1430h319l-239 -259h-224zM463 0v1430h265v-590h705v590h265v-1430h-265v610h-705v-610h-265z" />
    <glyph glyph-name="Iotatonos" unicode="&#x38a;" horiz-adv-x="878" 
d="M94 1430h319l-239 -259h-224zM728 1430v-1430h-265v1430h265z" />
    <glyph glyph-name="Omicrontonos" unicode="&#x38c;" horiz-adv-x="1788" 
d="M94 1430h319l-239 -259h-224zM981 220c288 0 432 166.333 432 499c0 327.333 -144 491 -432 491c-295.333 0 -443 -163.667 -443 -491c0 -332.667 147.667 -499 443 -499zM263 713c0 484.667 239.332 727 717.999 727c471.333 0 707 -242.333 707 -727
c0 -482 -235.667 -723 -707 -723c-457.333 0 -696.666 241 -717.999 723z" />
    <glyph glyph-name="Upsilontonos" unicode="&#x38e;" horiz-adv-x="1713" 
d="M94 1430h319l-239 -259h-224zM438 1430h285l402 -689l378 689h275l-526 -930v-500h-265v500z" />
    <glyph glyph-name="Omegatonos" unicode="&#x38f;" horiz-adv-x="1773" 
d="M94 1430h319l-239 -259h-224zM298 0v230h265c-186.667 126.667 -280 316.667 -280 570c0 433.333 228.333 650 685 650s685 -216.667 685 -650c0 -253.333 -93.333 -443.333 -280 -570h265v-230h-550v230c200 126.667 300 316.667 300 570c0 280 -140 420 -420 420
s-420 -140 -420 -420c0 -253.333 100 -443.333 300 -570v-230h-550z" />
    <glyph glyph-name="iotadieresistonos" unicode="&#x390;" 
d="M415 1050v-1050h-265v1050h265zM755 1430v-190h-215v190h215zM25 1430v-190h-215v190h215zM184 1430h319l-239 -259h-224z" />
    <glyph glyph-name="Alpha" unicode="&#x391;" horiz-adv-x="1562" 
d="M297 0h-272l607 1430h285l620 -1430h-285l-163 390h-475l91 230h288l-225 537z" />
    <glyph glyph-name="Beta" unicode="&#x392;" horiz-adv-x="1321" 
d="M150 0v1430h670c272 0 408 -111 408 -333c0 -162.667 -88.667 -279 -266 -349c189.333 -35.333 284 -143.666 284 -324.999c0 -282 -149 -423 -447 -423h-649zM788 229.999c117.333 0 176 60 176 180c0 148.667 -87.667 223 -263 223h-80v171
c220 36.667 330 128.667 330 276c0 80 -49.333 120 -148 120h-388v-970h373z" />
    <glyph glyph-name="Gamma" unicode="&#x393;" horiz-adv-x="1083" 
d="M150 0v1430h933v-230h-668v-1200h-265z" />
    <glyph glyph-name="Delta" unicode="&#x394;" horiz-adv-x="1562" 
d="M391 230h765l-388 927zM25 0l607 1430h285l620 -1430h-1512z" />
    <glyph glyph-name="Delta" unicode="&#x2206;" horiz-adv-x="1562" 
d="M391 230h765l-388 927zM25 0l607 1430h285l620 -1430h-1512z" />
    <glyph glyph-name="Epsilon" unicode="&#x395;" horiz-adv-x="1238" 
d="M1129 1430v-228h-716v-360h682v-237h-685v-375h733v-230h-993v1430h979z" />
    <glyph glyph-name="Zeta" unicode="&#x396;" horiz-adv-x="1250" 
d="M1185 1430v-230l-761 -970h761v-230h-1060v230l794 970h-774v230h1040z" />
    <glyph glyph-name="Eta" unicode="&#x397;" horiz-adv-x="1535" 
d="M150 0v1430h265v-590h705v590h265v-1430h-265v610h-705v-610h-265z" />
    <glyph glyph-name="Theta" unicode="&#x398;" horiz-adv-x="1665" 
d="M838 220c288 0 432 166.333 432 499c0 327.333 -144 491 -432 491c-295.333 0 -443 -163.667 -443 -491c0 -332.667 147.667 -499 443 -499zM120 713c0 484.667 239.333 727 718 727c471.333 0 707 -242.333 707 -727c0 -482 -235.667 -723 -707 -723
c-478.667 0 -718 241 -718 723zM523 853h615v-230h-615v230z" />
    <glyph glyph-name="Iota" unicode="&#x399;" 
d="M415 1430v-1430h-265v1430h265z" />
    <glyph glyph-name="Kappa" unicode="&#x39a;" horiz-adv-x="1435" 
d="M415 1430v-1430h-265v1430h265zM1421 1430l-610 -667l674 -763h-367l-553 668v172l532 590h324z" />
    <glyph glyph-name="Lambda" unicode="&#x39b;" horiz-adv-x="1562" 
d="M768 1157l-471 -1157h-272l607 1430h285l620 -1430h-285z" />
    <glyph glyph-name="Mu" unicode="&#x39c;" horiz-adv-x="1800" 
d="M150 0v1430h275l485 -1085l475 1085h265v-1430h-245v996l-388 -996h-226l-396 996v-996h-245z" />
    <glyph glyph-name="Nu" unicode="&#x39d;" horiz-adv-x="1575" 
d="M150 0v1430h265l755 -1042v1042h255v-1430h-265l-755 1064v-1064h-255z" />
    <glyph glyph-name="Xi" unicode="&#x39e;" horiz-adv-x="1196" 
d="M100 240h996v-240h-996v240zM100 1430h996v-240h-996v240zM160 853h876v-240h-876v240z" />
    <glyph glyph-name="Omicron" unicode="&#x39f;" horiz-adv-x="1625" 
d="M818 220c288 0 432 166.333 432 499c0 327.333 -144 491 -432 491c-295.333 0 -443 -163.667 -443 -491c0 -332.667 147.667 -499 443 -499zM100 713c0 484.667 239.332 727 717.999 727c471.333 0 707 -242.333 707 -727c0 -482 -235.667 -723 -707 -723
c-457.333 0 -696.666 241 -717.999 723z" />
    <glyph glyph-name="Pi" unicode="&#x3a0;" horiz-adv-x="1565" 
d="M150 0v1430h1265v-1430h-265v1200h-735v-1200h-265z" />
    <glyph glyph-name="Rho" unicode="&#x3a1;" horiz-adv-x="1253" 
d="M150 0v1430h640c292 0 438 -134.333 438 -403c0 -291.333 -199.667 -467.666 -599 -528.999l-38 236c240 43.333 360 138.333 360 285c0 118.667 -59.333 178 -178 178h-358v-1197h-265z" />
    <glyph glyph-name="Sigma" unicode="&#x3a3;" horiz-adv-x="1200" 
d="M100 1430h1000v-230h-700l420 -450l-420 -520h700v-230h-1000v230l415 520l-415 450v230z" />
    <glyph glyph-name="Tau" unicode="&#x3a4;" horiz-adv-x="1085" 
d="M1085 1430v-230h-410v-1200h-265v1200h-410v230h1085z" />
    <glyph glyph-name="Upsilon" unicode="&#x3a5;" horiz-adv-x="1300" 
d="M25 1430h285l402 -689l378 689h275l-526 -930v-500h-265v500z" />
    <glyph glyph-name="Phi" unicode="&#x3a6;" horiz-adv-x="1724" 
d="M730 113c-420 24.667 -630 224.668 -630 600.001c0 378 210 579.333 630 604v113h264v-112c420 -22.667 630 -224.334 630 -605.001c0 -378.667 -210 -579 -630 -601v-112h-264v113zM730 344.001v742c-237.333 -24 -356 -146.333 -356 -367
c0 -225.333 118.667 -350.333 356 -375zM994 1087v-744c237.333 22.667 356 148 356 376c0 223.333 -118.667 346 -356 368z" />
    <glyph glyph-name="Chi" unicode="&#x3a7;" horiz-adv-x="1502" 
d="M588 715l-563 715h335l395 -522l395 522h335l-562 -715l562 -715h-335l-395 522l-395 -522h-335z" />
    <glyph glyph-name="Psi" unicode="&#x3a8;" horiz-adv-x="1650" 
d="M693 619v811h264v-811c218.667 33.333 328 156.333 328 369v442h265v-442c0 -366.667 -197.667 -567.334 -593 -602.001v-386h-264v386c-395.333 34.667 -593 235.334 -593 602.001v442h265v-442c0 -212.667 109.333 -335.667 328 -369z" />
    <glyph glyph-name="Omega" unicode="&#x3a9;" horiz-adv-x="1610" 
d="M135 0v230h265c-186.667 126.667 -280 316.667 -280 570c0 433.333 228.333 650 685 650s685 -216.667 685 -650c0 -253.333 -93.333 -443.333 -280 -570h265v-230h-550v230c200 126.667 300 316.667 300 570c0 280 -140 420 -420 420s-420 -140 -420 -420
c0 -253.333 100 -443.333 300 -570v-230h-550z" />
    <glyph glyph-name="Omega" unicode="&#x2126;" horiz-adv-x="1610" 
d="M135 0v230h265c-186.667 126.667 -280 316.667 -280 570c0 433.333 228.333 650 685 650s685 -216.667 685 -650c0 -253.333 -93.333 -443.333 -280 -570h265v-230h-550v230c200 126.667 300 316.667 300 570c0 280 -140 420 -420 420s-420 -140 -420 -420
c0 -253.333 100 -443.333 300 -570v-230h-550z" />
    <glyph glyph-name="Iotadieresis" unicode="&#x3aa;" 
d="M415 1430v-1430h-265v1430h265zM560 1810v-190h-215v190h215zM220 1810v-190h-215v190h215z" />
    <glyph glyph-name="Upsilondieresis" unicode="&#x3ab;" horiz-adv-x="1300" 
d="M25 1430h285l402 -689l378 689h275l-526 -930v-500h-265v500zM973 1810v-190h-215v190h215zM633 1810v-190h-215v190h215z" />
    <glyph glyph-name="alphatonos" unicode="&#x3ac;" horiz-adv-x="1379" 
d="M60 525c0 350 163.333 525 490 525c207.333 0 348.666 -88 423.999 -264l88 264h267l-178 -528l164 -522h-270l-86 290c-84 -193.333 -220.333 -290 -409 -290c-325.333 0 -488.666 175 -489.999 525zM550 210c130 0 231.667 106.333 305 319
c-73.333 207.333 -175 311 -305 311c-150 0 -225 -103.667 -225 -311c0 -212.667 75 -319 225 -319zM684 1430h319l-239 -259h-224z" />
    <glyph glyph-name="epsilontonos" unicode="&#x3ad;" horiz-adv-x="915" 
d="M840 790c-100 40 -206.667 59.999 -320 59.999s-170 -34 -170 -102c0 -65.333 68.333 -98 205 -98h195v-210h-198c-141.333 0 -212 -40 -212 -120s60 -120 180 -120c113.333 0 220 20 320 60v-220c-100 -33.333 -206.667 -50 -320 -50c-296.667 0 -445 100 -445 300
c0 133.333 76 218.333 228 255c-145.333 32.667 -218 110.334 -218 233.001c0 188 148.333 282 445 282c106.667 0 210 -16.667 310 -50v-220zM447 1430h319l-239 -259h-224z" />
    <glyph glyph-name="etatonos" unicode="&#x3ae;" horiz-adv-x="1235" 
d="M125 0l-0.000976562 1050h205l33 -154c100.667 102.667 215.334 154 344.001 154c268.667 0 403 -129.333 403 -388v-1042h-265v1042c0 116 -64.333 174 -193 174c-92.667 0 -180 -34.333 -262 -103v-733h-265zM606.999 1430h319l-239 -259h-224z" />
    <glyph glyph-name="iotatonos" unicode="&#x3af;" 
d="M415 1050v-1050h-265v1050h265zM272 1430h319l-239 -259h-224z" />
    <glyph glyph-name="upsilondieresistonos" unicode="&#x3b0;" horiz-adv-x="1210" 
d="M110 428v622h265v-622c0 -158.667 76.667 -238 230 -238s230 79.333 230 238v622h265v-622c0 -298.667 -165 -448 -495 -448s-495 149.333 -495 448zM1078 1430v-190h-215v190h215zM348 1430v-190h-215v190h215zM507 1430h319l-239 -259h-224z" />
    <glyph glyph-name="alpha" unicode="&#x3b1;" horiz-adv-x="1379" 
d="M60 525c0 350 163.333 525 490 525c207.333 0 348.666 -88 423.999 -264l88 264h267l-178 -528l164 -522h-270l-86 290c-84 -193.333 -220.333 -290 -409 -290c-325.333 0 -488.666 175 -489.999 525zM550 210c130 0 231.667 106.333 305 319
c-73.333 207.333 -175 311 -305 311c-150 0 -225 -103.667 -225 -311c0 -212.667 75 -319 225 -319z" />
    <glyph glyph-name="beta" unicode="&#x3b2;" horiz-adv-x="1291" 
d="M125 -362l0.00195312 1233c0 372.667 191.333 559 574 559c300 0 450 -125.333 450 -376c0 -154.667 -110.333 -253 -331 -295c265.333 -24.667 398 -150.667 398 -378c0 -255.333 -164.667 -383 -494 -383c-90.667 0 -171.334 20 -242.001 60v210
c71.333 -40 152.666 -60 243.999 -60c151.333 0 227 57.667 227 173c0 178.667 -123.667 268.334 -371 269.001v178c212 36 318 111.333 318 226c0 110.667 -72 166 -216 166c-194.667 0 -292 -117.333 -292 -352v-1230h-265z" />
    <glyph glyph-name="gamma" unicode="&#x3b3;" horiz-adv-x="1090" 
d="M25 1050h275l242 -777l248 777h275l-396 -1050v-380h-265v380z" />
    <glyph glyph-name="delta" unicode="&#x3b4;" horiz-adv-x="1200" 
d="M593 -10c-355.333 0 -533 180.001 -533 540.001c0 326.667 171.667 490 515 490c-103.333 95.333 -237 162 -401 200v210h865v-210h-467c370 -176.667 559.333 -403.334 568 -680.001c0 -366.667 -182.333 -550 -547 -550zM875 536.001c0 196 -94 294 -282 294
c-181.333 0 -272 -100 -272 -300c0 -220 91 -330 273 -330c187.333 0 281 112 281 336z" />
    <glyph glyph-name="epsilon" unicode="&#x3b5;" horiz-adv-x="915" 
d="M840 790c-100 40 -206.667 59.999 -320 59.999s-170 -34 -170 -102c0 -65.333 68.333 -98 205 -98h195v-210h-198c-141.333 0 -212 -40 -212 -120s60 -120 180 -120c113.333 0 220 20 320 60v-220c-100 -33.333 -206.667 -50 -320 -50c-296.667 0 -445 100 -445 300
c0 133.333 76 218.333 228 255c-145.333 32.667 -218 110.334 -218 233.001c0 188 148.333 282 445 282c106.667 0 210 -16.667 310 -50v-220z" />
    <glyph glyph-name="zeta" unicode="&#x3b6;" horiz-adv-x="1058" 
d="M303 1430h730v-210c-448.667 -248.667 -673 -515 -673 -799c0 -140.667 69.333 -211 208 -211h121c222.667 0 334 -84.333 334 -253c0 -157.333 -133 -276.333 -399 -357l-100 178c164 59.333 246 108.333 246 147c0 50 -25.333 75 -76 75h-121
c-315.333 0 -473 139 -473 417c0 299.333 203.667 567 611 803h-408v210z" />
    <glyph glyph-name="eta" unicode="&#x3b7;" horiz-adv-x="1235" 
d="M125 0l-0.000976562 1050h205l33 -154c100.667 102.667 215.334 154 344.001 154c268.667 0 403 -129.333 403 -388v-1042h-265v1042c0 116 -64.333 174 -193 174c-92.667 0 -180 -34.333 -262 -103v-733h-265z" />
    <glyph glyph-name="theta" unicode="&#x3b8;" horiz-adv-x="1245" 
d="M357 640c13.333 -293.333 103.666 -440 270.999 -440c160.667 0 247.334 146.667 260.001 440h-531zM885 850c-20.667 253.333 -106.333 380 -257 380c-156.667 0 -246 -126.667 -268 -380h525zM80.001 713c0 484.667 182.667 727 548 727c358 0 537 -242.333 537 -727
c0 -482 -179 -723 -537 -723c-365.333 0 -548 241 -548 723z" />
    <glyph glyph-name="iota" unicode="&#x3b9;" 
d="M415 1050v-1050h-265v1050h265z" />
    <glyph glyph-name="kappa" unicode="&#x3ba;" horiz-adv-x="1142" 
d="M1151 1050l-420 -474l436 -576h-337l-354 505v103l357 442h318zM125 0v1050h265v-1050h-265z" />
    <glyph glyph-name="lambda" unicode="&#x3bb;" horiz-adv-x="1081" 
d="M402 1056c-53.333 116 -138.667 199.668 -256 251.001l128 181c170 -80.667 293.667 -216.334 371 -407.001l436 -1081h-286l-269 756l-255 -756h-271z" />
    <glyph glyph-name="nu" unicode="&#x3bd;" horiz-adv-x="1080" 
d="M0 1050h280l255 -734l265 734h280l-427 -1050h-252z" />
    <glyph glyph-name="xi" unicode="&#x3be;" horiz-adv-x="1048" 
d="M616 1430h304v-210h-303c-108 0 -162 -44.667 -162 -134s54.333 -134 163 -134h292v-210h-282c-178.667 0 -268 -100.333 -268 -301c0 -154 59.333 -231 178 -231h141c229.333 0 344 -94.333 344 -283c0 -137.333 -133 -246.333 -399 -327l-110 178
c170.667 59.333 256 108.333 256 147c0 50 -28.667 75 -86 75h-141c-295.333 0 -443 145.667 -443 437c0 208 89.667 345 269 411c-119.333 36 -179 127.333 -179 274c0 205.333 142 308 426 308z" />
    <glyph glyph-name="omicron" unicode="&#x3bf;" horiz-adv-x="1200" 
d="M600 210c183.333 0 275 106.333 275 319c0 207.333 -91.667 311 -275 311s-275 -103.667 -275 -311c0 -212.667 91.667 -319 275 -319zM60 525c0 350 180 525 540 525s540 -175 540 -525c0 -349.333 -180 -524 -540 -524c-358.667 0 -538.667 174.667 -540 524z" />
    <glyph glyph-name="pi" unicode="&#x3c0;" horiz-adv-x="1440" 
d="M0 990c93.333 40 189.997 60 289.997 60h1090v-210h-245v-520c0 -74.667 54.667 -112 164 -112c12.667 0 26.334 0.666992 41.001 2v-210c-33.333 -3.33301 -64.666 -5 -93.999 -5c-250.667 0 -376 108.333 -376 325v520h-355v-841h-265v841
c-73.333 0 -156.666 -20 -249.999 -60v210z" />
    <glyph glyph-name="rho" unicode="&#x3c1;" horiz-adv-x="1197" 
d="M345 284c52.667 -42.667 127 -64 223 -64c204.667 0 307 110 307 330c0 190.667 -91.667 286 -275 286c-170 0 -255 -95.333 -255 -286v-266zM602 1050c356.667 0 535.001 -166.667 535.001 -500c0 -366.667 -189.333 -550 -568 -550c-90.667 0 -165.334 20 -224.001 60
v-440h-265v930c0 333.333 174 500 522 500z" />
    <glyph glyph-name="sigma1" unicode="&#x3c2;" horiz-adv-x="988" 
d="M914 790c-101.333 33.333 -196.333 49.999 -285 49.999c-206 0 -309 -93 -309 -279c0 -115.333 51.667 -190.666 155 -225.999l138 -46c226.667 -69.333 340 -184 340 -344c0 -216.667 -160 -325 -480 -325v210c144.667 0 217 37 217 111
c0 57.333 -33.667 97.333 -101 120l-180 62c-232.667 65.333 -349 210 -349 434c0 328.667 189.667 493 569 493c88.667 0 183.667 -16.667 285 -50v-210z" />
    <glyph glyph-name="sigma" unicode="&#x3c3;" horiz-adv-x="1267" 
d="M600 210c183.333 0 275 106.333 275 319c0 207.333 -88.333 311 -265 311c-190 0 -285 -103.667 -285 -311c0 -212.667 91.667 -319 275 -319zM60 525c0 350 183.333 525 550 525h657v-210h-261c89.333 -66 134 -171 134 -315c0 -349.333 -180 -524 -540 -524
c-358.667 0 -538.667 174.667 -540 524z" />
    <glyph glyph-name="tau" unicode="&#x3c4;" horiz-adv-x="824" 
d="M0 1050h774v-210h-275v-470c0 -107.333 63.667 -161 191 -161c10.667 0 22 0.333008 34 1v-210c-30.667 -2.66699 -60 -4 -88 -4c-268 0 -402 124.667 -402 374v470h-234v210z" />
    <glyph glyph-name="upsilon" unicode="&#x3c5;" horiz-adv-x="1210" 
d="M110 428v622h265v-622c0 -158.667 76.667 -238 230 -238s230 79.333 230 238v622h265v-622c0 -298.667 -165 -448 -495 -448s-495 149.333 -495 448z" />
    <glyph glyph-name="phi" unicode="&#x3c6;" horiz-adv-x="1585" 
d="M240 1050h285c-133.333 -150 -200 -316.667 -200 -500c0 -226.667 108.333 -346.667 325 -360v465c0 263.333 144.667 395 434 395c294 0 441 -166.667 441 -500c0 -366.667 -203.333 -556.667 -610 -570v-360h-265v360c-393.333 13.333 -590 203.333 -590 570
c0 183.333 60 350 180 500zM1260 550c0 193.333 -57.667 290 -173 290c-114.667 0 -172 -61.667 -172 -185v-465c230 13.333 345 133.333 345 360z" />
    <glyph glyph-name="chi" unicode="&#x3c7;" horiz-adv-x="1180" 
d="M448 335l-423 715h285l280 -494l280 494h275l-417 -707l427 -723h-285l-285 502l-285 -502h-275z" />
    <glyph glyph-name="psi" unicode="&#x3c8;" horiz-adv-x="1630" 
d="M682 199v851h266v-851c211.333 31.333 317 144.333 317 339v512h265v-512c0 -335.333 -194 -519.666 -582 -552.999v-365h-266v365c-388 33.333 -582 217.666 -582 552.999v512h265v-512c0 -194.667 105.667 -307.667 317 -339z" />
    <glyph glyph-name="omega" unicode="&#x3c9;" horiz-adv-x="1585" 
d="M205 1050h265.001c-86.667 -150 -130 -316.667 -130 -500c0 -213.333 45 -320 135 -320c123.333 0 185 198.333 185 595h265c0 -396.667 61.667 -595 185 -595c90 0 135 106.667 135 320c0 183.333 -43.333 350 -130 500h265c86.667 -150 130 -316.667 130 -500
c0 -366.667 -133.333 -550 -400 -550c-156.667 -0 -263.334 96.333 -320.001 289c-53.333 -192.667 -158.333 -289 -315 -289c-266.667 -0 -400 183.333 -400 550c0 183.333 43.333 350 130 500z" />
    <glyph glyph-name="iotadieresis" unicode="&#x3ca;" 
d="M415 1050v-1050h-265v1050h265zM560 1430v-190h-215v190h215zM220 1430v-190h-215v190h215z" />
    <glyph glyph-name="upsilondieresis" unicode="&#x3cb;" horiz-adv-x="1210" 
d="M110 428v622h265v-622c0 -158.667 76.667 -238 230 -238s230 79.333 230 238v622h265v-622c0 -298.667 -165 -448 -495 -448s-495 149.333 -495 448zM883 1430v-190h-215v190h215zM543 1430v-190h-215v190h215z" />
    <glyph glyph-name="omicrontonos" unicode="&#x3cc;" horiz-adv-x="1200" 
d="M600 210c183.333 0 275 106.333 275 319c0 207.333 -91.667 311 -275 311s-275 -103.667 -275 -311c0 -212.667 91.667 -319 275 -319zM60 525c0 350 180 525 540 525s540 -175 540 -525c0 -349.333 -180 -524 -540 -524c-358.667 0 -538.667 174.667 -540 524zM590 1430
h319l-239 -259h-224z" />
    <glyph glyph-name="upsilontonos" unicode="&#x3cd;" horiz-adv-x="1210" 
d="M110 428v622h265v-622c0 -158.667 76.667 -238 230 -238s230 79.333 230 238v622h265v-622c0 -298.667 -165 -448 -495 -448s-495 149.333 -495 448zM595 1430h319l-239 -259h-224z" />
    <glyph glyph-name="omegatonos" unicode="&#x3ce;" horiz-adv-x="1585" 
d="M205 1050h265.001c-86.667 -150 -130 -316.667 -130 -500c0 -213.333 45 -320 135 -320c123.333 0 185 198.333 185 595h265c0 -396.667 61.667 -595 185 -595c90 0 135 106.667 135 320c0 183.333 -43.333 350 -130 500h265c86.667 -150 130 -316.667 130 -500
c0 -366.667 -133.333 -550 -400 -550c-156.667 -0 -263.334 96.333 -320.001 289c-53.333 -192.667 -158.333 -289 -315 -289c-266.667 -0 -400 183.333 -400 550c0 183.333 43.333 350 130 500zM782.001 1430h319l-239 -259h-224z" />
    <glyph glyph-name="afii10023" unicode="&#x401;" horiz-adv-x="1238" 
d="M1129 1430v-228h-716v-360h682v-237h-685v-375h733v-230h-993v1430h979zM914 1810v-190h-215v190h215zM574 1810v-190h-215v190h215z" />
    <glyph glyph-name="afii10017" unicode="&#x410;" horiz-adv-x="1562" 
d="M297 0h-272l607 1430h285l620 -1430h-285l-163 390h-475l91 230h288l-225 537z" />
    <glyph glyph-name="afii10018" unicode="&#x411;" horiz-adv-x="1291" 
d="M1151 1430v-230h-735v-967h327c138.667 0 208 56.333 208 169c0 125.333 -87.333 188 -262 188h-108v230h117c345.333 0 518 -135.667 518 -407c0 -275.333 -152 -413 -456 -413h-610v1430h1001z" />
    <glyph glyph-name="afii10019" unicode="&#x412;" horiz-adv-x="1321" 
d="M150 0v1430h670c272 0 408 -111 408 -333c0 -162.667 -88.667 -279 -266 -349c189.333 -35.333 284 -143.666 284 -324.999c0 -282 -149 -423 -447 -423h-649zM788 229.999c117.333 0 176 60 176 180c0 148.667 -87.667 223 -263 223h-80v171
c220 36.667 330 128.667 330 276c0 80 -49.333 120 -148 120h-388v-970h373z" />
    <glyph glyph-name="afii10020" unicode="&#x413;" horiz-adv-x="1083" 
d="M150 0v1430h933v-230h-668v-1200h-265z" />
    <glyph glyph-name="afii10021" unicode="&#x414;" horiz-adv-x="1779" 
d="M578 230h676v970h-390c0 -532.667 -95.333 -856 -286 -970zM0 -380v610h184c276.667 0 415 323.333 415 970v230h920v-1200h185v-610h-265v380h-1175v-380h-264z" />
    <glyph glyph-name="afii10022" unicode="&#x415;" horiz-adv-x="1238" 
d="M1129 1430v-228h-716v-360h682v-237h-685v-375h733v-230h-993v1430h979z" />
    <glyph glyph-name="afii10024" unicode="&#x416;" horiz-adv-x="2209" 
d="M25 0c217.333 380 354.503 597.667 411.503 653s111.5 90.333 163.5 105c-108 26 -192.167 109.5 -252.5 250.5s-126.5 211.5 -198.5 211.5h-79v210h107c185.333 0 319.166 -97.333 401.499 -292s170.166 -292 263.499 -292v-193c-52 0 -100.833 -24 -146.5 -72
s-157.834 -241.667 -336.501 -581h-334zM1237 1430v-1430h-265v1430h265zM1850 0c-178.667 339.333 -290.831 533 -336.498 581s-94.5 72 -146.5 72v193c93.333 0 181.166 97.333 263.499 292s216.166 292 401.499 292h107v-210h-79c-72 0 -138.167 -70.5 -198.5 -211.5
s-144.5 -224.5 -252.5 -250.5c52 -14.667 106.5 -49.667 163.5 -105s194.167 -273 411.5 -653h-334z" />
    <glyph glyph-name="afii10025" unicode="&#x417;" horiz-adv-x="1115" 
d="M100 1380c133.333 40 273.333 59.999 420 59.999c356.667 0 535 -130 535 -390c0 -157.333 -62.667 -265.666 -188 -324.999c125.333 -56.667 188 -165 188 -325c0 -273.333 -178.333 -410 -535 -410c-146.667 0 -286.667 20 -420 60v240
c133.333 -46.667 273.333 -70 420 -70c180 0 270 60 270 180c0 140 -64 210 -192 210h-348v230h345c130 0 195 70 195 210c0 106.667 -90 160 -270 160c-146.667 0 -286.667 -23.333 -420 -70v240z" />
    <glyph glyph-name="afii10026" unicode="&#x418;" horiz-adv-x="1485" 
d="M1080 0v1028l-675 -1028h-255v1430h255v-1041l675 1041h255v-1430h-255z" />
    <glyph glyph-name="afii10027" unicode="&#x419;" horiz-adv-x="1485" 
d="M450 1784h175c0 -93.333 40 -140 120 -140s120 46.667 120 140h175c0 -193.333 -98.333 -290 -295 -290s-295 96.667 -295 290zM1080 0v1008l-665 -1008h-265v1430h255v-1041l665 1041h265v-1430h-255z" />
    <glyph glyph-name="afii10028" unicode="&#x41a;" horiz-adv-x="1387" 
d="M415 1430v-1430h-265v1430h265zM1028 0c-178.667 339.333 -290.831 533 -336.498 581s-94.5 72 -146.5 72v193c93.333 0 181.166 97.333 263.499 292s216.166 292 401.499 292h107v-210h-79c-72 0 -138.167 -70.5 -198.5 -211.5s-144.5 -224.5 -252.5 -250.5
c52 -14.667 106.5 -49.667 163.5 -105s194.167 -273 411.5 -653h-334z" />
    <glyph glyph-name="afii10029" unicode="&#x41b;" horiz-adv-x="1514" 
d="M0 210c229.333 0 344 162.333 344 487v733h1020v-1430h-265v1200h-490v-503c0 -464.667 -203 -697 -609 -697v210z" />
    <glyph glyph-name="afii10030" unicode="&#x41c;" horiz-adv-x="1800" 
d="M150 0v1430h275l485 -1085l475 1085h265v-1430h-245v996l-388 -996h-226l-396 996v-996h-245z" />
    <glyph glyph-name="afii10031" unicode="&#x41d;" horiz-adv-x="1565" 
d="M150 0v1430h265v-580h735v580h265v-1430h-265v620h-735v-620h-265z" />
    <glyph glyph-name="afii10032" unicode="&#x41e;" horiz-adv-x="1625" 
d="M818 220c288 0 432 166.333 432 499c0 327.333 -144 491 -432 491c-295.333 0 -443 -163.667 -443 -491c0 -332.667 147.667 -499 443 -499zM100 713c0 484.667 239.332 727 717.999 727c471.333 0 707 -242.333 707 -727c0 -482 -235.667 -723 -707 -723
c-457.333 0 -696.666 241 -717.999 723z" />
    <glyph glyph-name="afii10033" unicode="&#x41f;" horiz-adv-x="1565" 
d="M150 0v1430h1265v-1430h-265v1200h-735v-1200h-265z" />
    <glyph glyph-name="afii10034" unicode="&#x420;" horiz-adv-x="1253" 
d="M150 0v1430h640c292 0 438 -134.333 438 -403c0 -291.333 -199.667 -467.666 -599 -528.999l-38 236c240 43.333 360 138.333 360 285c0 118.667 -59.333 178 -178 178h-358v-1197h-265z" />
    <glyph glyph-name="afii10035" unicode="&#x421;" horiz-adv-x="1390" 
d="M1290 60c-123.333 -46.667 -263.333 -70 -420 -70c-513.333 0 -770 248.333 -770 745c0 470 256.667 705 770 705c156.667 0 296.667 -23.333 420 -70v-240c-123.333 53.333 -256.666 80 -399.999 80c-343.333 0 -515 -158.333 -515 -475
c0 -343.333 171.667 -515 515 -515c143.333 0 276.666 26.667 399.999 80v-240z" />
    <glyph glyph-name="afii10036" unicode="&#x422;" horiz-adv-x="1085" 
d="M1085 1430v-230h-410v-1200h-265v1200h-410v230h1085z" />
    <glyph glyph-name="afii10037" unicode="&#x423;" horiz-adv-x="1307" 
d="M1282 1430l-493.001 -1162c-76 -178.667 -205.667 -268 -389 -268c-85.333 -0 -164 23.333 -236 70v210c70.667 -46.667 148.334 -70 233.001 -70c89.333 0 146.333 35.333 171 106l-518 1114h284l355 -830l309 830h284z" />
    <glyph glyph-name="afii10038" unicode="&#x424;" horiz-adv-x="1724" 
d="M730 113c-420 24.667 -630 224.668 -630 600.001c0 378 210 579.333 630 604v113h264v-112c420 -22.667 630 -224.334 630 -605.001c0 -378.667 -210 -579 -630 -601v-112h-264v113zM730 344.001v742c-237.333 -24 -356 -146.333 -356 -367
c0 -225.333 118.667 -350.333 356 -375zM994 1087v-744c237.333 22.667 356 148 356 376c0 223.333 -118.667 346 -356 368z" />
    <glyph glyph-name="afii10039" unicode="&#x425;" horiz-adv-x="1502" 
d="M588 715l-563 715h335l395 -522l395 522h335l-562 -715l562 -715h-335l-395 522l-395 -522h-335z" />
    <glyph glyph-name="afii10040" unicode="&#x426;" horiz-adv-x="1547" 
d="M150 0v1430h265v-1200h662v1200h265v-1200h185v-610h-265v380h-1112z" />
    <glyph glyph-name="afii10041" unicode="&#x427;" horiz-adv-x="1388" 
d="M1318 1430l-0.000976562 -1430h-265v584c-130.667 -76 -273.667 -114 -429 -114c-332.667 0 -499 173.667 -499 521v439h265v-442c0 -189.333 86.333 -284 259 -284c152.667 0 287.334 44.333 404.001 133v593h265z" />
    <glyph glyph-name="afii10042" unicode="&#x428;" horiz-adv-x="1995" 
d="M150 0v1430h265v-1200h450v1200h265v-1200h450v1200h265v-1430h-1695z" />
    <glyph glyph-name="afii10043" unicode="&#x429;" horiz-adv-x="2105" 
d="M150 0v1430h265v-1200h450v1200h265v-1200h450v1200h265v-1200h185v-610h-265v380h-1615z" />
    <glyph glyph-name="afii10044" unicode="&#x42a;" horiz-adv-x="1710" 
d="M767 1430v-1197h408c105.333 0 158 56.333 158 169c0 125.333 -70.667 188 -212 188h-188v230h198c319.333 0 479 -135.667 479 -407c0 -275.333 -139.333 -413 -418 -413h-690v1200h-502v230h767z" />
    <glyph glyph-name="afii10045" unicode="&#x42b;" horiz-adv-x="1715" 
d="M415 1430v-1197h408c105.333 0 158 56.333 158 169c0 125.333 -70.667 188 -212 188h-188v230h198c319.333 0 479 -135.667 479 -407c0 -275.333 -139.333 -413 -418 -413h-690v1430h265zM1380 0v1430h265v-1430h-265z" />
    <glyph glyph-name="afii10046" unicode="&#x42c;" horiz-adv-x="1278" 
d="M415 1430v-1197h408c105.333 0 158 56.333 158 169c0 125.333 -70.667 188 -212 188h-188v230h197c320 0 480 -135.667 480 -407c0 -275.333 -139.333 -413 -418 -413h-690v1430h265z" />
    <glyph glyph-name="afii10047" unicode="&#x42d;" horiz-adv-x="1375" 
d="M125 290c123.333 -46.667 249.999 -70 379.999 -70c308 0 472 130 492 390h-800v230h801c-15.333 246.667 -179.666 370 -492.999 370c-130 0 -256.667 -23.333 -380 -70v240c123.333 40 256.666 60 399.999 60c500 0 750 -235 750 -705c0 -496.667 -250 -745 -750 -745
c-143.333 0 -276.666 20 -399.999 60v240z" />
    <glyph glyph-name="afii10048" unicode="&#x42e;" horiz-adv-x="2002" 
d="M150 0v1430h264v-590h245c36 400 244.667 600 626 600c411.333 0 617 -242.333 617 -727c0 -482 -205.667 -723 -617 -723c-388 0 -597 206.667 -627 620h-244v-610h-264zM1285 220c228 0 342 166.333 342 499c0 327.333 -114 491 -342 491
c-235.333 0 -353 -163.667 -353 -491c0 -332.667 117.667 -499 353 -499z" />
    <glyph glyph-name="afii10049" unicode="&#x42f;" horiz-adv-x="1375" 
d="M955 2v1195h-353c-125.333 0 -188 -56 -188 -168c0 -146.667 130 -241.667 390 -285v-121l-435 -623h-344l453 618c-227.333 100 -341 236.333 -341 409c0 268.667 156 403 468 403h620v-1428h-270z" />
    <glyph glyph-name="afii10065" unicode="&#x430;" horiz-adv-x="1135" 
d="M75 327c0 208.667 152.001 313 456.001 313c71.333 0 142.666 -6.66699 213.999 -20v79c0 94 -67.667 141 -203 141c-114.667 0 -242 -16.667 -382 -50v210c140 33.333 267.333 50 382 50c312 0 468 -115.333 468 -346v-704h-154l-94 94
c-91.333 -62.667 -192 -94 -302 -94c-256.667 0 -385 109 -385 327zM531.001 460c-127.333 0 -191 -43.333 -191 -130c0 -93.333 53.333 -140 160 -140c88 0 169.667 27.333 245 82v168c-66.667 13.333 -138 20 -214 20z" />
    <glyph glyph-name="afii10066" unicode="&#x431;" horiz-adv-x="1271" 
d="M1196 520c0 -353.333 -186 -530 -558 -530c-375.333 0 -563 176.667 -563 530v325c0 390 208 585 624 585c194.667 0 349 36.333 463 109v-223c-102 -64 -257.333 -96 -466 -96c-234 0 -351 -109.333 -351 -328c81.333 105.333 196.333 158 345 158
c337.333 0 506 -169.333 506 -508v-22zM638 200c194.667 0 292 106.667 292 320c0 209.333 -94 314 -282 314c-202 0 -303 -104.667 -303 -314c0 -213.333 97.667 -320 293 -320z" />
    <glyph glyph-name="afii10067" unicode="&#x432;" horiz-adv-x="1141" 
d="M125 0v1050h600c232 0 348 -87.667 348 -263c0 -108.667 -65.333 -189.334 -196 -242.001c142.667 -35.333 214 -121.333 214 -258c0 -191.333 -129 -287 -387 -287h-579zM663 210.001c104 0 156 37.667 156 113c0 71.333 -47.667 107 -143 107h-110v181
c160 23.333 240 73 240 149c0 53.333 -29.333 80 -88 80h-328v-630h273z" />
    <glyph glyph-name="afii10068" unicode="&#x433;" horiz-adv-x="823" 
d="M125 0v1050h698v-210h-433v-840h-265z" />
    <glyph glyph-name="afii10069" unicode="&#x434;" horiz-adv-x="1468" 
d="M534 210h449v630h-290c0 -292.667 -53 -502.667 -159 -630zM0 -380v590h184c162.667 0 244 210 244 630v210h820v-840h185v-590h-265v380h-904v-380h-264z" />
    <glyph glyph-name="afii10070" unicode="&#x435;" horiz-adv-x="1105" 
d="M553 1050c318.667 0 478.001 -162.668 478.001 -488.001c0 -43.333 -3 -86.666 -9 -129.999h-697c0 -148 108.667 -222 326 -222c106 0 212 10 318 30v-210c-92.667 -20 -205.334 -30 -338.001 -30c-380.667 0 -571 179 -571 537c0 342 164.333 513 493 513z
M325.001 615.999h448v8c0 145.333 -73.333 218 -220 218c-140 0 -216 -75.333 -228 -226z" />
    <glyph glyph-name="afii10072" unicode="&#x436;" horiz-adv-x="1880" 
d="M25 0l166 263.999c110 175.333 207.667 270 293 284c-63.333 32.667 -115.333 89.334 -156 170.001s-93.667 121 -159 121h-79v216h107c152 0 255.333 -68.167 310 -204.5s119.667 -204.5 195 -204.5v-183c-52 0 -127.333 -72.333 -226 -217l-147 -246h-304zM1071 1057
v-1057h-265v1057h265zM1551 -0.000976562l-147 246.001c-98.667 144.667 -174 217 -226 217v183c75.333 0 140.333 68.167 195 204.5s158 204.5 310 204.5h107v-216h-79c-65.333 0 -118.333 -40.333 -159 -121s-92.667 -137.334 -156 -170.001
c85.333 -14 183 -108.667 293 -284l166 -264h-304z" />
    <glyph glyph-name="afii10073" unicode="&#x437;" horiz-adv-x="885" 
d="M60 1000c133.333 40 250 60.001 350 60.001c276.667 0 415 -97.333 415 -292c0 -102.667 -46 -180.334 -138 -233.001c92 -50 138 -125 138 -225c0 -213.333 -138.333 -320 -415 -320c-100 0 -216.667 20 -350 60v220c133.333 -46.667 250 -70 350 -70
s150 36.667 150 110c0 80 -37.333 120 -112 120h-288v210h285c76.667 0 115 42.667 115 128c0 54.667 -50 82 -150 82s-216.667 -23.333 -350 -70v220z" />
    <glyph glyph-name="afii10074" unicode="&#x438;" horiz-adv-x="1255" 
d="M875 0v706l-485 -706h-265v1050h255v-742l485 742h265v-1050h-255z" />
    <glyph glyph-name="afii10075" unicode="&#x439;" horiz-adv-x="1255" 
d="M875 0v706l-485 -706h-265v1050h255v-742l485 742h265v-1050h-255zM333 1430h175c0 -93.333 40 -140 120 -140s120 46.667 120 140h175c0 -193.333 -98.333 -290 -295 -290s-295 96.667 -295 290z" />
    <glyph glyph-name="afii10076" unicode="&#x43a;" horiz-adv-x="1199" 
d="M390 1057v-1057h-265v1057h265zM870 0l-147 246.001c-98.667 144.667 -174 217 -226 217v183c75.333 0 140.333 68.167 195 204.5s158 204.5 310 204.5h107v-216h-79c-65.333 0 -118.333 -40.333 -159 -121s-92.667 -137.334 -156 -170.001
c85.333 -14 183 -108.667 293 -284l166 -264h-304z" />
    <glyph glyph-name="afii10077" unicode="&#x43b;" horiz-adv-x="1242" 
d="M0 210c158 0 237 70 237 210v630h880v-1050h-265v840h-350v-420c0 -280 -167.333 -420 -502 -420v210z" />
    <glyph glyph-name="afii10078" unicode="&#x43c;" horiz-adv-x="1510" 
d="M125 0v1050h285l355 -717l335 717h285v-1050h-245v640l-308 -640h-146l-316 640v-640h-245z" />
    <glyph glyph-name="afii10079" unicode="&#x43d;" horiz-adv-x="1255" 
d="M125 0v1050h265v-410h475v410h265v-1050h-265v430h-475v-430h-265z" />
    <glyph glyph-name="afii10080" unicode="&#x43e;" horiz-adv-x="1220" 
d="M60 525c0 363.333 183.332 545 549.999 545s550 -181.667 550 -545s-183.333 -545 -550 -545c-365.333 0 -548.666 181.667 -549.999 545zM609.999 190c190 0 285 113 285 339c0 220.667 -95 331 -285 331s-285 -110.333 -285 -331c0 -226 95 -339 285 -339z" />
    <glyph glyph-name="afii10081" unicode="&#x43f;" horiz-adv-x="1255" 
d="M125 0v1050h1005v-1050h-265v840h-475v-840h-265z" />
    <glyph glyph-name="afii10082" unicode="&#x440;" horiz-adv-x="1202" 
d="M390 274c72.667 -36 153.667 -54 243 -54c164.667 0 247 111 247 333c0 188.667 -94 283 -282 283c-88.667 0 -158 -4.66699 -208 -14v-548zM125 1007c139.333 28.667 293.333 43 462 43c370 0 555 -166.333 555 -499c0 -367.333 -169.333 -551 -508 -551
c-84 0 -165.333 16.667 -244 50v-430h-265v1387z" />
    <glyph glyph-name="afii10083" unicode="&#x441;" horiz-adv-x="950" 
d="M900 30c-86.667 -20 -176.667 -30 -270 -30c-373.333 0 -560 181.667 -560 545c0 336.667 186.667 505 560 505c93.333 0 183.333 -10 270 -30v-210c-86.667 20 -170 30 -250 30c-210 0 -315 -98.333 -315 -295c0 -223.333 105 -335 315 -335c80 0 163.333 10 250 30
v-210z" />
    <glyph glyph-name="afii10084" unicode="&#x442;" horiz-adv-x="925" 
d="M925 1050v-210h-330v-840h-265v840h-330v210h925z" />
    <glyph glyph-name="afii10085" unicode="&#x443;" horiz-adv-x="1081" 
d="M0 1050l281.001 0.000976562l265 -756l259 756h276l-436 -1081c-77.333 -190.667 -201 -326.334 -371 -407.001l-128 181c117.333 51.333 202.666 135 255.999 251z" />
    <glyph glyph-name="afii10086" unicode="&#x444;" horiz-adv-x="1644" 
d="M690 -7c-420 22.667 -630 199.333 -630 530c0 333.333 210 511.333 630 534v373h264v-372c420 -20.667 630 -199 630 -535c0 -333.333 -210 -510.333 -630 -531v-372h-264v373zM690 203.999v642c-237.333 -22 -356 -127.667 -356 -317c0 -194 118.667 -302.333 356 -325z
M954 846.999v-644c237.333 20 356 128.667 356 326c0 192 -118.667 298 -356 318z" />
    <glyph glyph-name="afii10087" unicode="&#x445;" horiz-adv-x="1080" 
d="M393 525l-393 525h295l245 -328l245 328h295l-392 -525l392 -525h-295l-245 328l-245 -328h-295z" />
    <glyph glyph-name="afii10088" unicode="&#x446;" horiz-adv-x="1376" 
d="M125 0v1050h265v-840h501v840h265v-840h185v-590h-265v380h-951z" />
    <glyph glyph-name="afii10089" unicode="&#x447;" horiz-adv-x="1248" 
d="M1123 1050l-0.000976562 -1050h-265v384c-97.333 -76 -213.666 -114 -348.999 -114c-272.667 0 -409 147 -409 441v339h265v-342c0 -149.333 56.333 -224 169 -224c132.667 0 240.667 44.333 324 133v433h265z" />
    <glyph glyph-name="afii10090" unicode="&#x448;" horiz-adv-x="1745" 
d="M125 0v1050h265v-840h350v840h265v-840h350v840h265v-1050h-1495z" />
    <glyph glyph-name="afii10091" unicode="&#x449;" horiz-adv-x="1840" 
d="M125 0v1050h265v-840h350v840h265v-840h350v840h265v-840h185v-590h-265v380h-1415z" />
    <glyph glyph-name="afii10092" unicode="&#x44a;" horiz-adv-x="1312" 
d="M569 1050v-837h298c78.667 0 118 36.333 118 109c0 51.333 -34 77 -102 77h-178v210h188c239.333 0 359 -98.667 359 -296c0 -208.667 -122.667 -313 -368 -313h-580v840h-304v210h569z" />
    <glyph glyph-name="afii10093" unicode="&#x44b;" horiz-adv-x="1540" 
d="M1150 0v1050h265v-1050h-265zM390 1050v-837h318c65.333 0 98 36.333 98 109c0 51.333 -34 77 -102 77h-178v210h187c240 0 360 -98.667 360 -296c0 -208.667 -116 -313 -348 -313h-600v1050h265z" />
    <glyph glyph-name="afii10094" unicode="&#x44c;" horiz-adv-x="1133" 
d="M390 1050v-837h318c65.333 0 98 36.333 98 109c0 51.333 -34 77 -102 77h-178v210h187c240 0 360 -98.667 360 -296c0 -208.667 -116 -313 -348 -313h-600v1050h265z" />
    <glyph glyph-name="afii10095" unicode="&#x44d;" horiz-adv-x="945" 
d="M35 240c86.667 -20 173.334 -30 260.001 -30c186 0 289.333 73.667 310 221h-506v210h507c-17.333 132.667 -121 199 -311 199c-86.667 0 -173.334 -10 -260.001 -30v210c86.667 20 180 30 280 30c380 0 570 -168.333 570 -505c0 -363.333 -190 -545 -570 -545
c-100 0 -193.333 10 -280 30v210z" />
    <glyph glyph-name="afii10096" unicode="&#x44e;" horiz-adv-x="1637" 
d="M1090 200c141.333 0 212 109.667 212 329c0 214 -70.667 321 -212 321c-148.667 0 -223 -107 -223 -321c0 -219.333 74.333 -329 223 -329zM125 0v1050h264v-410h206c24.667 280 189.667 420 495 420c324.667 0 487 -179 487 -537c0 -355.333 -162.333 -533 -487 -533
c-312.667 0 -478 146.667 -496 440h-205v-430h-264z" />
    <glyph glyph-name="afii10097" unicode="&#x44f;" horiz-adv-x="1120" 
d="M730 0v837h-253c-55.333 0 -83 -29.333 -83 -88c0 -86.667 73.333 -145 220 -175v-141l-283 -433h-306l321 449c-152.667 78 -229 180.667 -229 308c0 195.333 112.667 293 338 293h540v-1050h-265z" />
    <glyph glyph-name="afii10071" unicode="&#x451;" horiz-adv-x="1105" 
d="M553 1050c318.667 0 478.001 -162.668 478.001 -488.001c0 -43.333 -3 -86.666 -9 -129.999h-697c0 -148 108.667 -222 326 -222c106 0 212 10 318 30v-210c-92.667 -20 -205.334 -30 -338.001 -30c-380.667 0 -571 179 -571 537c0 342 164.333 513 493 513z
M325.001 615.999h448v8c0 145.333 -73.333 218 -220 218c-140 0 -216 -75.333 -228 -226zM823.001 1430v-190h-215v190h215zM483.001 1430v-190h-215v190h215z" />
    <glyph glyph-name="endash" unicode="&#x2013;" horiz-adv-x="1200" 
d="M1100 630v-210h-1000v210h1000z" />
    <glyph glyph-name="emdash" unicode="&#x2014;" horiz-adv-x="1700" 
d="M1600 630v-210h-1500v210h1500z" />
    <glyph glyph-name="quoteleft" unicode="&#x2018;" horiz-adv-x="495" 
d="M445 1430l-150 -435h-245l150 435h245z" />
    <glyph glyph-name="quoteright" unicode="&#x2019;" horiz-adv-x="495" 
d="M445 1430l-150 -435h-245l150 435h245z" />
    <glyph glyph-name="quotesinglbase" unicode="&#x201a;" horiz-adv-x="435" 
d="M385 185l-150 -435h-185l150 435h185z" />
    <glyph glyph-name="quotedblleft" unicode="&#x201c;" horiz-adv-x="925" 
d="M875 1430l-150 -435h-245l150 435h245zM445 1430l-150 -435h-245l150 435h245z" />
    <glyph glyph-name="quotedblright" unicode="&#x201d;" horiz-adv-x="925" 
d="M875 1430l-150 -435h-245l150 435h245zM445 1430l-150 -435h-245l150 435h245z" />
    <glyph glyph-name="quotedblbase" unicode="&#x201e;" horiz-adv-x="925" 
d="M875 185l-150 -435h-245l150 435h245zM445 185l-150 -435h-245l150 435h245z" />
    <glyph glyph-name="dagger" unicode="&#x2020;" horiz-adv-x="1115" 
d="M695 1430v-420h370v-230h-370v-780h-265v780h-380v230h380v420h265z" />
    <glyph glyph-name="daggerdbl" unicode="&#x2021;" horiz-adv-x="1045" 
d="M655 1430v-380h340v-210h-340v-630h340v-210h-340v-380h-265v380h-340v210h340v630h-340v210h340v380h265z" />
    <glyph glyph-name="bullet" unicode="&#x2022;" horiz-adv-x="630" 
d="M100 725c0 143.333 71.667 215 215 215s215 -71.667 215 -215s-71.667 -215 -215 -215s-215 71.667 -215 215z" />
    <glyph glyph-name="ellipsis" unicode="&#x2026;" horiz-adv-x="1465" 
d="M365 245v-245h-265v245h265zM865 245v-245h-265v245h265zM1365 245v-245h-265v245h265z" />
    <glyph glyph-name="perthousand" unicode="&#x2030;" horiz-adv-x="2231" 
d="M365 0h-265l1017 1430h265zM428 995c89.333 0 134 49 134 147c0 82.667 -44.667 124 -134 124c-92 0 -138 -41.333 -138 -124c0 -98 46 -147 138 -147zM100 1140c0 200 109.333 300 328 300c216 0 324 -100 324 -300c0 -212.667 -108 -319 -324 -319
c-218.667 0 -328 106.333 -328 319zM1807 164c89.333 0 134 45.667 134 137c0 89.333 -44.667 134 -134 134c-92 0 -138 -44.667 -138 -134c0 -91.333 46 -137 138 -137zM1479 299c0 206.667 109.333 310 328 310c216 0 324 -103.333 324 -310c0 -206 -108 -309 -324 -309
c-218.667 0 -328 103 -328 309zM1078 164c89.333 0 134 45.667 134 137c0 89.333 -44.667 134 -134 134c-92 0 -138 -44.667 -138 -134c0 -91.333 46 -137 138 -137zM750 299c0 206.667 109.333 310 328 310c216 0 324 -103.333 324 -310c0 -206 -108 -309 -324 -309
c-218.667 0 -328 103 -328 309z" />
    <glyph glyph-name="guilsinglleft" unicode="&#x2039;" horiz-adv-x="630" 
d="M50 525l258 375h272l-258 -375l258 -375h-272z" />
    <glyph glyph-name="guilsinglright" unicode="&#x203a;" horiz-adv-x="630" 
d="M322 150h-272l258 375l-258 375h272l258 -375z" />
    <glyph glyph-name="fraction" unicode="&#x2044;" horiz-adv-x="1270" 
d="M345 0h-245l825 1430h245z" />
    <glyph glyph-name="Euro" unicode="&#x20ac;" horiz-adv-x="1385" 
d="M1250 50c-123.333 -40 -256.665 -60 -399.998 -60c-500 0 -750 248.333 -750 745c0 470 250 705 750 705c143.333 0 276.666 -20 399.999 -60v-240c-123.333 46.667 -250 70 -380 70c-278.667 0 -440.334 -76 -485.001 -228h673v-210h-693v-70h693v-210h-673
c38 -181.333 199.667 -272 485 -272c130 0 256.667 23.333 380 70v-240z" />
    <glyph glyph-name="trademark" unicode="&#x2122;" horiz-adv-x="1606" 
d="M661 1430v-71h-212v-602h-87v602h-212v71h511zM750 757v673h110l248 -561l242 561h106v-673h-78v543l-239 -543h-69l-243 543v-543h-77z" />
    <glyph glyph-name="partialdiff" unicode="&#x2202;" horiz-adv-x="1293" 
d="M358 1090v230.001c142 80 294.333 120 457 120c317.333 0 476 -158.333 476 -475c0 -78.667 -9.66699 -167 -29 -265c-94.667 -473.333 -335.334 -710 -722.001 -710c-260.667 0 -391 103.667 -391 311c0 39.333 4.66699 82.333 14 129c58 291.333 269 437 633 437h234
c10 47.333 15 89.666 15 126.999c0 157.333 -83.667 236 -251 236c-171.333 0 -316.666 -46.667 -435.999 -140zM997 640.001h-233c-188 0 -300 -70 -336 -210c-8.66699 -34 -13 -64 -13 -90c0 -93.333 53 -140 159 -140c200.667 0 341.667 146.667 423 440z" />
    <glyph glyph-name="product" unicode="&#x220f;" horiz-adv-x="1730" 
d="M1580 1430v-1810h-255v1580h-910v-1580h-265v1810h1430z" />
    <glyph glyph-name="summation" unicode="&#x2211;" horiz-adv-x="1350" 
d="M100 1430h1150v-230h-870l540 -640l-540 -710h870v-230h-1150v230l535 710l-535 640v230z" />
    <glyph glyph-name="radical" unicode="&#x221a;" horiz-adv-x="1370" 
d="M75 1050h385l219 -705l441 1509h250l-580 -1861h-225l-270 847h-220v210z" />
    <glyph glyph-name="infinity" unicode="&#x221e;" horiz-adv-x="1660" 
d="M100 525c0 230 123.333 345 370 345c133.333 0 253.333 -60 360 -180c106.667 120 226.667 180 360 180c246.667 0 370 -115 370 -345s-123.333 -345 -370 -345c-133.333 0 -253.333 60 -360 180c-106.667 -120 -226.667 -180 -360 -180c-246.667 0 -370 115 -370 345z
M1325 525c0 83.333 -45 125 -135 125c-73.333 0 -153.333 -41.667 -240 -125c86.667 -83.333 166.667 -125 240 -125c90 0 135 41.667 135 125zM470 400c73.333 0 146.666 41.667 219.999 125c-73.333 83.333 -146.666 125 -219.999 125c-90 0 -135 -41.667 -135 -125
s45 -125 135 -125z" />
    <glyph glyph-name="integral" unicode="&#x222b;" horiz-adv-x="589" 
d="M589 1450c-122 0 -183 -89 -183 -267c0 -16.667 0.666992 -34.334 2 -53.001l38 -810c0.666992 -18.667 1 -36.667 1 -54c0 -317.333 -149 -476 -447 -476v210c122 0 183 89 183 267c0 16.667 -0.666992 34.334 -2 53.001l-38 810c-0.666992 18.667 -1 36.667 -1 54
c0 317.333 149 476 447 476v-210z" />
    <glyph glyph-name="approxequal" unicode="&#x2248;" horiz-adv-x="1050" 
d="M950 460l0.000976562 -210c-74 -33.333 -147.333 -50 -220 -50s-144.334 16.667 -215.001 50s-140.667 50 -210 50c-68.667 0 -137 -16.667 -205 -50v210c74.667 33.333 148 50 220 50c72.667 0 144.334 -16.667 215.001 -50s140.667 -50 210 -50
s137.666 16.667 204.999 50zM950.001 800l0.000976562 -210c-74 -33.333 -147.333 -50 -220 -50s-144.334 16.667 -215.001 50s-140.667 50 -210 50c-68.667 0 -137 -16.667 -205 -50v210c74.667 33.333 148 50 220 50c72.667 0 144.334 -16.667 215.001 -50
s140.667 -50 210 -50s137.666 16.667 204.999 50z" />
    <glyph glyph-name="approxequal" unicode="&#x22f2;" horiz-adv-x="1050" 
d="M950 460l0.000976562 -210c-74 -33.333 -147.333 -50 -220 -50s-144.334 16.667 -215.001 50s-140.667 50 -210 50c-68.667 0 -137 -16.667 -205 -50v210c74.667 33.333 148 50 220 50c72.667 0 144.334 -16.667 215.001 -50s140.667 -50 210 -50
s137.666 16.667 204.999 50zM950.001 800l0.000976562 -210c-74 -33.333 -147.333 -50 -220 -50s-144.334 16.667 -215.001 50s-140.667 50 -210 50c-68.667 0 -137 -16.667 -205 -50v210c74.667 33.333 148 50 220 50c72.667 0 144.334 -16.667 215.001 -50
s140.667 -50 210 -50s137.666 16.667 204.999 50z" />
    <glyph glyph-name="notequal" unicode="&#x2260;" horiz-adv-x="950" 
d="M243 250h-143v210h263l74 130h-337v210h457l143 250h150l-143 -250h143v-210h-263l-74 -130h337v-210h-457l-143 -250h-150z" />
    <glyph glyph-name="lessequal" unicode="&#x2264;" horiz-adv-x="950" 
d="M850 210v-210h-750v210h750zM100 600v150l750 320v-220l-477 -171l477 -179v-220z" />
    <glyph glyph-name="greaterequal" unicode="&#x2265;" horiz-adv-x="950" 
d="M850 210v-210h-750v210h750zM100 280v220l477 179l-477 171v220l750 -320v-150z" />
    <glyph glyph-name="lozenge" unicode="&#x25ca;" horiz-adv-x="1085" 
d="M420 1430h245l370 -715l-370 -715h-245l-370 715zM315 715l228 -485l227 485l-227 485z" />
    <glyph glyph-name="zero.osf" unicode="&#xe012;" horiz-adv-x="1275" 
d="M643 200c174.667 0 262 109.667 262 329c0 214 -87.333 321 -262 321c-182 0 -273 -107 -273 -321c0 -219.333 91 -329 273 -329zM95 523c0 358 182.667 537 548 537c358 0 537 -179 537 -537c0 -355.333 -179 -533 -537 -533c-365.333 0 -548 177.667 -548 533z" />
    <glyph glyph-name="one.osf" unicode="&#xe013;" horiz-adv-x="854" 
d="M335 210v591h-260v159l525 100v-850h249v-210h-774v210h260z" />
    <glyph glyph-name="two.osf" unicode="&#xe014;" horiz-adv-x="1100" 
d="M85 0v209.999c416.667 184.667 625 358 625 520c0 80 -66.667 120 -200 120c-140 0 -275 -36.667 -405 -110v220c130 66.667 265 100 405 100c310 0 465 -110 465 -330c0 -193.333 -175.667 -366.666 -527 -519.999h577v-210h-940z" />
    <glyph glyph-name="three.osf" unicode="&#xe015;" horiz-adv-x="1110" 
d="M90 990c133.333 40 260 60 380 60c350 0 525 -126.667 525 -380c0 -124 -62.667 -215.667 -188 -275c125.333 -50 188 -141.667 188 -275c0 -266.667 -175 -400 -525 -400c-120 0 -246.667 20 -380 60v220c133.333 -46.667 260 -70 380 -70c173.333 0 260 63.333 260 190
c0 113.333 -64 170 -192 170h-298v210h295c130 0 195 56.667 195 170s-86.667 170 -260 170c-120 0 -246.667 -23.333 -380 -70v220z" />
    <glyph glyph-name="four.osf" unicode="&#xe016;" horiz-adv-x="1165" 
d="M977 -280h-265v309h-652v210l505 810h294l-526 -810h379v418h265v-418l148 -76v-134h-148v-309z" />
    <glyph glyph-name="five.osf" unicode="&#xe017;" horiz-adv-x="1145" 
d="M175 1050h824v-210h-597l-13 -302c51.333 14.667 103.333 22 156 22c346.667 0 520 -136.667 520 -410c0 -293.333 -193.333 -440 -580 -440c-120 0 -230 20 -330 60v220c100 -46.667 213.333 -70 340 -70c203.333 0 305 73.333 305 220c0 140 -91.667 210 -275 210
c-130 0 -260 -16.667 -390 -50z" />
    <glyph glyph-name="six.osf" unicode="&#xe018;" horiz-adv-x="1265" 
d="M110 520c0 350.667 226 635 678 853l106 -197c-194.667 -77.333 -346 -190.333 -454 -339c67.333 42 146 63 236 63c329.333 0 494 -146.667 494 -440c0 -313.333 -181 -470 -543 -470c-344.667 0 -517 176.667 -517 530zM646 200c175.333 0 263 86.667 263 260
c0 153.333 -87.333 230 -262 230c-96 0 -180.667 -16 -254 -48c-18.667 -33.333 -28 -75.333 -28 -126c0 -210.667 93.667 -316 281 -316z" />
    <glyph glyph-name="seven.osf" unicode="&#xe019;" horiz-adv-x="1060" 
d="M30 1050h960v-210l-632 -1120h-291l652 1120h-689v210z" />
    <glyph glyph-name="eight.osf" unicode="&#xe020;" horiz-adv-x="1250" 
d="M105 384c0 155.333 84 262.333 252 321c-141.333 56.667 -212 157.667 -212 303c0 224 160 336 480 336s480 -112 480 -336c0 -145.333 -72.333 -246.333 -217 -303c171.333 -58.667 257 -165.667 257 -321c0 -262.667 -173.333 -394 -520 -394s-520 131.333 -520 394z
M840 978c0 101.333 -74.333 152 -223 152c-138 0 -207 -50.667 -207 -152c0 -118.667 73.333 -178 220 -178c140 0 210 59.333 210 178zM880 398c0 128 -87.667 192 -263 192c-164.667 0 -247 -64 -247 -192c0 -132 86.667 -198 260 -198c166.667 0 250 66 250 198z" />
    <glyph glyph-name="nine.osf" unicode="&#xe021;" horiz-adv-x="1270" 
d="M1155 527c0 -350.667 -226 -635 -678 -853l-106 197c194.667 77.333 346 190.333 454 339c-67.333 -42 -146 -63 -236 -63c-329.333 0 -494 146.667 -494 440c0 313.333 181 470 543 470c344.667 0 517 -176.667 517 -530zM619 847c-175.333 0 -263 -86.667 -263 -260
c0 -153.333 87.333 -230 262 -230c96 0 180.667 16 254 48c18.667 33.333 28 75.333 28 126c0 210.667 -93.667 316 -281 316z" />
    <glyph glyph-name="g.alt" unicode="&#xe022;" horiz-adv-x="1135" 
d="M555 1050c97.333 0 181.667 -16.667 253 -50l146 50h146v-210h-135c29.333 -52.667 44.333 -103.667 45 -153c0 -248 -156 -372 -468 -372c-62 0 -113.333 7 -154 21c-32 -29.333 -48 -61 -48 -95s19.667 -51 59 -51h314c238 0 357 -88.333 357 -265
c0 -216.667 -180.667 -325 -542 -325c-161.333 0 -312.333 30 -453 90v230c142.667 -73.333 295 -110 457 -110c188.667 0 283 38.333 283 115c0 36.667 -33 55 -99 55h-393c-155.333 0 -233 64.667 -233 194c0 89.333 46.667 165 140 227c-96.667 66 -145 158.333 -145 277
c0 248 156.667 372 470 372zM550.001 530c130 0 195 51.667 195 155s-65 155 -195 155c-133.333 0 -200 -51.667 -200 -155s66.667 -155 200 -155z" />
    <glyph glyph-name="gcircumflex.alt" unicode="&#xe023;" horiz-adv-x="1135" 
d="M555 1050c97.333 0 181.667 -16.667 253 -50l146 50h146v-210h-135c29.333 -52.667 44.333 -103.667 45 -153c0 -248 -156 -372 -468 -372c-62 0 -113.333 7 -154 21c-32 -29.333 -48 -61 -48 -95s19.667 -51 59 -51h314c238 0 357 -88.333 357 -265
c0 -216.667 -180.667 -325 -542 -325c-161.333 0 -312.333 30 -453 90v230c142.667 -73.333 295 -110 457 -110c188.667 0 283 38.333 283 115c0 36.667 -33 55 -99 55h-393c-155.333 0 -233 64.667 -233 194c0 89.333 46.667 165 140 227c-96.667 66 -145 158.333 -145 277
c0 248 156.667 372 470 372zM550.001 530c130 0 195 51.667 195 155s-65 155 -195 155c-133.333 0 -200 -51.667 -200 -155s66.667 -155 200 -155zM484.001 1430h150l175 -260h-180l-70 130l-70 -130h-180z" />
    <glyph glyph-name="gbreve.alt" unicode="&#xe024;" horiz-adv-x="1135" 
d="M555 1050c97.333 0 181.667 -16.667 253 -50l146 50h146v-210h-135c29.333 -52.667 44.333 -103.667 45 -153c0 -248 -156 -372 -468 -372c-62 0 -113.333 7 -154 21c-32 -29.333 -48 -61 -48 -95s19.667 -51 59 -51h314c238 0 357 -88.333 357 -265
c0 -216.667 -180.667 -325 -542 -325c-161.333 0 -312.333 30 -453 90v230c142.667 -73.333 295 -110 457 -110c188.667 0 283 38.333 283 115c0 36.667 -33 55 -99 55h-393c-155.333 0 -233 64.667 -233 194c0 89.333 46.667 165 140 227c-96.667 66 -145 158.333 -145 277
c0 248 156.667 372 470 372zM550.001 530c130 0 195 51.667 195 155s-65 155 -195 155c-133.333 0 -200 -51.667 -200 -155s66.667 -155 200 -155zM250.001 1430h175c0 -93.333 40 -140 120 -140s120 46.667 120 140h175c0 -193.333 -98.333 -290 -295 -290
s-295 96.667 -295 290z" />
    <glyph glyph-name="gdotaccent.alt" unicode="&#xe025;" horiz-adv-x="1135" 
d="M555 1050c97.333 0 181.667 -16.667 253 -50l146 50h146v-210h-135c29.333 -52.667 44.333 -103.667 45 -153c0 -248 -156 -372 -468 -372c-62 0 -113.333 7 -154 21c-32 -29.333 -48 -61 -48 -95s19.667 -51 59 -51h314c238 0 357 -88.333 357 -265
c0 -216.667 -180.667 -325 -542 -325c-161.333 0 -312.333 30 -453 90v230c142.667 -73.333 295 -110 457 -110c188.667 0 283 38.333 283 115c0 36.667 -33 55 -99 55h-393c-155.333 0 -233 64.667 -233 194c0 89.333 46.667 165 140 227c-96.667 66 -145 158.333 -145 277
c0 248 156.667 372 470 372zM550.001 530c130 0 195 51.667 195 155s-65 155 -195 155c-133.333 0 -200 -51.667 -200 -155s66.667 -155 200 -155zM667.001 1430v-220h-235v220h235z" />
    <glyph glyph-name="gcomma.alt" unicode="&#xe026;" horiz-adv-x="1135" 
d="M555 1050c97.333 0 181.667 -16.667 253 -50l146 50h146v-210h-135c29.333 -52.667 44.333 -103.667 45 -153c0 -248 -156 -372 -468 -372c-62 0 -113.333 7 -154 21c-32 -29.333 -48 -61 -48 -95s19.667 -51 59 -51h314c238 0 357 -88.333 357 -265
c0 -216.667 -180.667 -325 -542 -325c-161.333 0 -312.333 30 -453 90v230c142.667 -73.333 295 -110 457 -110c188.667 0 283 38.333 283 115c0 36.667 -33 55 -99 55h-393c-155.333 0 -233 64.667 -233 194c0 89.333 46.667 165 140 227c-96.667 66 -145 158.333 -145 277
c0 248 156.667 372 470 372zM550.001 530c130 0 195 51.667 195 155s-65 155 -195 155c-133.333 0 -200 -51.667 -200 -155s66.667 -155 200 -155zM803.001 1430l-150 -280h-265l150 280h265z" />
    <glyph glyph-name="k.alt" unicode="&#xe027;" horiz-adv-x="1142" 
d="M1151 1050l-420 -474l436 -576h-337l-354 505v103l357 442h318zM125 0v1430h265v-1430h-265z" />
    <glyph glyph-name="kcomma.alt" unicode="&#xe028;" horiz-adv-x="1142" 
d="M125 0v1430h265v-1430h-265zM756 -100l-150 -280h-265l150 280h265zM1151 1050l-420 -474l436 -576h-337l-354 505v103l357 442h318z" />
    <glyph glyph-name="germandbls.cap" unicode="&#xe029;" horiz-adv-x="1551" 
d="M150 0l-0.000976562 920c0 353.333 231.667 530 695 530c182 0 373.667 -30 575 -90v-220l-376 -313c304.667 -3.33301 457 -132.333 457 -387c0 -294.667 -184.667 -442 -554 -442c-104 0 -208 23.333 -312 70v230c104.667 -46.667 209.334 -70 314.001 -70
c184.667 0 277 70.667 277 212c0 114 -88.333 171.333 -265 172h-226v198l428 370c-96 26.667 -202 40 -318 40c-286.667 0 -430 -100 -430 -300v-920h-265z" />
    <glyph glyph-name="MT.sign" unicode="&#xf000;" horiz-adv-x="1724" 
d="M1181 332v102l-253 13v540h135l51 -400h115l-38 511h-249l-80 -43l-79 43h-250l-38 -511h114l51 400h136v-540l-253 -13v-102h638zM534 1330l37 89l89 -37l53 80l81 -53l68 67l68 -67l81 53l53 -80l89 37l37 -89l94 19l20 -96h97v-96l94 -19l-19 -94l89 -37l-36 -90
l81 -52l-54 -82l68 -67l-69 -69l55 -82l-82 -52l37 -90l-89 -37l19 -94l-94 -19v-96h-97l-20 -96l-94 19l-37 -89l-89 37l-53 -80l-81 53l-68 -67l-68 67l-81 -53l-53 80l-89 -37l-37 89l-95 -19l-19 96h-97v96l-95 19l19 94l-90 39l37 88l-80 53l55 81l-69 69l69 67l-55 82
l82 54l-37 88l89 37l-19 94l94 19v96h97l19 96zM862 1347c-174.667 0 -323.667 -61.667 -447 -185s-185 -272 -185 -446c0 -175.333 61.667 -324.666 185 -447.999s272.333 -185 447 -185s323.667 61.667 447 185s185 272.666 185 447.999c0 174 -61.667 322.667 -185 446
s-272.333 185 -447 185zM1270 1123.5c112.667 -113 169 -248.833 169 -407.5c0 -160 -56.333 -296.5 -169 -409.5s-248.667 -169.5 -408 -169.5s-295.333 56.5 -408 169.5s-169 249.5 -169 409.5c0 158.667 56.333 294.5 169 407.5s248.667 169.5 408 169.5
s295.333 -56.5 408 -169.5z" />
    <glyph glyph-name=".null" horiz-adv-x="0" 
 />
    <glyph glyph-name="nonmarkingreturn" horiz-adv-x="390" 
 />
    </font>
</defs>
</svg>
